%TF.GenerationSoftware,KiCad,Pcbnew,9.0.7*%
%TF.CreationDate,2026-09-09T13:58:16-07:00*%
%TF.ProjectId,Caliper_XIAO_840,43616c69-7065-4725-9f58-49414f5f3834,rev?*%
%TF.SameCoordinates,Original*%
%TF.FileFunction,Paste,Bot*%
%TF.FilePolarity,Positive*%
%FSLAX46Y46*%
G04 Gerber Fmt 4.6, Leading zero omitted, Abs format (unit mm)*
G04 Created by KiCad (PCBNEW 9.0.7) date 2026-09-09 13:58:16*
%MOMM*%
%LPD*%
G01*
G04 APERTURE LIST*
G04 Aperture macros list*
%AMRoundRect*
0 Rectangle with rounded corners*
0 $1 Rounding radius*
0 $2 $3 $4 $5 $6 $7 $8 $9 X,Y pos of 4 corners*
0 Add a 4 corners polygon primitive as box body*
4,1,4,$2,$3,$4,$5,$6,$7,$8,$9,$2,$3,0*
0 Add four circle primitives for the rounded corners*
1,1,$1+$1,$2,$3*
1,1,$1+$1,$4,$5*
1,1,$1+$1,$6,$7*
1,1,$1+$1,$8,$9*
0 Add four rect primitives between the rounded corners*
20,1,$1+$1,$2,$3,$4,$5,0*
20,1,$1+$1,$4,$5,$6,$7,0*
20,1,$1+$1,$6,$7,$8,$9,0*
20,1,$1+$1,$8,$9,$2,$3,0*%
G04 Aperture macros list end*
%ADD10RoundRect,0.225000X0.250000X-0.225000X0.250000X0.225000X-0.250000X0.225000X-0.250000X-0.225000X0*%
%ADD11RoundRect,0.225000X-0.250000X0.225000X-0.250000X-0.225000X0.250000X-0.225000X0.250000X0.225000X0*%
%ADD12RoundRect,0.250000X0.250000X2.500000X-0.250000X2.500000X-0.250000X-2.500000X0.250000X-2.500000X0*%
%ADD13RoundRect,0.250000X0.550000X1.250000X-0.550000X1.250000X-0.550000X-1.250000X0.550000X-1.250000X0*%
%ADD14RoundRect,0.200000X0.200000X0.275000X-0.200000X0.275000X-0.200000X-0.275000X0.200000X-0.275000X0*%
%ADD15R,1.700000X3.700000*%
%ADD16RoundRect,0.008100X0.551900X0.126900X-0.551900X0.126900X-0.551900X-0.126900X0.551900X-0.126900X0*%
%ADD17RoundRect,0.088500X-0.206500X0.516500X-0.206500X-0.516500X0.206500X-0.516500X0.206500X0.516500X0*%
%ADD18RoundRect,0.250000X-2.500000X0.250000X-2.500000X-0.250000X2.500000X-0.250000X2.500000X0.250000X0*%
%ADD19RoundRect,0.250000X-1.250000X0.550000X-1.250000X-0.550000X1.250000X-0.550000X1.250000X0.550000X0*%
%ADD20R,1.600000X1.500000*%
%ADD21RoundRect,0.250000X-0.375000X-1.000000X0.375000X-1.000000X0.375000X1.000000X-0.375000X1.000000X0*%
%ADD22RoundRect,0.250000X-0.250000X-2.500000X0.250000X-2.500000X0.250000X2.500000X-0.250000X2.500000X0*%
%ADD23RoundRect,0.250000X-0.550000X-1.250000X0.550000X-1.250000X0.550000X1.250000X-0.550000X1.250000X0*%
%ADD24RoundRect,0.500000X-0.500000X0.875000X-0.500000X-0.875000X0.500000X-0.875000X0.500000X0.875000X0*%
%ADD25RoundRect,0.275000X-0.975000X-0.275000X0.975000X-0.275000X0.975000X0.275000X-0.975000X0.275000X0*%
%ADD26RoundRect,0.150000X-0.150000X-0.200000X0.150000X-0.200000X0.150000X0.200000X-0.150000X0.200000X0*%
%TA.AperFunction,Profile*%
%ADD27C,0.100000*%
%TD*%
%TA.AperFunction,Profile*%
%ADD28C,0.050000*%
%TD*%
G04 APERTURE END LIST*
D10*
%TO.C,C1*%
X4700000Y24400000D03*
X4700000Y25950000D03*
%TD*%
%TO.C,C2*%
X6500000Y24425000D03*
X6500000Y25975000D03*
%TD*%
D11*
%TO.C,C3*%
X18600000Y27475000D03*
X18600000Y25925000D03*
%TD*%
D10*
%TO.C,C4*%
X51900000Y18425000D03*
X51900000Y19975000D03*
%TD*%
D12*
%TO.C,J2*%
X53300000Y23900000D03*
X51300000Y23900000D03*
X49300000Y23900000D03*
X47300000Y23900000D03*
D13*
X55700000Y26150000D03*
X44900000Y26150000D03*
%TD*%
D14*
%TO.C,R1*%
X53425000Y12300000D03*
X51775000Y12300000D03*
%TD*%
D15*
%TO.C,SW2*%
X54450000Y7200000D03*
X48550000Y7200000D03*
%TD*%
D16*
%TO.C,U1*%
X23362500Y25750000D03*
X23362500Y25250000D03*
X23362500Y24750000D03*
X23362500Y24250000D03*
X20552500Y24250000D03*
X20552500Y24750000D03*
X20552500Y25250000D03*
X20552500Y25750000D03*
%TD*%
D17*
%TO.C,Q1*%
X56400000Y11045000D03*
X55450000Y13555000D03*
X57350000Y13555000D03*
%TD*%
D18*
%TO.C,J4*%
X49700000Y16600000D03*
X49700000Y14600000D03*
D19*
X47450000Y19000000D03*
X47450000Y12200000D03*
%TD*%
D20*
%TO.C,BZ1*%
X54200000Y18745000D03*
X56400000Y18745000D03*
%TD*%
D21*
%TO.C,SW1*%
X10100000Y23850000D03*
X12600000Y23850000D03*
X15100000Y23850000D03*
%TD*%
D22*
%TO.C,J1*%
X28100000Y6200000D03*
X30100000Y6200000D03*
X32100000Y6200000D03*
X34100000Y6200000D03*
X36100000Y6200000D03*
X38100000Y6200000D03*
X40100000Y6200000D03*
X42100000Y6200000D03*
D23*
X25700000Y3950000D03*
X44500000Y3950000D03*
%TD*%
D24*
%TO.C,U2*%
X6260300Y20285000D03*
X8800300Y20285000D03*
X11340300Y20285000D03*
X13880300Y20285000D03*
X16420300Y20285000D03*
X18960300Y20285000D03*
X21500300Y20285000D03*
X21500300Y4120000D03*
X18960300Y4120000D03*
X16420300Y4120000D03*
X13880300Y4120000D03*
X11340300Y4120000D03*
X8800300Y4120000D03*
X6260300Y4120000D03*
D25*
X23117200Y8420000D03*
X23117200Y6515000D03*
%TD*%
D26*
%TO.C,D1*%
X55800000Y15700000D03*
X54400000Y15700000D03*
%TD*%
D27*
X5000000Y28800000D02*
X57000000Y28800000D01*
D28*
X3200000Y27000000D02*
X3200000Y27000000D01*
D27*
X5000000Y1200000D02*
G75*
G02*
X3200000Y3000000I0J1800000D01*
G01*
X3200000Y27000000D02*
X3200000Y3000000D01*
X57000000Y28800000D02*
G75*
G02*
X58800000Y27000000I0J-1800000D01*
G01*
D28*
X57000000Y28800000D02*
X57000000Y28800000D01*
X58800000Y27000000D02*
X58800000Y27000000D01*
D27*
X3200000Y27000000D02*
G75*
G02*
X5000000Y28800000I1800000J0D01*
G01*
D28*
X3200000Y27000000D02*
X3200000Y27000000D01*
D27*
X46200000Y2200000D02*
G75*
G02*
X45200000Y1200000I-1000000J0D01*
G01*
D28*
X3200000Y3000000D02*
X3200000Y3000000D01*
X57000000Y28800000D02*
X57000000Y28800000D01*
X57000000Y28800000D02*
X57000000Y28800000D01*
X57000000Y28800000D02*
X57000000Y28800000D01*
X5000000Y28800000D02*
X5000000Y28800000D01*
D27*
X46200000Y2200000D02*
X46200000Y4140000D01*
D28*
X58800000Y27000000D02*
X58800000Y27000000D01*
X5000000Y28800000D02*
X5000000Y28800000D01*
D27*
X58800000Y6140000D02*
G75*
G02*
X57800000Y5140000I-1000000J0D01*
G01*
D28*
X57000000Y28800000D02*
X57000000Y28800000D01*
D27*
X5000000Y1200000D02*
X45200000Y1200000D01*
D28*
X57000000Y28800000D02*
X57000000Y28800000D01*
X3200000Y3000000D02*
X3200000Y3000000D01*
X57000000Y28800000D02*
X57000000Y28800000D01*
D27*
X58800000Y27000000D02*
X58800000Y6140000D01*
D28*
X5000000Y1200000D02*
X5000000Y1200000D01*
D27*
X57800000Y5140000D02*
X47200000Y5140000D01*
D28*
X5000000Y1200000D02*
X5000000Y1200000D01*
D27*
X46200000Y4140000D02*
G75*
G02*
X47200000Y5140000I1000000J0D01*
G01*
D28*
X57000000Y28800000D02*
X57000000Y28800000D01*
X1666666Y0D02*
G75*
G02*
X-1666666Y0I-1666666J0D01*
G01*
X-1666666Y0D02*
G75*
G02*
X1666666Y0I1666666J0D01*
G01*
X-2500000Y0D02*
X2500000Y0D01*
X0Y2500000D02*
X0Y-2500000D01*
M02*
