%TF.GenerationSoftware,KiCad,Pcbnew,9.0.7*%
%TF.CreationDate,2026-09-09T13:58:15-07:00*%
%TF.ProjectId,Caliper_XIAO_840,43616c69-7065-4725-9f58-49414f5f3834,rev?*%
%TF.SameCoordinates,Original*%
%TF.FileFunction,Copper,L1,Top*%
%TF.FilePolarity,Positive*%
%FSLAX46Y46*%
G04 Gerber Fmt 4.6, Leading zero omitted, Abs format (unit mm)*
G04 Created by KiCad (PCBNEW 9.0.7) date 2026-09-09 13:58:15*
%MOMM*%
%LPD*%
G01*
G04 APERTURE LIST*
G04 Aperture macros list*
%AMRoundRect*
0 Rectangle with rounded corners*
0 $1 Rounding radius*
0 $2 $3 $4 $5 $6 $7 $8 $9 X,Y pos of 4 corners*
0 Add a 4 corners polygon primitive as box body*
4,1,4,$2,$3,$4,$5,$6,$7,$8,$9,$2,$3,0*
0 Add four circle primitives for the rounded corners*
1,1,$1+$1,$2,$3*
1,1,$1+$1,$4,$5*
1,1,$1+$1,$6,$7*
1,1,$1+$1,$8,$9*
0 Add four rect primitives between the rounded corners*
20,1,$1+$1,$2,$3,$4,$5,0*
20,1,$1+$1,$4,$5,$6,$7,0*
20,1,$1+$1,$6,$7,$8,$9,0*
20,1,$1+$1,$8,$9,$2,$3,0*%
G04 Aperture macros list end*
%TA.AperFunction,SMDPad,CuDef*%
%ADD10R,1.000000X2.500000*%
%TD*%
%TA.AperFunction,ComponentPad*%
%ADD11C,1.900000*%
%TD*%
%TA.AperFunction,ComponentPad*%
%ADD12RoundRect,0.350000X0.350000X-0.900000X0.350000X0.900000X-0.350000X0.900000X-0.350000X-0.900000X0*%
%TD*%
%TA.AperFunction,ViaPad*%
%ADD13C,0.800000*%
%TD*%
%TA.AperFunction,Conductor*%
%ADD14C,0.500000*%
%TD*%
%TA.AperFunction,Conductor*%
%ADD15C,0.200000*%
%TD*%
%TA.AperFunction,Conductor*%
%ADD16C,0.250000*%
%TD*%
%TA.AperFunction,Profile*%
%ADD17C,0.100000*%
%TD*%
%TA.AperFunction,Profile*%
%ADD18C,0.050000*%
%TD*%
G04 APERTURE END LIST*
D10*
%TO.P,J3,1,Pin_1*%
%TO.N,/V_TARG*%
X42545000Y7658600D03*
%TO.P,J3,2,Pin_2*%
%TO.N,/B_CLOCK*%
X40005000Y7658600D03*
%TO.P,J3,3,Pin_3*%
%TO.N,/B_DATA*%
X37465000Y7658600D03*
%TO.P,J3,4,Pin_4*%
%TO.N,/A_CLOCK*%
X34925000Y7658600D03*
%TO.P,J3,5,Pin_5*%
%TO.N,/A_DATA*%
X32385000Y7658600D03*
%TO.P,J3,6,Pin_6*%
%TO.N,/BUTTON*%
X29845000Y7658600D03*
%TO.P,J3,7,Pin_7*%
%TO.N,/BUZZ*%
X27305000Y7658600D03*
%TO.P,J3,8,Pin_8*%
%TO.N,GND*%
X24765000Y7658600D03*
%TD*%
D11*
%TO.P,U2,24,SWDIO*%
%TO.N,/SWDIO*%
X5311800Y13500000D03*
%TO.P,U2,25,SWCLK*%
%TO.N,/SWDCLK*%
X5311800Y10960000D03*
%TO.P,U2,26,RESET*%
%TO.N,/~{RESET}*%
X7851800Y13500000D03*
%TO.P,U2,27,GND*%
%TO.N,GND*%
X7851800Y10960000D03*
D12*
%TO.P,U2,32,BAT*%
%TO.N,+BATT*%
X13566800Y16675000D03*
%TO.P,U2,33,GND*%
%TO.N,GND*%
X11661800Y16675000D03*
%TD*%
D13*
%TO.N,GND*%
X41826800Y9921200D03*
X42186400Y11920900D03*
X45600000Y13800000D03*
X55700000Y22000000D03*
X8506400Y23881300D03*
X57800000Y25700000D03*
%TO.N,+BATT*%
X13850000Y22635800D03*
X49940300Y18369300D03*
%TO.N,/SWDCLK*%
X24562200Y19279900D03*
%TO.N,/SWDIO*%
X26281400Y19619800D03*
%TO.N,/DEBUG*%
X14700000Y6500000D03*
X20700000Y6500000D03*
X31000000Y2715000D03*
X35500000Y2715000D03*
%TO.N,/V_TARG*%
X21082800Y26802800D03*
X53995800Y20414500D03*
%TO.N,/B_CLOCK*%
X47360900Y27945500D03*
X50250400Y20736000D03*
X20037300Y26673800D03*
%TO.N,/B_DATA*%
X21803600Y25787100D03*
X40965100Y25745200D03*
X44648900Y16134200D03*
%TO.N,/A_CLOCK*%
X36948600Y12205500D03*
X16420300Y7451800D03*
%TO.N,/A_DATA*%
X19455000Y9815900D03*
X35402700Y13428400D03*
%TO.N,/BUTTON*%
X50020300Y8043900D03*
X29206500Y9521900D03*
%TO.N,/BUZZ*%
X54275600Y11014100D03*
X8336500Y8597000D03*
%TO.N,3V3*%
X12645900Y2104300D03*
X42352100Y2329500D03*
%TO.N,/~{RESET}*%
X33118400Y3281600D03*
%TO.N,/BATT*%
X10204600Y25744400D03*
X46598100Y17517500D03*
%TD*%
D14*
%TO.N,GND*%
X42186400Y11920900D02*
X42186400Y10280800D01*
X9847600Y8964200D02*
X20823100Y8964200D01*
X24765000Y7658600D02*
X24765000Y9360300D01*
X20823100Y8964200D02*
X21219200Y9360300D01*
X8506400Y23881300D02*
X11661800Y20725900D01*
X42186400Y10280800D02*
X41826800Y9921200D01*
X21219200Y9360300D02*
X24765000Y9360300D01*
X11661800Y20725900D02*
X11661800Y16675000D01*
X7851800Y10960000D02*
X9847600Y8964200D01*
%TO.N,+BATT*%
X13850000Y16958200D02*
X13850000Y22635800D01*
X49563300Y22635800D02*
X51143500Y21055600D01*
X13850000Y22635800D02*
X49563300Y22635800D01*
X51143500Y21055600D02*
X51143500Y19572500D01*
X51143500Y19572500D02*
X49940300Y18369300D01*
X13566800Y16675000D02*
X13850000Y16958200D01*
D15*
%TO.N,/SWDCLK*%
X6598900Y12916000D02*
X6598900Y14028100D01*
X10643800Y14769400D02*
X10694000Y14719200D01*
X5311800Y10960000D02*
X5311800Y11628900D01*
X6598900Y14028100D02*
X7340200Y14769400D01*
X10694000Y14719200D02*
X16737700Y14719200D01*
X16737700Y14719200D02*
X21298400Y19279900D01*
X7340200Y14769400D02*
X10643800Y14769400D01*
X21298400Y19279900D02*
X24562200Y19279900D01*
X5311800Y11628900D02*
X6598900Y12916000D01*
%TO.N,/SWDIO*%
X6983700Y15171900D02*
X5311800Y13500000D01*
X14250000Y15120900D02*
X11049100Y15120900D01*
X10998100Y15171900D02*
X6983700Y15171900D01*
X11049100Y15120900D02*
X10998100Y15171900D01*
X25909300Y19991900D02*
X19121000Y19991900D01*
X19121000Y19991900D02*
X14250000Y15120900D01*
X26281400Y19619800D02*
X25909300Y19991900D01*
D16*
%TO.N,/DEBUG*%
X31159400Y2555600D02*
X35340600Y2555600D01*
X14700000Y6500000D02*
X20700000Y6500000D01*
X31000000Y2715000D02*
X31159400Y2555600D01*
X35340600Y2555600D02*
X35500000Y2715000D01*
D15*
%TO.N,/V_TARG*%
X42545000Y7658600D02*
X53995800Y19109400D01*
X47607500Y26802800D02*
X21082800Y26802800D01*
X53995800Y19109400D02*
X53995800Y20414500D01*
X53995800Y20414500D02*
X47607500Y26802800D01*
%TO.N,/B_CLOCK*%
X50250400Y20736000D02*
X48249200Y20736000D01*
X48249200Y20736000D02*
X40005000Y12491800D01*
X20037300Y26749500D02*
X20037300Y26673800D01*
X40005000Y12491800D02*
X40005000Y7658600D01*
X47360900Y27945500D02*
X21233300Y27945500D01*
X21233300Y27945500D02*
X20037300Y26749500D01*
%TO.N,/B_DATA*%
X41853100Y9219400D02*
X42178100Y9219400D01*
X41039900Y8406200D02*
X41853100Y9219400D01*
X40923200Y25787100D02*
X40965100Y25745200D01*
X44648900Y11690200D02*
X44648900Y16134200D01*
X41039900Y6458300D02*
X41039900Y8406200D01*
X37465000Y7658600D02*
X37465000Y6106900D01*
X42178100Y9219400D02*
X44648900Y11690200D01*
X40688600Y6107000D02*
X41039900Y6458300D01*
X21803600Y25787100D02*
X40923200Y25787100D01*
X40688600Y6106900D02*
X40688600Y6107000D01*
X37465000Y6106900D02*
X40688600Y6106900D01*
%TO.N,/A_CLOCK*%
X22795200Y7451700D02*
X22795200Y7451800D01*
X34925000Y6106900D02*
X31717500Y6106900D01*
X31115000Y6709400D02*
X31115000Y8677200D01*
X34925000Y10181900D02*
X34925000Y9210300D01*
X24140000Y6106900D02*
X22795200Y7451700D01*
X31115000Y8677200D02*
X29558000Y10234200D01*
X25906500Y8498300D02*
X25906500Y6606300D01*
X27642400Y10234200D02*
X25906500Y8498300D01*
X36948600Y12205500D02*
X34925000Y10181900D01*
X31717500Y6106900D02*
X31115000Y6709400D01*
X22795200Y7451800D02*
X16420300Y7451800D01*
X29558000Y10234200D02*
X27642400Y10234200D01*
X25407100Y6106900D02*
X24140000Y6106900D01*
X25906500Y6606300D02*
X25407100Y6106900D01*
X34925000Y8333600D02*
X34925000Y7658600D01*
X34925000Y8333600D02*
X34925000Y9210300D01*
X34925000Y7658600D02*
X34925000Y6106900D01*
%TO.N,/A_DATA*%
X32385000Y7658600D02*
X32385000Y9210300D01*
X32385000Y9210300D02*
X32385000Y10410700D01*
X26767600Y10635900D02*
X26136800Y10005100D01*
X32159800Y10635900D02*
X26767600Y10635900D01*
X19644200Y10005100D02*
X19455000Y9815900D01*
X32385000Y10410700D02*
X32159800Y10635900D01*
X26136800Y10005100D02*
X19644200Y10005100D01*
X32385000Y10410700D02*
X35402700Y13428400D01*
%TO.N,/BUTTON*%
X41204100Y6054500D02*
X48030900Y6054500D01*
X48030900Y6054500D02*
X50020300Y8043900D01*
X29845000Y9210300D02*
X29518100Y9210300D01*
X29845000Y8434500D02*
X29845000Y9210300D01*
X29518100Y9210300D02*
X29206500Y9521900D01*
X41090800Y5941200D02*
X41204100Y6054500D01*
X29845000Y7658600D02*
X29845000Y6106900D01*
X40890800Y5654300D02*
X41090800Y5854300D01*
X30297600Y5654300D02*
X40890800Y5654300D01*
X29845000Y6106900D02*
X30297600Y5654300D01*
X41090800Y5854300D02*
X41090800Y5941200D01*
X29845000Y8434500D02*
X29845000Y7658600D01*
%TO.N,/BUZZ*%
X27305000Y7658600D02*
X27305000Y6882800D01*
X28197000Y5214900D02*
X41019400Y5214900D01*
X48914300Y5652800D02*
X54275600Y11014100D01*
X27305000Y6882800D02*
X27305000Y6106900D01*
X27305000Y6106900D02*
X28197000Y5214900D01*
X26109800Y5687600D02*
X27305000Y6882800D01*
X41457300Y5652800D02*
X48914300Y5652800D01*
X8336500Y8597000D02*
X11245900Y5687600D01*
X41292500Y5488000D02*
X41457300Y5652800D01*
X41292500Y5488000D02*
X41457300Y5652800D01*
X41019400Y5214900D02*
X41292500Y5488000D01*
X11245900Y5687600D02*
X26109800Y5687600D01*
D14*
%TO.N,3V3*%
X41887600Y1865000D02*
X42352100Y2329500D01*
X12645900Y2104300D02*
X12885200Y1865000D01*
X12885200Y1865000D02*
X41887600Y1865000D01*
D15*
%TO.N,/~{RESET}*%
X33118400Y3281600D02*
X32000000Y4400000D01*
X6600100Y12248300D02*
X7851800Y13500000D01*
X6600100Y9341200D02*
X6600100Y12248300D01*
X11541300Y4400000D02*
X6600100Y9341200D01*
X32000000Y4400000D02*
X11541300Y4400000D01*
D14*
%TO.N,/BATT*%
X49241900Y23959500D02*
X51891500Y21309900D01*
X50301900Y17517500D02*
X46598100Y17517500D01*
X51891500Y21309900D02*
X51891500Y19107100D01*
X51891500Y19107100D02*
X50301900Y17517500D01*
X11989500Y23959500D02*
X49241900Y23959500D01*
X10204600Y25744400D02*
X11989500Y23959500D01*
%TD*%
%TA.AperFunction,Conductor*%
%TO.N,GND*%
G36*
X46885089Y28593983D02*
G01*
X46904663Y28593417D01*
X46917924Y28584341D01*
X46933341Y28579815D01*
X46946163Y28565017D01*
X46962324Y28553958D01*
X46968573Y28539154D01*
X46979096Y28527011D01*
X46981882Y28507630D01*
X46989499Y28489590D01*
X46986753Y28473757D01*
X46989040Y28457853D01*
X46980904Y28440039D01*
X46977559Y28420748D01*
X46961132Y28396742D01*
X46960015Y28394297D01*
X46957914Y28392041D01*
X46957627Y28391621D01*
X46955847Y28389683D01*
X46880380Y28314216D01*
X46869965Y28296177D01*
X46860729Y28286121D01*
X46800883Y28250062D01*
X46769404Y28246000D01*
X21193738Y28246000D01*
X21117311Y28225521D01*
X21117310Y28225520D01*
X21117308Y28225520D01*
X21117307Y28225519D01*
X21102848Y28217171D01*
X21088389Y28208822D01*
X21088386Y28208822D01*
X21048795Y28185964D01*
X21048791Y28185961D01*
X21048789Y28185960D01*
X21048787Y28185958D01*
X20173448Y27310619D01*
X20112125Y27277134D01*
X20085767Y27274300D01*
X19958243Y27274300D01*
X19805516Y27233377D01*
X19805509Y27233373D01*
X19668590Y27154324D01*
X19668586Y27154321D01*
X19668584Y27154320D01*
X19668582Y27154318D01*
X19556781Y27042517D01*
X19556775Y27042509D01*
X19477726Y26905590D01*
X19477723Y26905583D01*
X19436800Y26752856D01*
X19436800Y26594743D01*
X19477723Y26442016D01*
X19477726Y26442009D01*
X19556775Y26305090D01*
X19556781Y26305082D01*
X19668582Y26193281D01*
X19668590Y26193275D01*
X19805509Y26114226D01*
X19805516Y26114223D01*
X19958243Y26073300D01*
X20116356Y26073300D01*
X20116357Y26073300D01*
X20269084Y26114223D01*
X20269086Y26114224D01*
X20269090Y26114226D01*
X20406009Y26193275D01*
X20406017Y26193281D01*
X20517818Y26305082D01*
X20522770Y26311535D01*
X20524982Y26309837D01*
X20565723Y26348680D01*
X20634331Y26361900D01*
X20699194Y26335930D01*
X20710216Y26326148D01*
X20714084Y26322279D01*
X20714090Y26322275D01*
X20851009Y26243226D01*
X20851016Y26243223D01*
X21003743Y26202300D01*
X21135144Y26202300D01*
X21202183Y26182615D01*
X21247938Y26129811D01*
X21257882Y26060653D01*
X21246163Y26026795D01*
X21247134Y26026394D01*
X21244024Y26018886D01*
X21244023Y26018884D01*
X21216012Y25914343D01*
X21203100Y25866156D01*
X21203100Y25708043D01*
X21244023Y25555316D01*
X21244026Y25555309D01*
X21323075Y25418390D01*
X21323081Y25418382D01*
X21434882Y25306581D01*
X21434890Y25306575D01*
X21571809Y25227526D01*
X21571816Y25227523D01*
X21724543Y25186600D01*
X21882656Y25186600D01*
X21882657Y25186600D01*
X22035384Y25227523D01*
X22035386Y25227524D01*
X22035390Y25227526D01*
X22172309Y25306575D01*
X22172317Y25306581D01*
X22284120Y25418384D01*
X22287708Y25424599D01*
X22338275Y25472815D01*
X22395096Y25486600D01*
X40349413Y25486600D01*
X40416452Y25466915D01*
X40456800Y25424600D01*
X40484577Y25376487D01*
X40484581Y25376482D01*
X40596382Y25264681D01*
X40596390Y25264675D01*
X40733309Y25185626D01*
X40733316Y25185623D01*
X40886043Y25144700D01*
X41044156Y25144700D01*
X41044157Y25144700D01*
X41196884Y25185623D01*
X41196886Y25185624D01*
X41196890Y25185626D01*
X41333809Y25264675D01*
X41333817Y25264681D01*
X41445618Y25376482D01*
X41445624Y25376490D01*
X41524673Y25513409D01*
X41524677Y25513416D01*
X41565600Y25666143D01*
X41565600Y25824257D01*
X41524677Y25976984D01*
X41445620Y26113916D01*
X41333816Y26225720D01*
X41303500Y26243223D01*
X41255540Y26270913D01*
X41207324Y26321479D01*
X41194100Y26390086D01*
X41220068Y26454951D01*
X41276982Y26495480D01*
X41317539Y26502300D01*
X47431667Y26502300D01*
X47498706Y26482615D01*
X47519348Y26465981D01*
X49363648Y24621681D01*
X49397133Y24560358D01*
X49392149Y24490666D01*
X49350277Y24434733D01*
X49284813Y24410316D01*
X49275967Y24410000D01*
X12227466Y24410000D01*
X12160427Y24429685D01*
X12139785Y24446319D01*
X11167713Y25418390D01*
X10841298Y25744804D01*
X10807815Y25806125D01*
X10806041Y25816301D01*
X10805100Y25823444D01*
X10805100Y25823457D01*
X10764177Y25976184D01*
X10685120Y26113116D01*
X10573316Y26224920D01*
X10436384Y26303977D01*
X10283657Y26344900D01*
X10125543Y26344900D01*
X10041336Y26322337D01*
X10012442Y26323025D01*
X9983619Y26320789D01*
X9977938Y26323846D01*
X9971491Y26324000D01*
X9947555Y26340200D01*
X9922095Y26353904D01*
X9918969Y26359547D01*
X9913629Y26363162D01*
X9902249Y26389734D01*
X9888242Y26415025D01*
X9888150Y26422656D01*
X9886124Y26427390D01*
X9885512Y26450213D01*
X9886043Y26458329D01*
X9900499Y26531004D01*
X15299499Y26531004D01*
X15326418Y26395677D01*
X15326421Y26395667D01*
X15379221Y26268195D01*
X15379228Y26268182D01*
X15455885Y26153458D01*
X15455888Y26153454D01*
X15553454Y26055888D01*
X15553458Y26055885D01*
X15668182Y25979228D01*
X15668195Y25979221D01*
X15795667Y25926421D01*
X15795677Y25926418D01*
X15931005Y25899500D01*
X15931007Y25899500D01*
X16068995Y25899500D01*
X16204322Y25926418D01*
X16204332Y25926421D01*
X16331804Y25979221D01*
X16331817Y25979228D01*
X16446541Y26055885D01*
X16446545Y26055888D01*
X16544111Y26153454D01*
X16544114Y26153458D01*
X16620771Y26268182D01*
X16620778Y26268195D01*
X16673578Y26395667D01*
X16673581Y26395677D01*
X16700500Y26531004D01*
X16700500Y26668995D01*
X16673581Y26804322D01*
X16673580Y26804328D01*
X16620775Y26931811D01*
X16544114Y27046542D01*
X16446542Y27144114D01*
X16331811Y27220775D01*
X16204328Y27273580D01*
X16155342Y27283324D01*
X16068995Y27300500D01*
X16068993Y27300500D01*
X15931007Y27300500D01*
X15931005Y27300500D01*
X15813539Y27277134D01*
X15795672Y27273580D01*
X15795667Y27273578D01*
X15668195Y27220778D01*
X15668182Y27220771D01*
X15553458Y27144114D01*
X15553454Y27144111D01*
X15455888Y27046545D01*
X15455885Y27046541D01*
X15379228Y26931817D01*
X15379221Y26931804D01*
X15326421Y26804332D01*
X15326418Y26804322D01*
X15299500Y26668995D01*
X15299500Y26531004D01*
X15299499Y26531004D01*
X9900499Y26531004D01*
X9900500Y26531007D01*
X9900500Y26668993D01*
X9873580Y26804328D01*
X9820775Y26931811D01*
X9744114Y27046542D01*
X9646542Y27144114D01*
X9531811Y27220775D01*
X9404328Y27273580D01*
X9355342Y27283324D01*
X9268995Y27300500D01*
X9268993Y27300500D01*
X9131007Y27300500D01*
X9131005Y27300500D01*
X9013539Y27277134D01*
X8995672Y27273580D01*
X8995667Y27273578D01*
X8868195Y27220778D01*
X8868182Y27220771D01*
X8753458Y27144114D01*
X8753454Y27144111D01*
X8655888Y27046545D01*
X8655885Y27046541D01*
X8579228Y26931817D01*
X8579221Y26931804D01*
X8526421Y26804332D01*
X8526418Y26804322D01*
X8499500Y26668995D01*
X8499500Y26531004D01*
X8499499Y26531004D01*
X8526418Y26395677D01*
X8526421Y26395667D01*
X8579221Y26268195D01*
X8579228Y26268182D01*
X8655885Y26153458D01*
X8655888Y26153454D01*
X8753454Y26055888D01*
X8753458Y26055885D01*
X8868182Y25979228D01*
X8868195Y25979221D01*
X8995667Y25926421D01*
X8995677Y25926418D01*
X9131005Y25899500D01*
X9131007Y25899500D01*
X9268995Y25899500D01*
X9404322Y25926418D01*
X9404332Y25926421D01*
X9432648Y25938150D01*
X9502118Y25945619D01*
X9564597Y25914343D01*
X9600248Y25854254D01*
X9604100Y25823589D01*
X9604100Y25665343D01*
X9645023Y25512616D01*
X9645026Y25512609D01*
X9724075Y25375690D01*
X9724081Y25375682D01*
X9835882Y25263881D01*
X9835890Y25263875D01*
X9972809Y25184826D01*
X9972816Y25184823D01*
X10125549Y25143898D01*
X10132707Y25142956D01*
X10196603Y25114687D01*
X10204197Y25107699D01*
X11712884Y23599011D01*
X11712892Y23599005D01*
X11815606Y23539704D01*
X11815615Y23539700D01*
X11839824Y23533212D01*
X11839825Y23533213D01*
X11930191Y23509000D01*
X49003935Y23509000D01*
X49033375Y23500355D01*
X49063362Y23493832D01*
X49068377Y23490077D01*
X49070974Y23489315D01*
X49091616Y23472681D01*
X49266316Y23297981D01*
X49299801Y23236658D01*
X49294817Y23166966D01*
X49252945Y23111033D01*
X49187481Y23086616D01*
X49178635Y23086300D01*
X14299931Y23086300D01*
X14232892Y23105985D01*
X14224443Y23111925D01*
X14218721Y23116314D01*
X14218716Y23116320D01*
X14081784Y23195377D01*
X13929057Y23236300D01*
X13770943Y23236300D01*
X13618216Y23195377D01*
X13618209Y23195373D01*
X13481290Y23116324D01*
X13481286Y23116321D01*
X13481284Y23116320D01*
X13481282Y23116318D01*
X13369481Y23004517D01*
X13369475Y23004509D01*
X13290426Y22867590D01*
X13290423Y22867583D01*
X13249500Y22714856D01*
X13249500Y22556743D01*
X13290423Y22404016D01*
X13290426Y22404009D01*
X13369475Y22267090D01*
X13373875Y22261357D01*
X13399070Y22196188D01*
X13399500Y22185869D01*
X13399500Y18249500D01*
X13379815Y18182461D01*
X13327011Y18136706D01*
X13275500Y18125500D01*
X13173698Y18125500D01*
X13085236Y18114877D01*
X12944458Y18059361D01*
X12896718Y18023159D01*
X12831409Y17998337D01*
X12763045Y18012765D01*
X12725148Y18044277D01*
X12616385Y18179584D01*
X12616384Y18179585D01*
X12472281Y18295418D01*
X12306649Y18377564D01*
X12127231Y18422184D01*
X12085711Y18424999D01*
X11237889Y18424999D01*
X11237882Y18424998D01*
X11196376Y18422185D01*
X11196374Y18422185D01*
X11016950Y18377564D01*
X10851318Y18295418D01*
X10707215Y18179585D01*
X10707214Y18179584D01*
X10619672Y18070678D01*
X11414310Y17276041D01*
X11353910Y17251022D01*
X11247449Y17179888D01*
X11156912Y17089351D01*
X11085778Y16982890D01*
X11060758Y16922487D01*
X10461800Y17521446D01*
X10461800Y15701089D01*
X10461801Y15701082D01*
X10464614Y15659576D01*
X10464615Y15659571D01*
X10472883Y15626325D01*
X10469959Y15556517D01*
X10429758Y15499371D01*
X10365043Y15473031D01*
X10352548Y15472400D01*
X7023262Y15472400D01*
X6944138Y15472400D01*
X6867712Y15451922D01*
X6799189Y15412360D01*
X6799186Y15412357D01*
X5949370Y14562541D01*
X5888047Y14529056D01*
X5818355Y14534040D01*
X5805403Y14539733D01*
X5753439Y14566211D01*
X5581209Y14622171D01*
X5489059Y14636765D01*
X5402351Y14650500D01*
X5402346Y14650500D01*
X5221254Y14650500D01*
X5221249Y14650500D01*
X5125229Y14635291D01*
X5042391Y14622171D01*
X4956276Y14594191D01*
X4870163Y14566212D01*
X4870160Y14566211D01*
X4818205Y14539738D01*
X4708806Y14483996D01*
X4708802Y14483993D01*
X4562305Y14377558D01*
X4562300Y14377554D01*
X4434245Y14249499D01*
X4434241Y14249494D01*
X4327806Y14102997D01*
X4245588Y13941639D01*
X4245587Y13941636D01*
X4189629Y13769410D01*
X4161300Y13590551D01*
X4161300Y13409448D01*
X4189629Y13230589D01*
X4245587Y13058363D01*
X4245588Y13058360D01*
X4327806Y12897002D01*
X4434241Y12750505D01*
X4434245Y12750500D01*
X4562300Y12622445D01*
X4562305Y12622441D01*
X4708802Y12516006D01*
X4870160Y12433788D01*
X4870163Y12433787D01*
X5042389Y12377829D01*
X5202478Y12352473D01*
X5265613Y12322544D01*
X5302544Y12263232D01*
X5301546Y12193369D01*
X5262936Y12135137D01*
X5202478Y12107527D01*
X5115439Y12093740D01*
X5042391Y12082171D01*
X4956276Y12054191D01*
X4870163Y12026212D01*
X4870160Y12026211D01*
X4818197Y11999734D01*
X4708806Y11943996D01*
X4708802Y11943993D01*
X4562305Y11837558D01*
X4562300Y11837554D01*
X4434245Y11709499D01*
X4434241Y11709494D01*
X4327806Y11562997D01*
X4245588Y11401639D01*
X4245587Y11401636D01*
X4189629Y11229410D01*
X4161300Y11050551D01*
X4161300Y10869448D01*
X4189629Y10690589D01*
X4245587Y10518363D01*
X4245588Y10518360D01*
X4327806Y10357002D01*
X4434241Y10210505D01*
X4434245Y10210500D01*
X4562300Y10082445D01*
X4562305Y10082441D01*
X4708802Y9976006D01*
X4870160Y9893788D01*
X4870163Y9893787D01*
X5042389Y9837829D01*
X5221249Y9809500D01*
X5221254Y9809500D01*
X5402351Y9809500D01*
X5581210Y9837829D01*
X5753436Y9893787D01*
X5753439Y9893788D01*
X5863100Y9949664D01*
X5914794Y9976004D01*
X5914797Y9976006D01*
X6061294Y10082441D01*
X6061299Y10082445D01*
X6087919Y10109065D01*
X6149242Y10142550D01*
X6218934Y10137566D01*
X6274867Y10095694D01*
X6299284Y10030230D01*
X6299600Y10021384D01*
X6299600Y9301639D01*
X6320079Y9225208D01*
X6336077Y9197502D01*
X6336079Y9197499D01*
X6359639Y9156689D01*
X11356787Y4159541D01*
X11356795Y4159535D01*
X11425304Y4119982D01*
X11425309Y4119979D01*
X11463524Y4109739D01*
X11501738Y4099500D01*
X31824167Y4099500D01*
X31891206Y4079815D01*
X31911848Y4063181D01*
X32487663Y3487364D01*
X32521148Y3426041D01*
X32519758Y3367592D01*
X32517900Y3360657D01*
X32517900Y3202543D01*
X32549741Y3083709D01*
X32560927Y3041965D01*
X32558885Y3041418D01*
X32565160Y2983092D01*
X32533890Y2920610D01*
X32473803Y2884954D01*
X32443129Y2881100D01*
X31669091Y2881100D01*
X31602052Y2900785D01*
X31561704Y2943101D01*
X31480524Y3083709D01*
X31480520Y3083716D01*
X31368716Y3195520D01*
X31231784Y3274577D01*
X31079057Y3315500D01*
X30920943Y3315500D01*
X30768216Y3274577D01*
X30768209Y3274573D01*
X30631290Y3195524D01*
X30631286Y3195521D01*
X30631284Y3195520D01*
X30631282Y3195518D01*
X30519481Y3083717D01*
X30519475Y3083709D01*
X30440426Y2946790D01*
X30440423Y2946784D01*
X30399500Y2794057D01*
X30399500Y2635943D01*
X30425239Y2539882D01*
X30442527Y2475365D01*
X30440190Y2474739D01*
X30446342Y2417472D01*
X30415061Y2354996D01*
X30354969Y2319349D01*
X30324314Y2315500D01*
X13288953Y2315500D01*
X13221914Y2335185D01*
X13181566Y2377500D01*
X13126422Y2473012D01*
X13126420Y2473016D01*
X13014616Y2584820D01*
X12877684Y2663877D01*
X12724957Y2704800D01*
X12566843Y2704800D01*
X12414116Y2663877D01*
X12414109Y2663873D01*
X12277190Y2584824D01*
X12277186Y2584821D01*
X12277184Y2584820D01*
X12277182Y2584818D01*
X12165381Y2473017D01*
X12165375Y2473009D01*
X12090806Y2343849D01*
X12086323Y2336084D01*
X12049860Y2200000D01*
X12045400Y2183356D01*
X12045400Y2025243D01*
X12086323Y1872516D01*
X12086326Y1872509D01*
X12165375Y1735590D01*
X12165381Y1735582D01*
X12277182Y1623781D01*
X12278365Y1622874D01*
X12279108Y1621855D01*
X12282931Y1618033D01*
X12282334Y1617436D01*
X12319566Y1566444D01*
X12323719Y1496698D01*
X12289505Y1435779D01*
X12227787Y1403028D01*
X12202876Y1400500D01*
X5004428Y1400500D01*
X4995582Y1400816D01*
X4989378Y1401259D01*
X4781206Y1416148D01*
X4763705Y1418665D01*
X4558026Y1463407D01*
X4541075Y1468384D01*
X4343844Y1541948D01*
X4327757Y1549296D01*
X4303960Y1562290D01*
X4143025Y1650166D01*
X4128157Y1659720D01*
X3959637Y1785873D01*
X3946283Y1797445D01*
X3797445Y1946283D01*
X3785873Y1959637D01*
X3659720Y2128157D01*
X3650166Y2143025D01*
X3549295Y2327757D01*
X3541946Y2343849D01*
X3541038Y2346284D01*
X3468384Y2541075D01*
X3463407Y2558026D01*
X3418665Y2763705D01*
X3416148Y2781212D01*
X3415229Y2794055D01*
X3400815Y2995582D01*
X3400500Y3004427D01*
X3400500Y26995572D01*
X3400816Y27004418D01*
X3406423Y27082819D01*
X3416148Y27218791D01*
X3418666Y27236299D01*
X3463406Y27441969D01*
X3468385Y27458928D01*
X3541946Y27656150D01*
X3549296Y27672242D01*
X3650163Y27856968D01*
X3659724Y27871848D01*
X3785867Y28040355D01*
X3797452Y28053723D01*
X3946276Y28202547D01*
X3959646Y28214133D01*
X4007641Y28250062D01*
X4128148Y28340272D01*
X4143031Y28349836D01*
X4327757Y28450703D01*
X4343849Y28458053D01*
X4541063Y28531611D01*
X4558039Y28536595D01*
X4763700Y28581333D01*
X4781211Y28583851D01*
X4974407Y28597669D01*
X4995582Y28599184D01*
X5004428Y28599500D01*
X5039882Y28599500D01*
X46866302Y28599500D01*
X46885089Y28593983D01*
G37*
%TD.AperFunction*%
%TA.AperFunction,Conductor*%
G36*
X57004417Y28599184D02*
G01*
X57023369Y28597828D01*
X57218788Y28583851D01*
X57236299Y28581333D01*
X57441960Y28536595D01*
X57458936Y28531611D01*
X57656150Y28458053D01*
X57672242Y28450703D01*
X57856968Y28349836D01*
X57871853Y28340271D01*
X58040353Y28214133D01*
X58053723Y28202547D01*
X58202547Y28053723D01*
X58214133Y28040353D01*
X58340271Y27871853D01*
X58349836Y27856968D01*
X58450703Y27672242D01*
X58458053Y27656150D01*
X58531611Y27458936D01*
X58536595Y27441960D01*
X58581333Y27236299D01*
X58583851Y27218788D01*
X58599184Y27004419D01*
X58599500Y26995572D01*
X58599500Y6146092D01*
X58598903Y6133938D01*
X58585335Y5996180D01*
X58580593Y5972340D01*
X58570331Y5938509D01*
X58542186Y5845728D01*
X58532883Y5823271D01*
X58470517Y5706593D01*
X58457012Y5686381D01*
X58373079Y5584108D01*
X58355891Y5566920D01*
X58287510Y5510801D01*
X58253618Y5482987D01*
X58233407Y5469483D01*
X58116725Y5407114D01*
X58094277Y5397815D01*
X57967652Y5359404D01*
X57943824Y5354665D01*
X57816051Y5342080D01*
X57806061Y5341097D01*
X57793908Y5340500D01*
X49326333Y5340500D01*
X49259294Y5360185D01*
X49213539Y5412989D01*
X49203595Y5482147D01*
X49232620Y5545703D01*
X49238652Y5552181D01*
X54069834Y10383363D01*
X54131157Y10416848D01*
X54189602Y10415459D01*
X54196539Y10413600D01*
X54196543Y10413600D01*
X54354656Y10413600D01*
X54354657Y10413600D01*
X54507384Y10454523D01*
X54507386Y10454524D01*
X54507390Y10454526D01*
X54644309Y10533575D01*
X54644317Y10533581D01*
X54756118Y10645382D01*
X54756124Y10645390D01*
X54835173Y10782309D01*
X54835177Y10782316D01*
X54876100Y10935043D01*
X54876100Y11093157D01*
X54835177Y11245884D01*
X54756120Y11382816D01*
X54644316Y11494620D01*
X54507384Y11573677D01*
X54354657Y11614600D01*
X54196543Y11614600D01*
X54043816Y11573677D01*
X54043809Y11573673D01*
X53906890Y11494624D01*
X53906886Y11494621D01*
X53906884Y11494620D01*
X53906882Y11494618D01*
X53795081Y11382817D01*
X53795075Y11382809D01*
X53747003Y11299544D01*
X53716023Y11245884D01*
X53679726Y11110419D01*
X53675100Y11093156D01*
X53675100Y10935039D01*
X53676959Y10928102D01*
X53675292Y10858252D01*
X53644863Y10808334D01*
X50832481Y7995952D01*
X50771158Y7962467D01*
X50701466Y7967451D01*
X50645533Y8009323D01*
X50621116Y8074787D01*
X50620800Y8083633D01*
X50620800Y8122955D01*
X50620800Y8122957D01*
X50579877Y8275684D01*
X50500820Y8412616D01*
X50389016Y8524420D01*
X50252084Y8603477D01*
X50099357Y8644400D01*
X49941243Y8644400D01*
X49788516Y8603477D01*
X49788509Y8603473D01*
X49651590Y8524424D01*
X49651586Y8524421D01*
X49651584Y8524420D01*
X49651582Y8524418D01*
X49539781Y8412617D01*
X49539775Y8412609D01*
X49473264Y8297406D01*
X49460723Y8275684D01*
X49448581Y8230367D01*
X49419800Y8122956D01*
X49419800Y7964839D01*
X49421659Y7957902D01*
X49419992Y7888052D01*
X49389563Y7838134D01*
X47942748Y6391319D01*
X47881425Y6357834D01*
X47855067Y6355000D01*
X43369500Y6355000D01*
X43302461Y6374685D01*
X43256706Y6427489D01*
X43245500Y6479000D01*
X43245500Y7882767D01*
X43265185Y7949806D01*
X43281819Y7970448D01*
X54236257Y18924886D01*
X54236260Y18924889D01*
X54275822Y18993412D01*
X54296300Y19069838D01*
X54296300Y19148962D01*
X54296300Y19823004D01*
X54315985Y19890043D01*
X54358299Y19930390D01*
X54364509Y19933975D01*
X54364513Y19933978D01*
X54364516Y19933980D01*
X54476320Y20045784D01*
X54476321Y20045786D01*
X54476324Y20045790D01*
X54555373Y20182709D01*
X54555377Y20182716D01*
X54596300Y20335443D01*
X54596300Y20493557D01*
X54555377Y20646284D01*
X54476320Y20783216D01*
X54364516Y20895020D01*
X54227584Y20974077D01*
X54074857Y21015000D01*
X53916743Y21015000D01*
X53909808Y21013142D01*
X53839961Y21014803D01*
X53790036Y21045233D01*
X47792011Y27043260D01*
X47780337Y27050000D01*
X47723489Y27082821D01*
X47647062Y27103300D01*
X47647060Y27103300D01*
X21674296Y27103300D01*
X21607257Y27122985D01*
X21566908Y27165301D01*
X21563320Y27171516D01*
X21451516Y27283320D01*
X21421759Y27300500D01*
X21307546Y27366441D01*
X21308511Y27368112D01*
X21291188Y27382070D01*
X21264915Y27401739D01*
X21264114Y27403884D01*
X21262331Y27405322D01*
X21251964Y27436459D01*
X21240498Y27467203D01*
X21240984Y27469440D01*
X21240261Y27471615D01*
X21248376Y27503417D01*
X21255350Y27535476D01*
X21257180Y27537920D01*
X21257536Y27539315D01*
X21276501Y27563730D01*
X21321452Y27608681D01*
X21382775Y27642166D01*
X21409133Y27645000D01*
X46769404Y27645000D01*
X46836443Y27625315D01*
X46876792Y27582999D01*
X46880379Y27576784D01*
X46992182Y27464981D01*
X46992190Y27464975D01*
X47129109Y27385926D01*
X47129114Y27385924D01*
X47129116Y27385923D01*
X47281843Y27345000D01*
X47439957Y27345000D01*
X47592684Y27385923D01*
X47592687Y27385924D01*
X47592690Y27385926D01*
X47729609Y27464975D01*
X47729617Y27464981D01*
X47841418Y27576782D01*
X47841424Y27576790D01*
X47920473Y27713709D01*
X47920477Y27713716D01*
X47961400Y27866443D01*
X47961400Y28024557D01*
X47920477Y28177284D01*
X47841420Y28314216D01*
X47767817Y28387819D01*
X47734332Y28449142D01*
X47739316Y28518834D01*
X47781188Y28574767D01*
X47846652Y28599184D01*
X47855498Y28599500D01*
X56960118Y28599500D01*
X56995572Y28599500D01*
X57004417Y28599184D01*
G37*
%TD.AperFunction*%
%TA.AperFunction,Conductor*%
G36*
X49392374Y22165615D02*
G01*
X49413016Y22148981D01*
X50062615Y21499381D01*
X50096100Y21438058D01*
X50091116Y21368366D01*
X50049244Y21312433D01*
X50022387Y21297139D01*
X50018611Y21295575D01*
X49881690Y21216524D01*
X49881686Y21216521D01*
X49881684Y21216520D01*
X49881682Y21216518D01*
X49769879Y21104715D01*
X49766292Y21098501D01*
X49715725Y21050285D01*
X49658904Y21036500D01*
X48209638Y21036500D01*
X48133211Y21016021D01*
X48133209Y21016020D01*
X48133204Y21016017D01*
X48064695Y20976464D01*
X48064691Y20976461D01*
X48064689Y20976460D01*
X48064687Y20976458D01*
X39764541Y12676312D01*
X39764535Y12676304D01*
X39724982Y12607795D01*
X39724979Y12607790D01*
X39724979Y12607789D01*
X39704500Y12531362D01*
X39704500Y12531360D01*
X39704500Y9233100D01*
X39684815Y9166061D01*
X39632011Y9120306D01*
X39580500Y9109100D01*
X39485249Y9109100D01*
X39485247Y9109099D01*
X39426770Y9097468D01*
X39426769Y9097467D01*
X39360447Y9053152D01*
X39316132Y8986830D01*
X39316131Y8986829D01*
X39304500Y8928352D01*
X39304500Y6531400D01*
X39284815Y6464361D01*
X39232011Y6418606D01*
X39180500Y6407400D01*
X38289500Y6407400D01*
X38222461Y6427085D01*
X38176706Y6479889D01*
X38165500Y6531400D01*
X38165500Y8928350D01*
X38165499Y8928352D01*
X38153868Y8986829D01*
X38153867Y8986830D01*
X38153867Y8986831D01*
X38109552Y9053152D01*
X38043231Y9097467D01*
X38043229Y9097467D01*
X38043229Y9097468D01*
X37999568Y9106152D01*
X37984751Y9109099D01*
X37984751Y9109100D01*
X37984748Y9109100D01*
X36945252Y9109100D01*
X36945249Y9109100D01*
X36945247Y9109099D01*
X36886770Y9097468D01*
X36886769Y9097467D01*
X36820447Y9053152D01*
X36776132Y8986830D01*
X36776131Y8986829D01*
X36764500Y8928352D01*
X36764500Y6388847D01*
X36776131Y6330370D01*
X36776132Y6330369D01*
X36820447Y6264047D01*
X36886769Y6219732D01*
X36886770Y6219731D01*
X36945247Y6208100D01*
X36945252Y6208100D01*
X37040500Y6208100D01*
X37049185Y6205549D01*
X37058147Y6206838D01*
X37082187Y6195859D01*
X37107539Y6188415D01*
X37113466Y6181574D01*
X37121703Y6177813D01*
X37135992Y6155578D01*
X37153294Y6135611D01*
X37155581Y6125096D01*
X37159477Y6119035D01*
X37164500Y6084100D01*
X37164500Y6078800D01*
X37144815Y6011761D01*
X37092011Y5966006D01*
X37040500Y5954800D01*
X35349500Y5954800D01*
X35282461Y5974485D01*
X35236706Y6027289D01*
X35225500Y6078800D01*
X35225500Y6084100D01*
X35245185Y6151139D01*
X35297989Y6196894D01*
X35349500Y6208100D01*
X35444752Y6208100D01*
X35503229Y6219731D01*
X35503230Y6219732D01*
X35569552Y6264047D01*
X35613867Y6330369D01*
X35613868Y6330370D01*
X35625499Y6388847D01*
X35625500Y6388849D01*
X35625500Y8928350D01*
X35625499Y8928352D01*
X35613868Y8986829D01*
X35613867Y8986830D01*
X35613867Y8986831D01*
X35569552Y9053152D01*
X35503231Y9097467D01*
X35503229Y9097467D01*
X35503229Y9097468D01*
X35459568Y9106152D01*
X35444751Y9109099D01*
X35444751Y9109100D01*
X35444748Y9109100D01*
X35349500Y9109100D01*
X35282461Y9128785D01*
X35236706Y9181589D01*
X35225500Y9233100D01*
X35225500Y10006067D01*
X35245185Y10073106D01*
X35261819Y10093748D01*
X36742834Y11574763D01*
X36804157Y11608248D01*
X36862602Y11606859D01*
X36869539Y11605000D01*
X36869543Y11605000D01*
X37027656Y11605000D01*
X37027657Y11605000D01*
X37180384Y11645923D01*
X37180386Y11645924D01*
X37180390Y11645926D01*
X37317309Y11724975D01*
X37317317Y11724981D01*
X37429118Y11836782D01*
X37429124Y11836790D01*
X37508173Y11973709D01*
X37508177Y11973716D01*
X37549100Y12126443D01*
X37549100Y12284557D01*
X37508177Y12437284D01*
X37429120Y12574216D01*
X37317316Y12686020D01*
X37180384Y12765077D01*
X37027657Y12806000D01*
X36869543Y12806000D01*
X36716816Y12765077D01*
X36716809Y12765073D01*
X36579890Y12686024D01*
X36579886Y12686021D01*
X36579884Y12686020D01*
X36579882Y12686018D01*
X36468081Y12574217D01*
X36468075Y12574209D01*
X36389026Y12437290D01*
X36389023Y12437284D01*
X36356517Y12315967D01*
X36348100Y12284556D01*
X36348100Y12126439D01*
X36349959Y12119502D01*
X36348292Y12049652D01*
X36317863Y11999734D01*
X34684541Y10366412D01*
X34684535Y10366404D01*
X34644982Y10297895D01*
X34644979Y10297890D01*
X34638152Y10272413D01*
X34624500Y10221462D01*
X34624500Y10221460D01*
X34624500Y9233100D01*
X34604815Y9166061D01*
X34552011Y9120306D01*
X34500500Y9109100D01*
X34405249Y9109100D01*
X34405247Y9109099D01*
X34346770Y9097468D01*
X34346769Y9097467D01*
X34280447Y9053152D01*
X34236132Y8986830D01*
X34236131Y8986829D01*
X34224500Y8928352D01*
X34224500Y6531400D01*
X34204815Y6464361D01*
X34152011Y6418606D01*
X34100500Y6407400D01*
X33209500Y6407400D01*
X33142461Y6427085D01*
X33096706Y6479889D01*
X33085500Y6531400D01*
X33085500Y8928350D01*
X33085499Y8928352D01*
X33073868Y8986829D01*
X33073867Y8986830D01*
X33073867Y8986831D01*
X33029552Y9053152D01*
X32963231Y9097467D01*
X32963229Y9097467D01*
X32963229Y9097468D01*
X32919568Y9106152D01*
X32904751Y9109099D01*
X32904751Y9109100D01*
X32904748Y9109100D01*
X32809500Y9109100D01*
X32742461Y9128785D01*
X32696706Y9181589D01*
X32685500Y9233100D01*
X32685500Y10234867D01*
X32705185Y10301906D01*
X32721819Y10322548D01*
X35196934Y12797663D01*
X35258257Y12831148D01*
X35316702Y12829759D01*
X35323639Y12827900D01*
X35323643Y12827900D01*
X35481756Y12827900D01*
X35481757Y12827900D01*
X35634484Y12868823D01*
X35634486Y12868824D01*
X35634490Y12868826D01*
X35771409Y12947875D01*
X35771417Y12947881D01*
X35883218Y13059682D01*
X35883224Y13059690D01*
X35962273Y13196609D01*
X35962277Y13196616D01*
X36003200Y13349343D01*
X36003200Y13507457D01*
X35962277Y13660184D01*
X35883220Y13797116D01*
X35771416Y13908920D01*
X35634484Y13987977D01*
X35481757Y14028900D01*
X35323643Y14028900D01*
X35170916Y13987977D01*
X35170909Y13987973D01*
X35033990Y13908924D01*
X35033986Y13908921D01*
X35033984Y13908920D01*
X35033982Y13908918D01*
X34922181Y13797117D01*
X34922175Y13797109D01*
X34843126Y13660190D01*
X34843123Y13660183D01*
X34802200Y13507456D01*
X34802200Y13349339D01*
X34804059Y13342402D01*
X34802392Y13272552D01*
X34771963Y13222634D01*
X32463182Y10913853D01*
X32438747Y10900510D01*
X32416066Y10884357D01*
X32408503Y10883996D01*
X32401859Y10880368D01*
X32374087Y10882354D01*
X32346276Y10881027D01*
X32336188Y10885064D01*
X32332167Y10885352D01*
X32313521Y10894136D01*
X32306635Y10898112D01*
X32306634Y10898113D01*
X32275794Y10915918D01*
X32275791Y10915920D01*
X32275790Y10915920D01*
X32275789Y10915921D01*
X32199362Y10936400D01*
X26728038Y10936400D01*
X26651611Y10915921D01*
X26651610Y10915920D01*
X26651608Y10915920D01*
X26651605Y10915918D01*
X26620766Y10898113D01*
X26620765Y10898112D01*
X26583089Y10876360D01*
X26202907Y10496178D01*
X26141584Y10462693D01*
X26071892Y10467677D01*
X26015959Y10509549D01*
X25991542Y10575013D01*
X25991228Y10584519D01*
X25991793Y10690591D01*
X26030300Y17930000D01*
X20860300Y17940000D01*
X20860300Y17939999D01*
X20860299Y17939999D01*
X20837106Y12110500D01*
X20830550Y10462693D01*
X20830416Y10429107D01*
X20810465Y10362146D01*
X20757479Y10316602D01*
X20706417Y10305600D01*
X19841040Y10305600D01*
X19779042Y10322212D01*
X19686784Y10375477D01*
X19534057Y10416400D01*
X19375943Y10416400D01*
X19223216Y10375477D01*
X19223209Y10375473D01*
X19086290Y10296424D01*
X19086286Y10296421D01*
X19086284Y10296420D01*
X19086282Y10296418D01*
X18974481Y10184617D01*
X18974475Y10184609D01*
X18910100Y10073106D01*
X18895423Y10047684D01*
X18876217Y9976004D01*
X18854500Y9894956D01*
X18854500Y9736843D01*
X18895423Y9584116D01*
X18895426Y9584109D01*
X18974475Y9447190D01*
X18974481Y9447182D01*
X19086282Y9335381D01*
X19086290Y9335375D01*
X19223209Y9256326D01*
X19223216Y9256323D01*
X19375943Y9215400D01*
X19534056Y9215400D01*
X19534057Y9215400D01*
X19686784Y9256323D01*
X19686786Y9256324D01*
X19686790Y9256326D01*
X19823709Y9335375D01*
X19823717Y9335381D01*
X19935518Y9447182D01*
X19935524Y9447190D01*
X20014573Y9584109D01*
X20014576Y9584114D01*
X20019089Y9600956D01*
X20022234Y9612695D01*
X20058599Y9672354D01*
X20121447Y9702883D01*
X20142009Y9704600D01*
X26176360Y9704600D01*
X26176362Y9704600D01*
X26238865Y9721348D01*
X26252790Y9725079D01*
X26252795Y9725082D01*
X26321304Y9764635D01*
X26321312Y9764641D01*
X26855752Y10299081D01*
X26882679Y10313784D01*
X26908498Y10330377D01*
X26914698Y10331268D01*
X26917075Y10332566D01*
X26943433Y10335400D01*
X27019267Y10335400D01*
X27086306Y10315715D01*
X27132061Y10262911D01*
X27142005Y10193753D01*
X27112980Y10130197D01*
X27106948Y10123719D01*
X25960395Y8977166D01*
X25899072Y8943681D01*
X25829380Y8948665D01*
X25773447Y8990537D01*
X25756532Y9021514D01*
X25708354Y9150686D01*
X25708350Y9150693D01*
X25622190Y9265787D01*
X25622187Y9265790D01*
X25507093Y9351950D01*
X25507086Y9351954D01*
X25372379Y9402196D01*
X25372372Y9402198D01*
X25312844Y9408599D01*
X25312828Y9408600D01*
X25015000Y9408600D01*
X25015000Y7782600D01*
X24995315Y7715561D01*
X24942511Y7669806D01*
X24891000Y7658600D01*
X24765000Y7658600D01*
X24765000Y7532600D01*
X24745315Y7465561D01*
X24692511Y7419806D01*
X24641000Y7408600D01*
X23765000Y7408600D01*
X23765000Y7206232D01*
X23745315Y7139193D01*
X23692511Y7093438D01*
X23623353Y7083494D01*
X23559797Y7112519D01*
X23553319Y7118551D01*
X23299127Y7372743D01*
X23041786Y7630083D01*
X23041081Y7630889D01*
X23035661Y7636308D01*
X23035660Y7636311D01*
X22979711Y7692260D01*
X22911189Y7731821D01*
X22834762Y7752300D01*
X22834760Y7752300D01*
X17011796Y7752300D01*
X16944757Y7771985D01*
X16904408Y7814301D01*
X16900820Y7820516D01*
X16789016Y7932320D01*
X16652084Y8011377D01*
X16499357Y8052300D01*
X16341243Y8052300D01*
X16188516Y8011377D01*
X16188509Y8011373D01*
X16051590Y7932324D01*
X16051586Y7932321D01*
X16051584Y7932320D01*
X16051582Y7932318D01*
X15939781Y7820517D01*
X15939775Y7820509D01*
X15860726Y7683590D01*
X15860723Y7683584D01*
X15828515Y7563380D01*
X15819800Y7530856D01*
X15819800Y7372743D01*
X15860723Y7220016D01*
X15860726Y7220009D01*
X15939775Y7083090D01*
X15939781Y7083082D01*
X15985683Y7037181D01*
X16019168Y6975858D01*
X16014184Y6906166D01*
X15972312Y6850233D01*
X15906848Y6825816D01*
X15898002Y6825500D01*
X15274830Y6825500D01*
X15207791Y6845185D01*
X15187320Y6864022D01*
X15186267Y6862969D01*
X15143070Y6906166D01*
X15068716Y6980520D01*
X14931784Y7059577D01*
X14779057Y7100500D01*
X14620943Y7100500D01*
X14468216Y7059577D01*
X14468209Y7059573D01*
X14331290Y6980524D01*
X14331286Y6980521D01*
X14331284Y6980520D01*
X14331282Y6980518D01*
X14219481Y6868717D01*
X14219475Y6868709D01*
X14145483Y6740549D01*
X14140423Y6731784D01*
X14102860Y6591594D01*
X14099500Y6579056D01*
X14099500Y6420943D01*
X14140423Y6268216D01*
X14140423Y6268215D01*
X14194761Y6174099D01*
X14211233Y6106199D01*
X14188380Y6040172D01*
X14133458Y5996982D01*
X14087373Y5988100D01*
X11421733Y5988100D01*
X11354694Y6007785D01*
X11334052Y6024419D01*
X10751200Y6607271D01*
X8967233Y8391236D01*
X8933750Y8452557D01*
X8935141Y8511008D01*
X8937000Y8517943D01*
X8937000Y8676057D01*
X8896077Y8828784D01*
X8822373Y8956444D01*
X23765000Y8956444D01*
X23765000Y7908600D01*
X24515000Y7908600D01*
X24515000Y9408600D01*
X24217172Y9408600D01*
X24217155Y9408599D01*
X24157627Y9402198D01*
X24157620Y9402196D01*
X24022913Y9351954D01*
X24022906Y9351950D01*
X23907812Y9265790D01*
X23907809Y9265787D01*
X23821649Y9150693D01*
X23821645Y9150686D01*
X23771403Y9015979D01*
X23771401Y9015972D01*
X23765000Y8956444D01*
X8822373Y8956444D01*
X8817020Y8965716D01*
X8705216Y9077520D01*
X8568284Y9156577D01*
X8415557Y9197500D01*
X8257443Y9197500D01*
X8104716Y9156577D01*
X8104709Y9156573D01*
X7967790Y9077524D01*
X7967786Y9077521D01*
X7967784Y9077520D01*
X7967782Y9077518D01*
X7855981Y8965717D01*
X7855975Y8965709D01*
X7772859Y8821746D01*
X7771190Y8822709D01*
X7733961Y8776519D01*
X7667665Y8754461D01*
X7599967Y8771746D01*
X7575573Y8790697D01*
X6936919Y9429352D01*
X6922215Y9456279D01*
X6905623Y9482098D01*
X6904731Y9488298D01*
X6903434Y9490675D01*
X6900600Y9517033D01*
X6900600Y9615619D01*
X6920285Y9682658D01*
X6973089Y9728413D01*
X7042247Y9738357D01*
X7087480Y9722035D01*
X7087493Y9722061D01*
X7087692Y9721959D01*
X7089387Y9721348D01*
X7091828Y9719851D01*
X7295195Y9616230D01*
X7512255Y9545704D01*
X7737684Y9510000D01*
X7965916Y9510000D01*
X8191344Y9545704D01*
X8408404Y9616230D01*
X8611769Y9719851D01*
X8685109Y9773135D01*
X8685109Y9773137D01*
X8099287Y10358958D01*
X8159690Y10383978D01*
X8266151Y10455112D01*
X8356688Y10545649D01*
X8427822Y10652110D01*
X8452841Y10712510D01*
X9038662Y10126688D01*
X9038663Y10126689D01*
X9091948Y10200030D01*
X9195569Y10403395D01*
X9266095Y10620455D01*
X9301800Y10845883D01*
X9301800Y11074116D01*
X9266095Y11299544D01*
X9195569Y11516604D01*
X9091950Y11719966D01*
X9038662Y11793309D01*
X9038662Y11793310D01*
X8452841Y11207488D01*
X8427822Y11267890D01*
X8356688Y11374351D01*
X8266151Y11464888D01*
X8159690Y11536022D01*
X8099288Y11561041D01*
X8685110Y12146862D01*
X8611766Y12200150D01*
X8440171Y12287583D01*
X8389375Y12335558D01*
X8372580Y12403379D01*
X8395117Y12469514D01*
X8440170Y12508552D01*
X8454795Y12516004D01*
X8601294Y12622441D01*
X8601299Y12622445D01*
X8729354Y12750500D01*
X8729358Y12750505D01*
X8835793Y12897002D01*
X8835796Y12897006D01*
X8889540Y13002484D01*
X8918011Y13058360D01*
X8918012Y13058363D01*
X8962932Y13196616D01*
X8973971Y13230591D01*
X8992779Y13349339D01*
X9002300Y13409448D01*
X9002300Y13590551D01*
X8988565Y13677259D01*
X8973971Y13769409D01*
X8918011Y13941639D01*
X8835796Y14102994D01*
X8729353Y14249501D01*
X8721635Y14257219D01*
X8688150Y14318542D01*
X8693134Y14388234D01*
X8735006Y14444167D01*
X8800470Y14468584D01*
X8809316Y14468900D01*
X10493307Y14468900D01*
X10555305Y14452287D01*
X10578012Y14439178D01*
X10654438Y14418700D01*
X16777260Y14418700D01*
X16777262Y14418700D01*
X16828213Y14432352D01*
X16853690Y14439179D01*
X16853695Y14439182D01*
X16922204Y14478735D01*
X16922212Y14478741D01*
X21386552Y18943081D01*
X21447875Y18976566D01*
X21474233Y18979400D01*
X23970704Y18979400D01*
X24037743Y18959715D01*
X24078092Y18917399D01*
X24081679Y18911184D01*
X24193482Y18799381D01*
X24193490Y18799375D01*
X24330409Y18720326D01*
X24330416Y18720323D01*
X24483143Y18679400D01*
X24641256Y18679400D01*
X24641257Y18679400D01*
X24793984Y18720323D01*
X24793986Y18720324D01*
X24793990Y18720326D01*
X24930909Y18799375D01*
X24930917Y18799381D01*
X25042718Y18911182D01*
X25042724Y18911190D01*
X25121773Y19048109D01*
X25121777Y19048116D01*
X25162700Y19200843D01*
X25162700Y19358957D01*
X25121777Y19511684D01*
X25121772Y19511692D01*
X25118666Y19519194D01*
X25121750Y19520471D01*
X25108932Y19573288D01*
X25131777Y19639317D01*
X25186694Y19682513D01*
X25232792Y19691400D01*
X25556900Y19691400D01*
X25623939Y19671715D01*
X25669694Y19618911D01*
X25680900Y19567400D01*
X25680900Y19540743D01*
X25721823Y19388016D01*
X25721826Y19388009D01*
X25800875Y19251090D01*
X25800881Y19251082D01*
X25912682Y19139281D01*
X25912690Y19139275D01*
X26049609Y19060226D01*
X26049616Y19060223D01*
X26202343Y19019300D01*
X26360456Y19019300D01*
X26360457Y19019300D01*
X26513184Y19060223D01*
X26513186Y19060224D01*
X26513190Y19060226D01*
X26650109Y19139275D01*
X26650117Y19139281D01*
X26761918Y19251082D01*
X26761924Y19251090D01*
X26840973Y19388009D01*
X26840977Y19388016D01*
X26881900Y19540743D01*
X26881900Y19698857D01*
X26840977Y19851584D01*
X26761920Y19988516D01*
X26650116Y20100320D01*
X26513184Y20179377D01*
X26360457Y20220300D01*
X26202343Y20220300D01*
X26192091Y20217553D01*
X26122244Y20219216D01*
X26098000Y20229941D01*
X26093812Y20232358D01*
X26093811Y20232360D01*
X26025289Y20271921D01*
X25948862Y20292400D01*
X19081438Y20292400D01*
X19005011Y20271921D01*
X19005009Y20271920D01*
X19005004Y20271917D01*
X18936495Y20232364D01*
X18936491Y20232361D01*
X18936489Y20232360D01*
X18936487Y20232358D01*
X14678981Y15974852D01*
X14617658Y15941367D01*
X14547966Y15946351D01*
X14492033Y15988223D01*
X14467616Y16053687D01*
X14467300Y16062533D01*
X14467300Y17618096D01*
X14467300Y17618102D01*
X14456677Y17706564D01*
X14401161Y17847342D01*
X14325696Y17946856D01*
X14300873Y18012166D01*
X14300500Y18021781D01*
X14300500Y22061300D01*
X14320185Y22128339D01*
X14372989Y22174094D01*
X14424500Y22185300D01*
X49325335Y22185300D01*
X49392374Y22165615D01*
G37*
%TD.AperFunction*%
%TA.AperFunction,Conductor*%
G36*
X44016260Y15975575D02*
G01*
X44072193Y15933703D01*
X44087483Y15906855D01*
X44089321Y15902417D01*
X44168375Y15765490D01*
X44168381Y15765482D01*
X44280181Y15653682D01*
X44280190Y15653675D01*
X44286401Y15650090D01*
X44334616Y15599523D01*
X44348400Y15542704D01*
X44348400Y11866033D01*
X44328715Y11798994D01*
X44312081Y11778352D01*
X42089948Y9556219D01*
X42028625Y9522734D01*
X42002267Y9519900D01*
X41813538Y9519900D01*
X41737111Y9499421D01*
X41717845Y9488298D01*
X41673325Y9462595D01*
X41673326Y9462595D01*
X41673319Y9462591D01*
X41668589Y9459860D01*
X41668587Y9459858D01*
X41668585Y9459857D01*
X40917181Y8708452D01*
X40855858Y8674967D01*
X40786167Y8679951D01*
X40730233Y8721823D01*
X40705816Y8787287D01*
X40705500Y8796133D01*
X40705500Y8928350D01*
X40705499Y8928352D01*
X40693868Y8986829D01*
X40693867Y8986830D01*
X40693867Y8986831D01*
X40649552Y9053152D01*
X40583231Y9097467D01*
X40583229Y9097467D01*
X40583229Y9097468D01*
X40539568Y9106152D01*
X40524751Y9109099D01*
X40524751Y9109100D01*
X40524748Y9109100D01*
X40429500Y9109100D01*
X40362461Y9128785D01*
X40316706Y9181589D01*
X40305500Y9233100D01*
X40305500Y12315967D01*
X40325185Y12383006D01*
X40341819Y12403648D01*
X43885245Y15947074D01*
X43946568Y15980559D01*
X44016260Y15975575D01*
G37*
%TD.AperFunction*%
%TA.AperFunction,Conductor*%
G36*
X52547203Y21437679D02*
G01*
X52553681Y21431647D01*
X53365063Y20620264D01*
X53398548Y20558941D01*
X53397158Y20500492D01*
X53395300Y20493557D01*
X53395300Y20335443D01*
X53436223Y20182716D01*
X53436226Y20182709D01*
X53515275Y20045790D01*
X53515281Y20045782D01*
X53627081Y19933982D01*
X53627090Y19933975D01*
X53633301Y19930390D01*
X53681516Y19879823D01*
X53695300Y19823004D01*
X53695300Y19285233D01*
X53675615Y19218194D01*
X53658981Y19197552D01*
X43426580Y8965151D01*
X43365257Y8931666D01*
X43295565Y8936650D01*
X43239632Y8978522D01*
X43235796Y8983942D01*
X43233867Y8986829D01*
X43233867Y8986831D01*
X43189552Y9053152D01*
X43123231Y9097467D01*
X43123229Y9097467D01*
X43123229Y9097468D01*
X43079568Y9106152D01*
X43064751Y9109099D01*
X43064751Y9109100D01*
X43064748Y9109100D01*
X42792133Y9109100D01*
X42725094Y9128785D01*
X42679339Y9181589D01*
X42669395Y9250747D01*
X42698420Y9314303D01*
X42704452Y9320781D01*
X44889356Y11505684D01*
X44889359Y11505688D01*
X44895662Y11516604D01*
X44905725Y11534035D01*
X44928921Y11574211D01*
X44949400Y11650638D01*
X44949400Y15542704D01*
X44969085Y15609743D01*
X45011399Y15650090D01*
X45017609Y15653675D01*
X45017613Y15653678D01*
X45017616Y15653680D01*
X45129420Y15765484D01*
X45129421Y15765486D01*
X45129424Y15765490D01*
X45208473Y15902409D01*
X45208477Y15902416D01*
X45249400Y16055143D01*
X45249400Y16213257D01*
X45208477Y16365984D01*
X45129420Y16502916D01*
X45017616Y16614720D01*
X45001444Y16624056D01*
X44880688Y16693775D01*
X44880686Y16693775D01*
X44880684Y16693777D01*
X44880681Y16693777D01*
X44876256Y16695611D01*
X44821851Y16739451D01*
X44799785Y16805745D01*
X44817063Y16873444D01*
X44836025Y16897854D01*
X45852086Y17913915D01*
X45913409Y17947400D01*
X45983101Y17942416D01*
X46039034Y17900544D01*
X46063451Y17835080D01*
X46048599Y17766807D01*
X46047159Y17764242D01*
X46038523Y17749284D01*
X46003372Y17618096D01*
X45997600Y17596556D01*
X45997600Y17438443D01*
X46038523Y17285716D01*
X46038526Y17285709D01*
X46117575Y17148790D01*
X46117581Y17148782D01*
X46229382Y17036981D01*
X46229390Y17036975D01*
X46366309Y16957926D01*
X46366316Y16957923D01*
X46519043Y16917000D01*
X46677156Y16917000D01*
X46677157Y16917000D01*
X46829884Y16957923D01*
X46829886Y16957924D01*
X46829890Y16957926D01*
X46966809Y17036975D01*
X46972543Y17041375D01*
X47037712Y17066570D01*
X47048031Y17067000D01*
X50361208Y17067000D01*
X50361209Y17067000D01*
X50393644Y17075691D01*
X50451530Y17091201D01*
X50451556Y17091208D01*
X50451573Y17091213D01*
X50463680Y17094457D01*
X50475788Y17097701D01*
X50527150Y17127356D01*
X50578514Y17157011D01*
X52251989Y18830486D01*
X52311299Y18933213D01*
X52321102Y18969800D01*
X52342000Y19047791D01*
X52342000Y21343966D01*
X52361685Y21411005D01*
X52414489Y21456760D01*
X52483647Y21466704D01*
X52547203Y21437679D01*
G37*
%TD.AperFunction*%
%TD*%
D17*
X5000000Y28800000D02*
X57000000Y28800000D01*
D18*
X3200000Y27000000D02*
X3200000Y27000000D01*
D17*
X5000000Y1200000D02*
G75*
G02*
X3200000Y3000000I0J1800000D01*
G01*
X3200000Y27000000D02*
X3200000Y3000000D01*
X57000000Y28800000D02*
G75*
G02*
X58800000Y27000000I0J-1800000D01*
G01*
D18*
X57000000Y28800000D02*
X57000000Y28800000D01*
X58800000Y27000000D02*
X58800000Y27000000D01*
D17*
X3200000Y27000000D02*
G75*
G02*
X5000000Y28800000I1800000J0D01*
G01*
D18*
X3200000Y27000000D02*
X3200000Y27000000D01*
D17*
X46200000Y2200000D02*
G75*
G02*
X45200000Y1200000I-1000000J0D01*
G01*
D18*
X3200000Y3000000D02*
X3200000Y3000000D01*
X57000000Y28800000D02*
X57000000Y28800000D01*
X57000000Y28800000D02*
X57000000Y28800000D01*
X57000000Y28800000D02*
X57000000Y28800000D01*
X5000000Y28800000D02*
X5000000Y28800000D01*
D17*
X46200000Y2200000D02*
X46200000Y4140000D01*
D18*
X58800000Y27000000D02*
X58800000Y27000000D01*
X5000000Y28800000D02*
X5000000Y28800000D01*
D17*
X58800000Y6140000D02*
G75*
G02*
X57800000Y5140000I-1000000J0D01*
G01*
D18*
X57000000Y28800000D02*
X57000000Y28800000D01*
D17*
X5000000Y1200000D02*
X45200000Y1200000D01*
D18*
X57000000Y28800000D02*
X57000000Y28800000D01*
X3200000Y3000000D02*
X3200000Y3000000D01*
X57000000Y28800000D02*
X57000000Y28800000D01*
D17*
X58800000Y27000000D02*
X58800000Y6140000D01*
D18*
X5000000Y1200000D02*
X5000000Y1200000D01*
D17*
X57800000Y5140000D02*
X47200000Y5140000D01*
D18*
X5000000Y1200000D02*
X5000000Y1200000D01*
D17*
X46200000Y4140000D02*
G75*
G02*
X47200000Y5140000I1000000J0D01*
G01*
D18*
X57000000Y28800000D02*
X57000000Y28800000D01*
X1666666Y0D02*
G75*
G02*
X-1666666Y0I-1666666J0D01*
G01*
X-1666666Y0D02*
G75*
G02*
X1666666Y0I1666666J0D01*
G01*
X-2500000Y0D02*
X2500000Y0D01*
X0Y2500000D02*
X0Y-2500000D01*
M02*
