%TF.GenerationSoftware,KiCad,Pcbnew,9.0.7*%
%TF.CreationDate,2026-09-09T13:58:15-07:00*%
%TF.ProjectId,Caliper_XIAO_840,43616c69-7065-4725-9f58-49414f5f3834,rev?*%
%TF.SameCoordinates,Original*%
%TF.FileFunction,Copper,L2,Bot*%
%TF.FilePolarity,Positive*%
%FSLAX46Y46*%
G04 Gerber Fmt 4.6, Leading zero omitted, Abs format (unit mm)*
G04 Created by KiCad (PCBNEW 9.0.7) date 2026-09-09 13:58:15*
%MOMM*%
%LPD*%
G01*
G04 APERTURE LIST*
G04 Aperture macros list*
%AMRoundRect*
0 Rectangle with rounded corners*
0 $1 Rounding radius*
0 $2 $3 $4 $5 $6 $7 $8 $9 X,Y pos of 4 corners*
0 Add a 4 corners polygon primitive as box body*
4,1,4,$2,$3,$4,$5,$6,$7,$8,$9,$2,$3,0*
0 Add four circle primitives for the rounded corners*
1,1,$1+$1,$2,$3*
1,1,$1+$1,$4,$5*
1,1,$1+$1,$6,$7*
1,1,$1+$1,$8,$9*
0 Add four rect primitives between the rounded corners*
20,1,$1+$1,$2,$3,$4,$5,0*
20,1,$1+$1,$4,$5,$6,$7,0*
20,1,$1+$1,$6,$7,$8,$9,0*
20,1,$1+$1,$8,$9,$2,$3,0*%
G04 Aperture macros list end*
%TA.AperFunction,SMDPad,CuDef*%
%ADD10RoundRect,0.225000X0.250000X-0.225000X0.250000X0.225000X-0.250000X0.225000X-0.250000X-0.225000X0*%
%TD*%
%TA.AperFunction,SMDPad,CuDef*%
%ADD11RoundRect,0.225000X-0.250000X0.225000X-0.250000X-0.225000X0.250000X-0.225000X0.250000X0.225000X0*%
%TD*%
%TA.AperFunction,SMDPad,CuDef*%
%ADD12RoundRect,0.250000X0.250000X2.500000X-0.250000X2.500000X-0.250000X-2.500000X0.250000X-2.500000X0*%
%TD*%
%TA.AperFunction,SMDPad,CuDef*%
%ADD13RoundRect,0.250000X0.550000X1.250000X-0.550000X1.250000X-0.550000X-1.250000X0.550000X-1.250000X0*%
%TD*%
%TA.AperFunction,SMDPad,CuDef*%
%ADD14RoundRect,0.200000X0.200000X0.275000X-0.200000X0.275000X-0.200000X-0.275000X0.200000X-0.275000X0*%
%TD*%
%TA.AperFunction,SMDPad,CuDef*%
%ADD15R,1.700000X3.700000*%
%TD*%
%TA.AperFunction,SMDPad,CuDef*%
%ADD16RoundRect,0.008100X0.551900X0.126900X-0.551900X0.126900X-0.551900X-0.126900X0.551900X-0.126900X0*%
%TD*%
%TA.AperFunction,SMDPad,CuDef*%
%ADD17RoundRect,0.088500X-0.206500X0.516500X-0.206500X-0.516500X0.206500X-0.516500X0.206500X0.516500X0*%
%TD*%
%TA.AperFunction,SMDPad,CuDef*%
%ADD18RoundRect,0.250000X-2.500000X0.250000X-2.500000X-0.250000X2.500000X-0.250000X2.500000X0.250000X0*%
%TD*%
%TA.AperFunction,SMDPad,CuDef*%
%ADD19RoundRect,0.250000X-1.250000X0.550000X-1.250000X-0.550000X1.250000X-0.550000X1.250000X0.550000X0*%
%TD*%
%TA.AperFunction,SMDPad,CuDef*%
%ADD20R,1.600000X1.500000*%
%TD*%
%TA.AperFunction,SMDPad,CuDef*%
%ADD21RoundRect,0.250000X-0.375000X-1.000000X0.375000X-1.000000X0.375000X1.000000X-0.375000X1.000000X0*%
%TD*%
%TA.AperFunction,SMDPad,CuDef*%
%ADD22RoundRect,0.250000X-0.250000X-2.500000X0.250000X-2.500000X0.250000X2.500000X-0.250000X2.500000X0*%
%TD*%
%TA.AperFunction,SMDPad,CuDef*%
%ADD23RoundRect,0.250000X-0.550000X-1.250000X0.550000X-1.250000X0.550000X1.250000X-0.550000X1.250000X0*%
%TD*%
%TA.AperFunction,SMDPad,CuDef*%
%ADD24RoundRect,0.500000X-0.500000X0.875000X-0.500000X-0.875000X0.500000X-0.875000X0.500000X0.875000X0*%
%TD*%
%TA.AperFunction,ComponentPad*%
%ADD25C,1.900000*%
%TD*%
%TA.AperFunction,ComponentPad*%
%ADD26RoundRect,0.350000X0.350000X-0.900000X0.350000X0.900000X-0.350000X0.900000X-0.350000X-0.900000X0*%
%TD*%
%TA.AperFunction,SMDPad,CuDef*%
%ADD27RoundRect,0.275000X-0.975000X-0.275000X0.975000X-0.275000X0.975000X0.275000X-0.975000X0.275000X0*%
%TD*%
%TA.AperFunction,SMDPad,CuDef*%
%ADD28RoundRect,0.150000X-0.150000X-0.200000X0.150000X-0.200000X0.150000X0.200000X-0.150000X0.200000X0*%
%TD*%
%TA.AperFunction,ViaPad*%
%ADD29C,0.800000*%
%TD*%
%TA.AperFunction,Conductor*%
%ADD30C,0.500000*%
%TD*%
%TA.AperFunction,Conductor*%
%ADD31C,0.269800*%
%TD*%
%TA.AperFunction,Conductor*%
%ADD32C,0.200000*%
%TD*%
%TA.AperFunction,Conductor*%
%ADD33C,0.250000*%
%TD*%
%TA.AperFunction,Profile*%
%ADD34C,0.100000*%
%TD*%
%TA.AperFunction,Profile*%
%ADD35C,0.050000*%
%TD*%
G04 APERTURE END LIST*
D10*
%TO.P,C1,1*%
%TO.N,+BATT*%
X4700000Y24400000D03*
%TO.P,C1,2*%
%TO.N,GND*%
X4700000Y25950000D03*
%TD*%
%TO.P,C2,1*%
%TO.N,+BATT*%
X6500000Y24425000D03*
%TO.P,C2,2*%
%TO.N,GND*%
X6500000Y25975000D03*
%TD*%
D11*
%TO.P,C3,1*%
%TO.N,3V3*%
X18600000Y27475000D03*
%TO.P,C3,2*%
%TO.N,GND*%
X18600000Y25925000D03*
%TD*%
D10*
%TO.P,C4,1*%
%TO.N,+BATT*%
X51900000Y18425000D03*
%TO.P,C4,2*%
%TO.N,GND*%
X51900000Y19975000D03*
%TD*%
D12*
%TO.P,J2,1,1*%
%TO.N,/V_TARG*%
X53300000Y23900000D03*
%TO.P,J2,2,2*%
%TO.N,/B_CLOCK*%
X51300000Y23900000D03*
%TO.P,J2,3,3*%
%TO.N,/B_DATA*%
X49300000Y23900000D03*
%TO.P,J2,4,4*%
%TO.N,GND*%
X47300000Y23900000D03*
D13*
%TO.P,J2,MP*%
%TO.N,N/C*%
X55700000Y26150000D03*
X44900000Y26150000D03*
%TD*%
D14*
%TO.P,R1,1*%
%TO.N,/BUZZ*%
X53425000Y12300000D03*
%TO.P,R1,2*%
%TO.N,GND*%
X51775000Y12300000D03*
%TD*%
D15*
%TO.P,SW2,1,A*%
%TO.N,3V3*%
X54450000Y7200000D03*
%TO.P,SW2,2,B*%
%TO.N,/BUTTON*%
X48550000Y7200000D03*
%TD*%
D16*
%TO.P,U1,1,VCCA*%
%TO.N,3V3*%
X23362500Y25750000D03*
%TO.P,U1,2,A1*%
%TO.N,/A_CLOCK*%
X23362500Y25250000D03*
%TO.P,U1,3,A2*%
%TO.N,/A_DATA*%
X23362500Y24750000D03*
%TO.P,U1,4,GND*%
%TO.N,GND*%
X23362500Y24250000D03*
%TO.P,U1,5,DIR*%
X20552500Y24250000D03*
%TO.P,U1,6,B2*%
%TO.N,/B_DATA*%
X20552500Y24750000D03*
%TO.P,U1,7,B1*%
%TO.N,/B_CLOCK*%
X20552500Y25250000D03*
%TO.P,U1,8,VCCB*%
%TO.N,/V_TARG*%
X20552500Y25750000D03*
%TD*%
D17*
%TO.P,Q1,D,D*%
%TO.N,Net-(BZ1--)*%
X56400000Y11045000D03*
%TO.P,Q1,G,G*%
%TO.N,/BUZZ*%
X55450000Y13555000D03*
%TO.P,Q1,S,S*%
%TO.N,GND*%
X57350000Y13555000D03*
%TD*%
D18*
%TO.P,J4,1,Pin_1*%
%TO.N,/BATT*%
X49700000Y16600000D03*
%TO.P,J4,2,Pin_2*%
%TO.N,GND*%
X49700000Y14600000D03*
D19*
%TO.P,J4,MP*%
%TO.N,N/C*%
X47450000Y19000000D03*
X47450000Y12200000D03*
%TD*%
D20*
%TO.P,BZ1,N,-*%
%TO.N,Net-(BZ1--)*%
X54200000Y18745000D03*
%TO.P,BZ1,P,+*%
%TO.N,+BATT*%
X56400000Y18745000D03*
%TD*%
D21*
%TO.P,SW1,1,A*%
%TO.N,/BATT*%
X10100000Y23850000D03*
%TO.P,SW1,2,B*%
%TO.N,+BATT*%
X12600000Y23850000D03*
%TO.P,SW1,3,C*%
%TO.N,unconnected-(SW1-C-Pad3)*%
X15100000Y23850000D03*
%TD*%
D22*
%TO.P,J1,1,1*%
%TO.N,+BATT*%
X28100000Y6200000D03*
%TO.P,J1,2,2*%
%TO.N,/SWDCLK*%
X30100000Y6200000D03*
%TO.P,J1,3,3*%
%TO.N,/SWDIO*%
X32100000Y6200000D03*
%TO.P,J1,4,4*%
%TO.N,/~{RESET}*%
X34100000Y6200000D03*
%TO.P,J1,5,5*%
%TO.N,/DEBUG*%
X36100000Y6200000D03*
%TO.P,J1,6,6*%
%TO.N,/USART_TX*%
X38100000Y6200000D03*
%TO.P,J1,7,7*%
%TO.N,/USART_RX*%
X40100000Y6200000D03*
%TO.P,J1,8,8*%
%TO.N,GND*%
X42100000Y6200000D03*
D23*
%TO.P,J1,MP*%
%TO.N,N/C*%
X25700000Y3950000D03*
X44500000Y3950000D03*
%TD*%
D24*
%TO.P,U2,1,P0.02_A0_D0*%
%TO.N,unconnected-(U2-P0.02_A0_D0-Pad1)*%
X6260300Y20285000D03*
%TO.P,U2,2,P0.03_A1_D1*%
%TO.N,/BUZZ*%
X8800300Y20285000D03*
%TO.P,U2,3,P0.28_A2_D2*%
%TO.N,unconnected-(U2-P0.28_A2_D2-Pad3)*%
X11340300Y20285000D03*
%TO.P,U2,4,P0.29_A3_D3*%
%TO.N,unconnected-(U2-P0.29_A3_D3-Pad4)*%
X13880300Y20285000D03*
%TO.P,U2,5,P0.04_A4_D4_SDA*%
%TO.N,/BUTTON*%
X16420300Y20285000D03*
%TO.P,U2,6,P0.05_A5_D5_SCL*%
%TO.N,unconnected-(U2-P0.05_A5_D5_SCL-Pad6)*%
X18960300Y20285000D03*
%TO.P,U2,7,P1.11_D6_TX*%
%TO.N,/USART_TX*%
X21500300Y20285000D03*
%TO.P,U2,8,P1.12_D7_RX*%
%TO.N,/USART_RX*%
X21500300Y4120000D03*
%TO.P,U2,9,P1.13_D8_SCK*%
%TO.N,/A_DATA*%
X18960300Y4120000D03*
%TO.P,U2,10,P1.14_D9_MISO*%
%TO.N,/A_CLOCK*%
X16420300Y4120000D03*
%TO.P,U2,11,P1.15_D10_MOSI*%
%TO.N,/DEBUG*%
X13880300Y4120000D03*
%TO.P,U2,12,3V3*%
%TO.N,3V3*%
X11340300Y4120000D03*
%TO.P,U2,13,GND*%
%TO.N,GND*%
X8800300Y4120000D03*
%TO.P,U2,14,VBUS*%
%TO.N,unconnected-(U2-VBUS-Pad14)*%
X6260300Y4120000D03*
D25*
%TO.P,U2,24,SWDIO*%
%TO.N,/SWDIO*%
X5311800Y13500000D03*
%TO.P,U2,25,SWCLK*%
%TO.N,/SWDCLK*%
X5311800Y10960000D03*
%TO.P,U2,26,RESET*%
%TO.N,/~{RESET}*%
X7851800Y13500000D03*
%TO.P,U2,27,GND*%
%TO.N,GND*%
X7851800Y10960000D03*
D26*
%TO.P,U2,32,BAT*%
%TO.N,+BATT*%
X13566800Y16675000D03*
%TO.P,U2,33,GND*%
%TO.N,GND*%
X11661800Y16675000D03*
D27*
%TO.P,U2,34,P0.09_NFC1*%
%TO.N,unconnected-(U2-P0.09_NFC1-Pad34)*%
X23117200Y8420000D03*
%TO.P,U2,35,P0.10_NFC2*%
%TO.N,unconnected-(U2-P0.10_NFC2-Pad35)*%
X23117200Y6515000D03*
%TD*%
D28*
%TO.P,D1,1,K*%
%TO.N,+BATT*%
X55800000Y15700000D03*
%TO.P,D1,2,A*%
%TO.N,Net-(BZ1--)*%
X54400000Y15700000D03*
%TD*%
D29*
%TO.N,GND*%
X41826800Y9921200D03*
X42186400Y11920900D03*
X45600000Y13800000D03*
X55700000Y22000000D03*
X8506400Y23881300D03*
X57800000Y25700000D03*
%TO.N,+BATT*%
X13850000Y22635800D03*
X49940300Y18369300D03*
%TO.N,/SWDCLK*%
X24562200Y19279900D03*
%TO.N,/SWDIO*%
X26281400Y19619800D03*
%TO.N,/DEBUG*%
X14700000Y6500000D03*
X20700000Y6500000D03*
X31000000Y2715000D03*
X35500000Y2715000D03*
%TO.N,/V_TARG*%
X21082800Y26802800D03*
X53995800Y20414500D03*
%TO.N,/B_CLOCK*%
X47360900Y27945500D03*
X50250400Y20736000D03*
X20037300Y26673800D03*
%TO.N,/B_DATA*%
X21803600Y25787100D03*
X40965100Y25745200D03*
X44648900Y16134200D03*
%TO.N,/A_CLOCK*%
X36948600Y12205500D03*
X16420300Y7451800D03*
%TO.N,/A_DATA*%
X19455000Y9815900D03*
X35402700Y13428400D03*
%TO.N,/BUTTON*%
X50020300Y8043900D03*
X29206500Y9521900D03*
%TO.N,/BUZZ*%
X54275600Y11014100D03*
X8336500Y8597000D03*
%TO.N,3V3*%
X12645900Y2104300D03*
X42352100Y2329500D03*
%TO.N,/~{RESET}*%
X33118400Y3281600D03*
%TO.N,/BATT*%
X10204600Y25744400D03*
X46598100Y17517500D03*
%TD*%
D30*
%TO.N,GND*%
X39459700Y10663100D02*
X36949400Y10663100D01*
X45451500Y17081000D02*
X46399000Y16133500D01*
X18600000Y25329800D02*
X18600000Y25925000D01*
X51775000Y12300000D02*
X49700000Y14375000D01*
X42100000Y8022800D02*
X42100000Y6200000D01*
X49700000Y14600000D02*
X47932500Y14600000D01*
X49561400Y19884300D02*
X51809300Y19884300D01*
X47300000Y22145700D02*
X49561400Y19884300D01*
X27534800Y20138900D02*
X23697600Y23976100D01*
X19768300Y24161500D02*
X18600000Y25329800D01*
X41014200Y9108600D02*
X42100000Y8022800D01*
X49700000Y14375000D02*
X49700000Y14600000D01*
X20552500Y24161500D02*
X19768300Y24161500D01*
X8800300Y4120000D02*
X9188200Y4507900D01*
X7009500Y25975000D02*
X6500000Y25975000D01*
X11661800Y14770000D02*
X11661800Y16675000D01*
X54107400Y9967600D02*
X56841400Y9967600D01*
X27534800Y20077700D02*
X27534800Y20138900D01*
X51809300Y19884300D02*
X51900000Y19975000D01*
X6475000Y25950000D02*
X4700000Y25950000D01*
X47300000Y23900000D02*
X47300000Y22145700D01*
X9188200Y4507900D02*
X9188200Y9623600D01*
X41014200Y9108600D02*
X41826800Y9921200D01*
D31*
X20552500Y24250000D02*
X20552500Y24161500D01*
D30*
X46399000Y16133500D02*
X42186400Y11920900D01*
X8679100Y27772000D02*
X7009500Y26102400D01*
X23697600Y23976100D02*
X23636400Y23976100D01*
X47300000Y23900000D02*
X45451500Y22051500D01*
X57350000Y10476200D02*
X57350000Y13555000D01*
X18600000Y25925000D02*
X16753000Y27772000D01*
X41014200Y9108600D02*
X39459700Y10663100D01*
D31*
X23362500Y24250000D02*
X20552500Y24250000D01*
D30*
X51775000Y12300000D02*
X54107400Y9967600D01*
X6500000Y25975000D02*
X6475000Y25950000D01*
X7009500Y26102400D02*
X7009500Y25975000D01*
X47932500Y14600000D02*
X46399000Y16133500D01*
X36949400Y10663100D02*
X27534800Y20077700D01*
X7851800Y10960000D02*
X11661800Y14770000D01*
X56841400Y9967600D02*
X57350000Y10476200D01*
X9188200Y9623600D02*
X7851800Y10960000D01*
X45451500Y22051500D02*
X45451500Y17081000D01*
X16753000Y27772000D02*
X8679100Y27772000D01*
D31*
X23636400Y23976100D02*
X23362500Y24250000D01*
D30*
X7009500Y25975000D02*
X7009500Y25378200D01*
X7009500Y25378200D02*
X8506400Y23881300D01*
%TO.N,+BATT*%
X13850000Y22635800D02*
X13814200Y22635800D01*
X4700000Y24400000D02*
X6475000Y24400000D01*
X28100000Y6200000D02*
X24355100Y9944900D01*
X52909400Y17359900D02*
X51900000Y18369300D01*
X51900000Y18425000D02*
X51900000Y18369300D01*
X6500000Y24425000D02*
X8794500Y22130500D01*
X20530500Y9944900D02*
X13800400Y16675000D01*
X51900000Y18369300D02*
X49940300Y18369300D01*
X53951000Y14885400D02*
X52909400Y15927000D01*
X13800400Y16675000D02*
X13566800Y16675000D01*
X52909400Y15927000D02*
X52909400Y17359900D01*
X6475000Y24400000D02*
X6500000Y24425000D01*
X13814200Y22635800D02*
X12600000Y23850000D01*
X55800000Y15700000D02*
X54985400Y14885400D01*
X24355100Y9944900D02*
X20530500Y9944900D01*
X56400000Y18745000D02*
X56400000Y16300000D01*
X8794500Y22130500D02*
X10880500Y22130500D01*
X54985400Y14885400D02*
X53951000Y14885400D01*
X10880500Y22130500D02*
X12600000Y23850000D01*
X56400000Y16300000D02*
X55800000Y15700000D01*
D32*
%TO.N,/SWDCLK*%
X24924000Y18918100D02*
X26065900Y18918100D01*
X26065900Y18918100D02*
X30100000Y14884000D01*
X30100000Y14884000D02*
X30100000Y6200000D01*
X24562200Y19279900D02*
X24924000Y18918100D01*
%TO.N,/SWDIO*%
X32100000Y6200000D02*
X32100000Y13801200D01*
X32100000Y13801200D02*
X26281400Y19619800D01*
%TO.N,/DEBUG*%
X36100000Y4037600D02*
X36100000Y6200000D01*
D33*
X24880514Y7391000D02*
X27274000Y4997514D01*
X21591000Y7391000D02*
X24880514Y7391000D01*
X27274000Y4997514D02*
X27274000Y3454486D01*
X35500000Y2715000D02*
X36100000Y3315000D01*
X20700000Y6500000D02*
X21591000Y7391000D01*
X13880300Y5680300D02*
X14700000Y6500000D01*
X13880300Y4120000D02*
X13880300Y5680300D01*
X28128486Y2600000D02*
X30885000Y2600000D01*
X30885000Y2600000D02*
X31000000Y2715000D01*
X27274000Y3454486D02*
X28128486Y2600000D01*
X36100000Y3315000D02*
X36100000Y6200000D01*
D32*
%TO.N,/V_TARG*%
X53995800Y23204200D02*
X53300000Y23900000D01*
X53995800Y20414500D02*
X53995800Y23204200D01*
X21082800Y26280300D02*
X20552500Y25750000D01*
X21082800Y26802800D02*
X21082800Y26280300D01*
%TO.N,/USART_TX*%
X38100000Y6200000D02*
X38100000Y8382500D01*
X26983100Y19910400D02*
X26572000Y20321500D01*
X26572000Y20321500D02*
X21536800Y20321500D01*
X38100000Y8382500D02*
X26983100Y19499400D01*
X26983100Y19499400D02*
X26983100Y19910400D01*
X21536800Y20321500D02*
X21500300Y20285000D01*
%TO.N,/B_CLOCK*%
X19926700Y25250000D02*
X20552500Y25250000D01*
X19658600Y26295100D02*
X19658600Y25518100D01*
X51300000Y25457200D02*
X48811700Y27945500D01*
X20037300Y26673800D02*
X19658600Y26295100D01*
X51300000Y23900000D02*
X51300000Y25457200D01*
X19658600Y25518100D02*
X19926700Y25250000D01*
X51300000Y21785600D02*
X51300000Y23900000D01*
X48811700Y27945500D02*
X47360900Y27945500D01*
X50250400Y20736000D02*
X51300000Y21785600D01*
%TO.N,/B_DATA*%
X21803600Y25384200D02*
X21803600Y25787100D01*
X47734600Y27001000D02*
X49300000Y25435600D01*
X44648900Y22614600D02*
X44648900Y16134200D01*
X44648900Y22614600D02*
X46021600Y23987300D01*
X46021600Y26163500D02*
X46859100Y27001000D01*
X44095700Y22614600D02*
X44648900Y22614600D01*
X46021600Y23987300D02*
X46021600Y26163500D01*
X20552500Y24750000D02*
X21169400Y24750000D01*
X40965100Y25745200D02*
X44095700Y22614600D01*
X46859100Y27001000D02*
X47734600Y27001000D01*
X49300000Y25435600D02*
X49300000Y23900000D01*
X21169400Y24750000D02*
X21803600Y25384200D01*
%TO.N,/USART_RX*%
X35120900Y3626600D02*
X35120900Y8782600D01*
X21500300Y4120000D02*
X23606800Y2013500D01*
X37100100Y8741600D02*
X37100100Y3578100D01*
X38566400Y3120000D02*
X40100000Y4653600D01*
X37558200Y3120000D02*
X38566400Y3120000D01*
X23606800Y2013500D02*
X33507800Y2013500D01*
X35619100Y9280800D02*
X36560900Y9280800D01*
X36560900Y9280800D02*
X37100100Y8741600D01*
X35120900Y8782600D02*
X35619100Y9280800D01*
X33507800Y2013500D02*
X35120900Y3626600D01*
X40100000Y4653600D02*
X40100000Y6200000D01*
X37100100Y3578100D02*
X37558200Y3120000D01*
%TO.N,/A_CLOCK*%
X36948600Y12205500D02*
X36948600Y12946400D01*
X36948600Y12946400D02*
X24645000Y25250000D01*
X16420300Y4120000D02*
X16420300Y7451800D01*
X24645000Y25250000D02*
X23362500Y25250000D01*
%TO.N,/A_DATA*%
X19455000Y9815900D02*
X19455000Y4614700D01*
X24081100Y24750000D02*
X23362500Y24750000D01*
X35402700Y13428400D02*
X24081100Y24750000D01*
X19455000Y4614700D02*
X18960300Y4120000D01*
%TO.N,/BUTTON*%
X29206500Y15206100D02*
X29206500Y9521900D01*
X49701700Y7725300D02*
X49701700Y7200000D01*
X18430500Y18274800D02*
X26137800Y18274800D01*
X48550000Y7200000D02*
X49701700Y7200000D01*
X16420300Y20285000D02*
X18430500Y18274800D01*
X26137800Y18274800D02*
X29206500Y15206100D01*
X50020300Y8043900D02*
X49701700Y7725300D01*
%TO.N,/BUZZ*%
X54195000Y11094700D02*
X54275600Y11014100D01*
X6581800Y18066500D02*
X6581800Y10351700D01*
X54195000Y12300000D02*
X55450000Y13555000D01*
X53425000Y12300000D02*
X54195000Y12300000D01*
X8800300Y20285000D02*
X6581800Y18066500D01*
X54195000Y12300000D02*
X54195000Y11094700D01*
X6581800Y10351700D02*
X8336500Y8597000D01*
%TO.N,Net-(BZ1--)*%
X56400000Y15248600D02*
X57540400Y16389000D01*
X55272900Y19817900D02*
X54200000Y18745000D01*
X54200000Y15900000D02*
X54400000Y15700000D01*
X56400000Y11045000D02*
X56400000Y15248600D01*
X57540400Y16389000D02*
X57540400Y19674400D01*
X57396900Y19817900D02*
X55272900Y19817900D01*
X57540400Y19674400D02*
X57396900Y19817900D01*
X54200000Y18745000D02*
X54200000Y15900000D01*
D30*
%TO.N,3V3*%
X25869300Y25835200D02*
X24371000Y25835200D01*
X11340300Y4120000D02*
X11340300Y3409900D01*
X42226400Y10772900D02*
X40931600Y10772900D01*
D31*
X22665700Y25882400D02*
X22798100Y25750000D01*
D30*
X18779500Y27654500D02*
X18600000Y27475000D01*
X43081600Y9521900D02*
X43081600Y9917700D01*
D31*
X24371000Y25835200D02*
X23447700Y25835200D01*
D30*
X43081600Y3059000D02*
X42352100Y2329500D01*
D31*
X22798100Y25750000D02*
X23362500Y25750000D01*
D30*
X50826400Y9521900D02*
X43081600Y9521900D01*
X43081600Y9917700D02*
X42226400Y10772900D01*
X11340300Y3409900D02*
X12645900Y2104300D01*
X40931600Y10772900D02*
X25869300Y25835200D01*
D31*
X23447700Y25835200D02*
X23362500Y25750000D01*
D30*
X22665700Y25882400D02*
X22665700Y26424400D01*
X22665700Y26424400D02*
X21435600Y27654500D01*
X54450000Y7200000D02*
X53148300Y7200000D01*
X53148300Y7200000D02*
X50826400Y9521900D01*
X43081600Y9521900D02*
X43081600Y3059000D01*
X21435600Y27654500D02*
X18779500Y27654500D01*
D32*
%TO.N,/~{RESET}*%
X33118400Y3281600D02*
X34100000Y4263200D01*
X34100000Y4263200D02*
X34100000Y6200000D01*
D30*
%TO.N,/BATT*%
X47515600Y16600000D02*
X49700000Y16600000D01*
X46598100Y17517500D02*
X47515600Y16600000D01*
X10204600Y25744400D02*
X10204600Y23954600D01*
X10204600Y23954600D02*
X10100000Y23850000D01*
%TD*%
%TA.AperFunction,Conductor*%
%TO.N,GND*%
G36*
X46933341Y28579815D02*
G01*
X46979096Y28527011D01*
X46989040Y28457853D01*
X46960015Y28394297D01*
X46953983Y28387819D01*
X46880381Y28314217D01*
X46880375Y28314209D01*
X46801326Y28177290D01*
X46801323Y28177284D01*
X46766823Y28048526D01*
X46760400Y28024556D01*
X46760400Y27866443D01*
X46801323Y27713716D01*
X46801326Y27713709D01*
X46880375Y27576790D01*
X46880381Y27576782D01*
X46943983Y27513181D01*
X46977468Y27451858D01*
X46972484Y27382166D01*
X46930612Y27326233D01*
X46890880Y27306419D01*
X46873940Y27301500D01*
X46819538Y27301500D01*
X46743111Y27281021D01*
X46695097Y27253300D01*
X46674589Y27241460D01*
X46674587Y27241458D01*
X46112181Y26679052D01*
X46050858Y26645567D01*
X45981166Y26650551D01*
X45925233Y26692423D01*
X45900816Y26757887D01*
X45900500Y26766733D01*
X45900500Y27454269D01*
X45897646Y27484699D01*
X45897646Y27484701D01*
X45863249Y27582999D01*
X45852793Y27612882D01*
X45772150Y27722150D01*
X45662882Y27802793D01*
X45576195Y27833126D01*
X45534700Y27847646D01*
X45504270Y27850500D01*
X45504266Y27850500D01*
X44295734Y27850500D01*
X44295730Y27850500D01*
X44265300Y27847646D01*
X44265298Y27847646D01*
X44169163Y27814006D01*
X44137118Y27802793D01*
X44027850Y27722150D01*
X43985270Y27664456D01*
X43947207Y27612882D01*
X43947206Y27612880D01*
X43902353Y27484701D01*
X43902353Y27484699D01*
X43899500Y27454269D01*
X43899500Y24845730D01*
X43902353Y24815300D01*
X43902353Y24815298D01*
X43947206Y24687119D01*
X43947207Y24687117D01*
X44027850Y24577850D01*
X44137117Y24497207D01*
X44137119Y24497206D01*
X44265299Y24452353D01*
X44295730Y24449500D01*
X44295734Y24449500D01*
X45504270Y24449500D01*
X45534699Y24452353D01*
X45534700Y24452353D01*
X45556147Y24459858D01*
X45585578Y24461359D01*
X45614747Y24465554D01*
X45620075Y24463120D01*
X45625926Y24463419D01*
X45651495Y24448771D01*
X45678303Y24436529D01*
X45681470Y24431600D01*
X45686553Y24428689D01*
X45700145Y24402540D01*
X45716077Y24377751D01*
X45717241Y24369654D01*
X45718779Y24366696D01*
X45721100Y24342816D01*
X45721100Y24163133D01*
X45701415Y24096094D01*
X45684781Y24075452D01*
X44560748Y22951419D01*
X44499425Y22917934D01*
X44473067Y22915100D01*
X44271533Y22915100D01*
X44204494Y22934785D01*
X44183852Y22951419D01*
X43547119Y23588152D01*
X41595833Y25539436D01*
X41562350Y25600757D01*
X41563741Y25659208D01*
X41565600Y25666143D01*
X41565600Y25824257D01*
X41524677Y25976984D01*
X41445620Y26113916D01*
X41333816Y26225720D01*
X41196884Y26304777D01*
X41044157Y26345700D01*
X40886043Y26345700D01*
X40733316Y26304777D01*
X40733309Y26304773D01*
X40596390Y26225724D01*
X40596386Y26225721D01*
X40596384Y26225720D01*
X40596382Y26225718D01*
X40484581Y26113917D01*
X40484575Y26113909D01*
X40405526Y25976990D01*
X40405523Y25976984D01*
X40366699Y25832088D01*
X40364600Y25824256D01*
X40364600Y25666143D01*
X40405523Y25513416D01*
X40405526Y25513409D01*
X40484575Y25376490D01*
X40484581Y25376482D01*
X40596382Y25264681D01*
X40596390Y25264675D01*
X40733309Y25185626D01*
X40733316Y25185623D01*
X40886043Y25144700D01*
X41044157Y25144700D01*
X41051092Y25146558D01*
X41120942Y25144893D01*
X41170864Y25114463D01*
X43855240Y22430089D01*
X43911187Y22374141D01*
X43911195Y22374135D01*
X43979704Y22334582D01*
X43979709Y22334579D01*
X44017924Y22324339D01*
X44056138Y22314100D01*
X44135262Y22314100D01*
X44224400Y22314100D01*
X44291439Y22294415D01*
X44337194Y22241611D01*
X44348400Y22190100D01*
X44348400Y16725696D01*
X44328715Y16658657D01*
X44286399Y16618308D01*
X44280184Y16614720D01*
X44168381Y16502917D01*
X44168375Y16502909D01*
X44091526Y16369800D01*
X44089323Y16365984D01*
X44055720Y16240573D01*
X44048400Y16213256D01*
X44048400Y16055143D01*
X44089323Y15902416D01*
X44089326Y15902409D01*
X44168375Y15765490D01*
X44168381Y15765482D01*
X44280182Y15653681D01*
X44280190Y15653675D01*
X44417109Y15574626D01*
X44417116Y15574623D01*
X44569843Y15533700D01*
X44727956Y15533700D01*
X44727957Y15533700D01*
X44880684Y15574623D01*
X44880686Y15574624D01*
X44880690Y15574626D01*
X45017609Y15653675D01*
X45017617Y15653681D01*
X45129418Y15765482D01*
X45129424Y15765490D01*
X45208473Y15902409D01*
X45208477Y15902416D01*
X45249400Y16055143D01*
X45249400Y16213257D01*
X45208477Y16365984D01*
X45129420Y16502916D01*
X45017616Y16614720D01*
X45011400Y16618308D01*
X44963185Y16668875D01*
X44949400Y16725696D01*
X44949400Y19604269D01*
X45749500Y19604269D01*
X45749500Y18395730D01*
X45752353Y18365300D01*
X45752353Y18365298D01*
X45797206Y18237119D01*
X45797207Y18237117D01*
X45877850Y18127850D01*
X45987117Y18047207D01*
X46031717Y18031601D01*
X46088493Y17990879D01*
X46114239Y17925926D01*
X46100782Y17857364D01*
X46098149Y17852561D01*
X46057438Y17782046D01*
X46038523Y17749284D01*
X46003372Y17618096D01*
X45997600Y17596556D01*
X45997600Y17438443D01*
X46038523Y17285716D01*
X46038526Y17285709D01*
X46117575Y17148790D01*
X46117581Y17148782D01*
X46229382Y17036981D01*
X46229390Y17036975D01*
X46366309Y16957926D01*
X46366316Y16957923D01*
X46519049Y16916998D01*
X46526207Y16916056D01*
X46547109Y16906808D01*
X46569442Y16901950D01*
X46585847Y16889669D01*
X46590103Y16887787D01*
X46597697Y16880800D01*
X46713182Y16765314D01*
X46746666Y16703994D01*
X46749500Y16677635D01*
X46749500Y16295730D01*
X46752353Y16265300D01*
X46752353Y16265298D01*
X46797206Y16137119D01*
X46797207Y16137117D01*
X46877850Y16027850D01*
X46987117Y15947207D01*
X46987119Y15947206D01*
X47115299Y15902353D01*
X47145730Y15899500D01*
X47145734Y15899500D01*
X52254270Y15899500D01*
X52284698Y15902353D01*
X52309335Y15910974D01*
X52322992Y15911670D01*
X52335564Y15917055D01*
X52357202Y15913416D01*
X52379114Y15914535D01*
X52390980Y15907737D01*
X52404467Y15905470D01*
X52420702Y15890712D01*
X52439741Y15879806D01*
X52447144Y15866675D01*
X52456168Y15858473D01*
X52470063Y15826029D01*
X52472754Y15815988D01*
X52489601Y15753113D01*
X52489602Y15753111D01*
X52491705Y15745263D01*
X52488567Y15744422D01*
X52494391Y15690032D01*
X52463089Y15627567D01*
X52402984Y15591941D01*
X52359670Y15591158D01*
X52359431Y15588818D01*
X52249980Y15599999D01*
X49950000Y15599999D01*
X49950000Y14850000D01*
X52949999Y14850000D01*
X52949999Y14899971D01*
X52949998Y14899981D01*
X52945675Y14942296D01*
X52958444Y15010989D01*
X53006323Y15061874D01*
X53074113Y15078796D01*
X53140290Y15056382D01*
X53156714Y15042581D01*
X53674384Y14524911D01*
X53674392Y14524905D01*
X53777106Y14465604D01*
X53777115Y14465600D01*
X53801324Y14459112D01*
X53801325Y14459113D01*
X53891691Y14434900D01*
X54900818Y14434900D01*
X54967857Y14415215D01*
X55013612Y14362411D01*
X55023556Y14293253D01*
X55003117Y14240822D01*
X55000945Y14237651D01*
X54957304Y14138818D01*
X54957303Y14138813D01*
X54954500Y14114654D01*
X54954500Y13535833D01*
X54934815Y13468794D01*
X54918181Y13448152D01*
X54185229Y12715200D01*
X54123906Y12681715D01*
X54054214Y12686699D01*
X53998281Y12728571D01*
X53987068Y12746576D01*
X53953050Y12813342D01*
X53863342Y12903050D01*
X53750304Y12960646D01*
X53750302Y12960646D01*
X53750301Y12960647D01*
X53683147Y12971282D01*
X53656519Y12975500D01*
X53193482Y12975499D01*
X53099696Y12960646D01*
X52986658Y12903050D01*
X52986654Y12903046D01*
X52986652Y12903045D01*
X52896954Y12813347D01*
X52896949Y12813340D01*
X52872005Y12764386D01*
X52824030Y12713590D01*
X52756209Y12696796D01*
X52690074Y12719334D01*
X52646623Y12774050D01*
X52643135Y12783792D01*
X52618017Y12864399D01*
X52530072Y13009877D01*
X52409877Y13130072D01*
X52264395Y13218019D01*
X52264396Y13218019D01*
X52102105Y13268590D01*
X52102106Y13268590D01*
X52031591Y13274998D01*
X52031573Y13274999D01*
X52025000Y13274998D01*
X52025000Y11324999D01*
X52031563Y11325000D01*
X52031582Y11325001D01*
X52102102Y11331408D01*
X52102107Y11331409D01*
X52264396Y11381981D01*
X52409877Y11469927D01*
X52530072Y11590122D01*
X52618017Y11735600D01*
X52643135Y11816208D01*
X52681873Y11874356D01*
X52745898Y11902330D01*
X52814883Y11891249D01*
X52866926Y11844630D01*
X52872005Y11835614D01*
X52896949Y11786659D01*
X52896954Y11786652D01*
X52986652Y11696954D01*
X52986657Y11696951D01*
X52986658Y11696950D01*
X53024337Y11677751D01*
X53099698Y11639352D01*
X53193475Y11624500D01*
X53193481Y11624500D01*
X53656518Y11624500D01*
X53731390Y11636358D01*
X53800684Y11627401D01*
X53854135Y11582404D01*
X53874773Y11515652D01*
X53856047Y11448339D01*
X53838467Y11426203D01*
X53795081Y11382817D01*
X53795075Y11382809D01*
X53716786Y11247206D01*
X53716023Y11245884D01*
X53679726Y11110419D01*
X53675100Y11093156D01*
X53675100Y10935043D01*
X53716023Y10782316D01*
X53716026Y10782309D01*
X53795075Y10645390D01*
X53795081Y10645382D01*
X53906882Y10533581D01*
X53906890Y10533575D01*
X54043809Y10454526D01*
X54043816Y10454523D01*
X54196543Y10413600D01*
X54354656Y10413600D01*
X54354657Y10413600D01*
X54507384Y10454523D01*
X54507386Y10454524D01*
X54507390Y10454526D01*
X54644309Y10533575D01*
X54644317Y10533581D01*
X54756118Y10645382D01*
X54756124Y10645390D01*
X54835173Y10782309D01*
X54835177Y10782316D01*
X54876100Y10935043D01*
X54876100Y11093157D01*
X54835177Y11245884D01*
X54756120Y11382816D01*
X54644316Y11494620D01*
X54557498Y11544743D01*
X54509285Y11595307D01*
X54495500Y11652129D01*
X54495500Y12124167D01*
X54515185Y12191206D01*
X54531819Y12211848D01*
X55044039Y12724068D01*
X55105362Y12757553D01*
X55166754Y12753162D01*
X55167187Y12754752D01*
X55176187Y12752303D01*
X55200348Y12749500D01*
X55200349Y12749500D01*
X55699642Y12749500D01*
X55699651Y12749501D01*
X55723813Y12752303D01*
X55723814Y12752303D01*
X55822654Y12795946D01*
X55887819Y12861111D01*
X55949142Y12894596D01*
X56018834Y12889612D01*
X56074767Y12847740D01*
X56099184Y12782276D01*
X56099500Y12773430D01*
X56099500Y11916710D01*
X56079815Y11849671D01*
X56036022Y11811724D01*
X56036828Y11810548D01*
X56027351Y11804055D01*
X56027347Y11804054D01*
X55958896Y11735603D01*
X55950945Y11727652D01*
X55907304Y11628818D01*
X55907303Y11628813D01*
X55904500Y11604654D01*
X55904500Y10485357D01*
X55904501Y10485348D01*
X55907303Y10461186D01*
X55907303Y10461185D01*
X55950946Y10362345D01*
X56027345Y10285946D01*
X56126181Y10242304D01*
X56126186Y10242303D01*
X56150348Y10239500D01*
X56150349Y10239500D01*
X56649642Y10239500D01*
X56649651Y10239501D01*
X56673813Y10242303D01*
X56673814Y10242303D01*
X56772654Y10285946D01*
X56849053Y10362345D01*
X56850093Y10364699D01*
X56867179Y10403395D01*
X56892695Y10461181D01*
X56892696Y10461185D01*
X56892697Y10461187D01*
X56895500Y10485349D01*
X56895499Y11604650D01*
X56892697Y11628813D01*
X56849054Y11727653D01*
X56772653Y11804054D01*
X56772646Y11804057D01*
X56763172Y11810548D01*
X56764137Y11811957D01*
X56721044Y11848352D01*
X56700510Y11915136D01*
X56700500Y11916710D01*
X56700500Y12399429D01*
X56720185Y12466468D01*
X56772989Y12512223D01*
X56842147Y12522167D01*
X56871952Y12513991D01*
X56989873Y12465147D01*
X57100000Y12450648D01*
X57100000Y12450650D01*
X57600000Y12450650D01*
X57710126Y12465148D01*
X57710131Y12465149D01*
X57853286Y12524444D01*
X57976222Y12618777D01*
X58070555Y12741713D01*
X58129850Y12884867D01*
X58129851Y12884871D01*
X58144999Y12999921D01*
X58145000Y12999935D01*
X58145000Y13305000D01*
X57600000Y13305000D01*
X57600000Y12450650D01*
X57100000Y12450650D01*
X57100000Y13805000D01*
X57600000Y13805000D01*
X58144999Y13805000D01*
X58144999Y14110070D01*
X58129852Y14225126D01*
X58129850Y14225131D01*
X58070555Y14368286D01*
X57976222Y14491222D01*
X57853286Y14585555D01*
X57710132Y14644850D01*
X57710128Y14644851D01*
X57600000Y14659350D01*
X57600000Y13805000D01*
X57100000Y13805000D01*
X57100000Y14659349D01*
X57099999Y14659349D01*
X56989874Y14644853D01*
X56989871Y14644852D01*
X56871953Y14596009D01*
X56802483Y14588540D01*
X56740004Y14619815D01*
X56704352Y14679904D01*
X56700500Y14710570D01*
X56700500Y15072767D01*
X56720185Y15139806D01*
X56736819Y15160448D01*
X57780860Y16204489D01*
X57785921Y16213255D01*
X57801761Y16240691D01*
X57801762Y16240692D01*
X57820418Y16273005D01*
X57820420Y16273008D01*
X57824121Y16286819D01*
X57840900Y16349438D01*
X57840900Y19713962D01*
X57837704Y19725889D01*
X57820422Y19790388D01*
X57780860Y19858911D01*
X57581411Y20058360D01*
X57560730Y20070300D01*
X57512889Y20097921D01*
X57436462Y20118400D01*
X55312462Y20118400D01*
X55233338Y20118400D01*
X55156912Y20097922D01*
X55156910Y20097921D01*
X55151697Y20094911D01*
X55088389Y20058360D01*
X55088386Y20058357D01*
X54761848Y19731819D01*
X54700525Y19698334D01*
X54674167Y19695500D01*
X54414231Y19695500D01*
X54347192Y19715185D01*
X54301437Y19767989D01*
X54291493Y19837147D01*
X54320518Y19900703D01*
X54352232Y19926887D01*
X54364509Y19933975D01*
X54364517Y19933981D01*
X54476318Y20045782D01*
X54476324Y20045790D01*
X54555373Y20182709D01*
X54555377Y20182716D01*
X54596300Y20335443D01*
X54596300Y20493557D01*
X54555377Y20646284D01*
X54476320Y20783216D01*
X54364516Y20895020D01*
X54358300Y20898608D01*
X54310085Y20949175D01*
X54296300Y21005996D01*
X54296300Y23243760D01*
X54296300Y23243762D01*
X54275822Y23320188D01*
X54236260Y23388711D01*
X54036819Y23588152D01*
X54003334Y23649475D01*
X54000500Y23675833D01*
X54000500Y26454269D01*
X53997646Y26484699D01*
X53997646Y26484701D01*
X53964019Y26580800D01*
X53952793Y26612882D01*
X53872150Y26722150D01*
X53762882Y26802793D01*
X53666418Y26836547D01*
X53634700Y26847646D01*
X53604270Y26850500D01*
X53604266Y26850500D01*
X52995734Y26850500D01*
X52995730Y26850500D01*
X52965300Y26847646D01*
X52965298Y26847646D01*
X52869163Y26814006D01*
X52837118Y26802793D01*
X52727850Y26722150D01*
X52653925Y26621985D01*
X52647207Y26612882D01*
X52647206Y26612880D01*
X52602353Y26484701D01*
X52602353Y26484699D01*
X52599500Y26454269D01*
X52599500Y21345730D01*
X52602353Y21315300D01*
X52602353Y21315298D01*
X52647206Y21187119D01*
X52647207Y21187117D01*
X52727850Y21077850D01*
X52837117Y20997207D01*
X52837119Y20997206D01*
X52965299Y20952353D01*
X52995730Y20949500D01*
X53396510Y20949500D01*
X53463549Y20929815D01*
X53509304Y20877011D01*
X53519248Y20807853D01*
X53503897Y20763500D01*
X53493794Y20746000D01*
X53436223Y20646284D01*
X53413629Y20561960D01*
X53395300Y20493556D01*
X53395300Y20335443D01*
X53436223Y20182716D01*
X53436226Y20182709D01*
X53515275Y20045790D01*
X53515281Y20045782D01*
X53627082Y19933981D01*
X53627090Y19933975D01*
X53639368Y19926887D01*
X53687584Y19876321D01*
X53700808Y19807714D01*
X53674840Y19742849D01*
X53617926Y19702320D01*
X53577369Y19695500D01*
X53380249Y19695500D01*
X53380247Y19695499D01*
X53321770Y19683868D01*
X53321769Y19683867D01*
X53255447Y19639552D01*
X53211132Y19573230D01*
X53211131Y19573229D01*
X53199500Y19514752D01*
X53199500Y18006265D01*
X53179815Y17939226D01*
X53127011Y17893471D01*
X53057853Y17883527D01*
X52994297Y17912552D01*
X52987819Y17918584D01*
X52611819Y18294584D01*
X52578334Y18355907D01*
X52575500Y18382265D01*
X52575500Y18683493D01*
X52559720Y18783121D01*
X52559719Y18783121D01*
X52559719Y18783126D01*
X52498528Y18903220D01*
X52479574Y18922173D01*
X52446090Y18983494D01*
X52451073Y19053185D01*
X52492944Y19109120D01*
X52502159Y19115392D01*
X52602728Y19177424D01*
X52602732Y19177427D01*
X52722572Y19297267D01*
X52722575Y19297271D01*
X52811542Y19441507D01*
X52811547Y19441518D01*
X52864855Y19602393D01*
X52874999Y19701677D01*
X52875000Y19701690D01*
X52875000Y19725000D01*
X50925001Y19725000D01*
X50925001Y19701677D01*
X50935144Y19602392D01*
X50988452Y19441518D01*
X50988457Y19441507D01*
X51077424Y19297271D01*
X51077427Y19297267D01*
X51197268Y19177426D01*
X51297841Y19115392D01*
X51307732Y19104395D01*
X51320692Y19097267D01*
X51330625Y19078941D01*
X51344565Y19063444D01*
X51346940Y19048844D01*
X51353989Y19035842D01*
X51352438Y19015054D01*
X51355786Y18994481D01*
X51349802Y18979713D01*
X51348792Y18966166D01*
X51336740Y18947477D01*
X51331783Y18935241D01*
X51326559Y18928307D01*
X51301472Y18903220D01*
X51288542Y18877845D01*
X51282020Y18869187D01*
X51262336Y18854545D01*
X51245489Y18836708D01*
X51234279Y18833676D01*
X51225958Y18827486D01*
X51206461Y18826151D01*
X51182980Y18819800D01*
X50390231Y18819800D01*
X50323192Y18839485D01*
X50314743Y18845425D01*
X50309021Y18849814D01*
X50309016Y18849820D01*
X50172084Y18928877D01*
X50019357Y18969800D01*
X49861243Y18969800D01*
X49708516Y18928877D01*
X49708509Y18928873D01*
X49571590Y18849824D01*
X49571586Y18849821D01*
X49571584Y18849820D01*
X49459780Y18738016D01*
X49386207Y18610581D01*
X49381888Y18603101D01*
X49331321Y18554885D01*
X49262714Y18541661D01*
X49197849Y18567629D01*
X49157320Y18624543D01*
X49150500Y18665100D01*
X49150500Y19604269D01*
X49147646Y19634699D01*
X49147646Y19634701D01*
X49116048Y19725000D01*
X49102793Y19762882D01*
X49022150Y19872150D01*
X48912882Y19952793D01*
X48827426Y19982695D01*
X48784700Y19997646D01*
X48754270Y20000500D01*
X48754266Y20000500D01*
X46145734Y20000500D01*
X46145730Y20000500D01*
X46115300Y19997646D01*
X46115298Y19997646D01*
X46044183Y19972761D01*
X45987118Y19952793D01*
X45877850Y19872150D01*
X45817508Y19790389D01*
X45797207Y19762882D01*
X45797206Y19762880D01*
X45752353Y19634701D01*
X45752353Y19634699D01*
X45749500Y19604269D01*
X44949400Y19604269D01*
X44949400Y20649999D01*
X47550000Y20649999D01*
X47599970Y20650000D01*
X47599988Y20650001D01*
X47702697Y20660494D01*
X47869119Y20715641D01*
X47869124Y20715643D01*
X48018345Y20807684D01*
X48142315Y20931654D01*
X48234356Y21080875D01*
X48234358Y21080880D01*
X48289505Y21247302D01*
X48289506Y21247309D01*
X48299999Y21350013D01*
X48300000Y21350026D01*
X48300000Y23650000D01*
X47550000Y23650000D01*
X47550000Y20649999D01*
X44949400Y20649999D01*
X44949400Y22438767D01*
X44969085Y22505806D01*
X44985719Y22526448D01*
X46088319Y23629048D01*
X46149642Y23662533D01*
X46219334Y23657549D01*
X46275267Y23615677D01*
X46299684Y23550213D01*
X46300000Y23541367D01*
X46300000Y21350028D01*
X46300001Y21350012D01*
X46310494Y21247302D01*
X46365641Y21080880D01*
X46365643Y21080875D01*
X46457684Y20931654D01*
X46581654Y20807684D01*
X46730875Y20715643D01*
X46730880Y20715641D01*
X46897302Y20660494D01*
X46897309Y20660493D01*
X47000013Y20650000D01*
X47050000Y20650000D01*
X47050000Y23776000D01*
X47069685Y23843039D01*
X47122489Y23888794D01*
X47174000Y23900000D01*
X47300000Y23900000D01*
X47300000Y24026000D01*
X47319685Y24093039D01*
X47372489Y24138794D01*
X47424000Y24150000D01*
X48299999Y24150000D01*
X48299999Y25711267D01*
X48306237Y25732512D01*
X48307817Y25754601D01*
X48315889Y25765384D01*
X48319684Y25778306D01*
X48336417Y25792805D01*
X48349689Y25810534D01*
X48362309Y25815241D01*
X48372488Y25824061D01*
X48394405Y25827212D01*
X48415153Y25834951D01*
X48428313Y25832088D01*
X48441646Y25834005D01*
X48461789Y25824805D01*
X48483426Y25820099D01*
X48501151Y25806830D01*
X48505202Y25804980D01*
X48511680Y25798948D01*
X48563181Y25747447D01*
X48596666Y25686124D01*
X48599500Y25659766D01*
X48599500Y21345730D01*
X48602353Y21315300D01*
X48602353Y21315298D01*
X48647206Y21187119D01*
X48647207Y21187117D01*
X48727850Y21077850D01*
X48837117Y20997207D01*
X48837119Y20997206D01*
X48965299Y20952353D01*
X48995730Y20949500D01*
X49526205Y20949500D01*
X49593244Y20929815D01*
X49638999Y20877011D01*
X49647065Y20823184D01*
X49649900Y20823184D01*
X49649900Y20656943D01*
X49690823Y20504216D01*
X49690826Y20504209D01*
X49769875Y20367290D01*
X49769881Y20367282D01*
X49881682Y20255481D01*
X49881690Y20255475D01*
X50018609Y20176426D01*
X50018616Y20176423D01*
X50171343Y20135500D01*
X50329456Y20135500D01*
X50329457Y20135500D01*
X50482184Y20176423D01*
X50482186Y20176424D01*
X50482190Y20176426D01*
X50619109Y20255475D01*
X50619117Y20255481D01*
X50714157Y20350521D01*
X50775480Y20384006D01*
X50845172Y20379022D01*
X50901105Y20337150D01*
X50925522Y20271686D01*
X50925197Y20250243D01*
X50925000Y20248317D01*
X50925000Y20225000D01*
X51650000Y20225000D01*
X51650000Y20869725D01*
X51666230Y20924998D01*
X52150000Y20924998D01*
X52150000Y20225000D01*
X52874999Y20225000D01*
X52874999Y20248307D01*
X52874998Y20248322D01*
X52864855Y20347607D01*
X52811547Y20508481D01*
X52811542Y20508492D01*
X52722575Y20652728D01*
X52722572Y20652732D01*
X52602732Y20772572D01*
X52602728Y20772575D01*
X52458492Y20861542D01*
X52458481Y20861547D01*
X52297606Y20914855D01*
X52198316Y20924999D01*
X52150000Y20924998D01*
X51666230Y20924998D01*
X51669685Y20936764D01*
X51707957Y20974674D01*
X51719818Y20982138D01*
X51762882Y20997207D01*
X51872150Y21077850D01*
X51952793Y21187118D01*
X51964006Y21219163D01*
X51997646Y21315298D01*
X51997646Y21315300D01*
X52000500Y21345730D01*
X52000500Y26454269D01*
X51997646Y26484699D01*
X51997646Y26484701D01*
X51964019Y26580800D01*
X51952793Y26612882D01*
X51872150Y26722150D01*
X51762882Y26802793D01*
X51666418Y26836547D01*
X51634700Y26847646D01*
X51604270Y26850500D01*
X51604266Y26850500D01*
X50995734Y26850500D01*
X50995730Y26850500D01*
X50965300Y26847646D01*
X50965298Y26847646D01*
X50869163Y26814006D01*
X50837118Y26802793D01*
X50727850Y26722150D01*
X50727849Y26722149D01*
X50727848Y26722148D01*
X50699683Y26683985D01*
X50644036Y26641734D01*
X50574380Y26636275D01*
X50512830Y26669342D01*
X50512445Y26669724D01*
X49727901Y27454269D01*
X54699500Y27454269D01*
X54699500Y24845730D01*
X54702353Y24815300D01*
X54702353Y24815298D01*
X54747206Y24687119D01*
X54747207Y24687117D01*
X54827850Y24577850D01*
X54937117Y24497207D01*
X54937119Y24497206D01*
X55065299Y24452353D01*
X55095730Y24449500D01*
X55095734Y24449500D01*
X56304270Y24449500D01*
X56334699Y24452353D01*
X56334701Y24452353D01*
X56462880Y24497206D01*
X56462882Y24497207D01*
X56523179Y24541708D01*
X56572150Y24577850D01*
X56652793Y24687118D01*
X56664006Y24719163D01*
X56697646Y24815298D01*
X56697646Y24815300D01*
X56700500Y24845730D01*
X56700500Y27454269D01*
X56697646Y27484699D01*
X56697646Y27484701D01*
X56663249Y27582999D01*
X56652793Y27612882D01*
X56572150Y27722150D01*
X56462882Y27802793D01*
X56376195Y27833126D01*
X56334700Y27847646D01*
X56304270Y27850500D01*
X56304266Y27850500D01*
X55095734Y27850500D01*
X55095730Y27850500D01*
X55065300Y27847646D01*
X55065298Y27847646D01*
X54969163Y27814006D01*
X54937118Y27802793D01*
X54827850Y27722150D01*
X54785270Y27664456D01*
X54747207Y27612882D01*
X54747206Y27612880D01*
X54702353Y27484701D01*
X54702353Y27484699D01*
X54699500Y27454269D01*
X49727901Y27454269D01*
X48996211Y28185960D01*
X48994290Y28187068D01*
X48956631Y28208812D01*
X48956622Y28208815D01*
X48956614Y28208821D01*
X48927689Y28225521D01*
X48851262Y28246000D01*
X48851260Y28246000D01*
X47952396Y28246000D01*
X47885357Y28265685D01*
X47861071Y28286121D01*
X47851834Y28296177D01*
X47841420Y28314216D01*
X47765952Y28389683D01*
X47764173Y28391621D01*
X47749863Y28420698D01*
X47734332Y28449142D01*
X47734526Y28451863D01*
X47733322Y28454311D01*
X47737004Y28486506D01*
X47739316Y28518834D01*
X47740951Y28521018D01*
X47741261Y28523728D01*
X47761766Y28548823D01*
X47781188Y28574767D01*
X47783743Y28575720D01*
X47785470Y28577833D01*
X47816288Y28587858D01*
X47846652Y28599184D01*
X47851649Y28599362D01*
X47851912Y28599448D01*
X47852167Y28599381D01*
X47855498Y28599500D01*
X56960118Y28599500D01*
X56995572Y28599500D01*
X57004417Y28599184D01*
X57023369Y28597828D01*
X57218788Y28583851D01*
X57236299Y28581333D01*
X57441960Y28536595D01*
X57458936Y28531611D01*
X57656150Y28458053D01*
X57672242Y28450703D01*
X57856968Y28349836D01*
X57871853Y28340271D01*
X58040353Y28214133D01*
X58053723Y28202547D01*
X58202547Y28053723D01*
X58214133Y28040353D01*
X58340271Y27871853D01*
X58349836Y27856968D01*
X58450703Y27672242D01*
X58458053Y27656150D01*
X58531611Y27458936D01*
X58536595Y27441960D01*
X58581333Y27236299D01*
X58583851Y27218788D01*
X58599184Y27004419D01*
X58599500Y26995572D01*
X58599500Y6146092D01*
X58598903Y6133938D01*
X58585335Y5996180D01*
X58580593Y5972340D01*
X58552630Y5880158D01*
X58542186Y5845728D01*
X58532883Y5823271D01*
X58470517Y5706593D01*
X58457012Y5686381D01*
X58373079Y5584108D01*
X58355891Y5566920D01*
X58287510Y5510801D01*
X58253618Y5482987D01*
X58233407Y5469483D01*
X58116725Y5407114D01*
X58094277Y5397815D01*
X57967652Y5359404D01*
X57943824Y5354665D01*
X57816051Y5342080D01*
X57806061Y5341097D01*
X57793908Y5340500D01*
X55624500Y5340500D01*
X55557461Y5360185D01*
X55511706Y5412989D01*
X55500500Y5464500D01*
X55500500Y9069750D01*
X55500499Y9069752D01*
X55488868Y9128229D01*
X55488867Y9128230D01*
X55488867Y9128231D01*
X55444552Y9194552D01*
X55378231Y9238867D01*
X55378229Y9238867D01*
X55378229Y9238868D01*
X55334352Y9247595D01*
X55319751Y9250499D01*
X55319751Y9250500D01*
X55319748Y9250500D01*
X53580252Y9250500D01*
X53580249Y9250500D01*
X53580247Y9250499D01*
X53521770Y9238868D01*
X53521769Y9238867D01*
X53455447Y9194552D01*
X53411132Y9128230D01*
X53411131Y9128229D01*
X53399500Y9069752D01*
X53399500Y7885265D01*
X53379815Y7818226D01*
X53327011Y7772471D01*
X53257853Y7762527D01*
X53194297Y7791552D01*
X53187819Y7797584D01*
X52156613Y8828790D01*
X51103014Y9882389D01*
X51000287Y9941699D01*
X50976073Y9948186D01*
X50885709Y9972400D01*
X50885708Y9972400D01*
X43628483Y9972400D01*
X43561444Y9992085D01*
X43515689Y10044889D01*
X43508708Y10064307D01*
X43501399Y10091586D01*
X43460753Y10161987D01*
X43442089Y10194314D01*
X42503014Y11133389D01*
X42400287Y11192699D01*
X42364253Y11202354D01*
X42285709Y11223400D01*
X42285707Y11223400D01*
X41169565Y11223400D01*
X41102526Y11243085D01*
X41081884Y11259719D01*
X39537334Y12804269D01*
X45749500Y12804269D01*
X45749500Y11595730D01*
X45752353Y11565300D01*
X45752353Y11565298D01*
X45797206Y11437119D01*
X45797207Y11437117D01*
X45877850Y11327850D01*
X45987117Y11247207D01*
X45987119Y11247206D01*
X46115299Y11202353D01*
X46145730Y11199500D01*
X46145734Y11199500D01*
X48754270Y11199500D01*
X48784699Y11202353D01*
X48784701Y11202353D01*
X48912880Y11247206D01*
X48912882Y11247207D01*
X48929835Y11259719D01*
X49022150Y11327850D01*
X49102793Y11437118D01*
X49114273Y11469927D01*
X49147646Y11565298D01*
X49147646Y11565300D01*
X49150500Y11595730D01*
X49150500Y11968417D01*
X50875001Y11968417D01*
X50881408Y11897897D01*
X50881409Y11897892D01*
X50931981Y11735603D01*
X51019927Y11590122D01*
X51140122Y11469927D01*
X51285604Y11381980D01*
X51285603Y11381980D01*
X51447894Y11331409D01*
X51447893Y11331409D01*
X51518428Y11325000D01*
X51525000Y11325000D01*
X51525000Y12050000D01*
X50875001Y12050000D01*
X50875001Y11968417D01*
X49150500Y11968417D01*
X49150500Y12631572D01*
X50875000Y12631572D01*
X50875000Y12550000D01*
X51525000Y12550000D01*
X51525000Y13274999D01*
X51518417Y13274999D01*
X51447897Y13268591D01*
X51447892Y13268590D01*
X51285603Y13218018D01*
X51140122Y13130072D01*
X51019927Y13009877D01*
X50931980Y12864395D01*
X50881409Y12702106D01*
X50875000Y12631572D01*
X49150500Y12631572D01*
X49150500Y12804269D01*
X49147646Y12834699D01*
X49147646Y12834701D01*
X49108042Y12947881D01*
X49102793Y12962882D01*
X49022150Y13072150D01*
X48912882Y13152793D01*
X48815524Y13186860D01*
X48784700Y13197646D01*
X48754270Y13200500D01*
X48754266Y13200500D01*
X46145734Y13200500D01*
X46145730Y13200500D01*
X46115300Y13197646D01*
X46115298Y13197646D01*
X46019163Y13164006D01*
X45987118Y13152793D01*
X45877850Y13072150D01*
X45806519Y12975499D01*
X45797207Y12962882D01*
X45797206Y12962880D01*
X45752353Y12834701D01*
X45752353Y12834699D01*
X45749500Y12804269D01*
X39537334Y12804269D01*
X38041590Y14300013D01*
X46450001Y14300013D01*
X46460494Y14197302D01*
X46515641Y14030880D01*
X46515643Y14030875D01*
X46607684Y13881654D01*
X46731654Y13757684D01*
X46880875Y13665643D01*
X46880880Y13665641D01*
X47047302Y13610494D01*
X47047309Y13610493D01*
X47150013Y13600000D01*
X49450000Y13600000D01*
X49950000Y13600000D01*
X52249971Y13600000D01*
X52249987Y13600001D01*
X52352697Y13610494D01*
X52519119Y13665641D01*
X52519124Y13665643D01*
X52668345Y13757684D01*
X52792315Y13881654D01*
X52884356Y14030875D01*
X52884358Y14030880D01*
X52939505Y14197302D01*
X52939506Y14197309D01*
X52949999Y14300013D01*
X52950000Y14300026D01*
X52950000Y14350000D01*
X49950000Y14350000D01*
X49950000Y13600000D01*
X49450000Y13600000D01*
X49450000Y14350000D01*
X46450001Y14350000D01*
X46450001Y14300013D01*
X38041590Y14300013D01*
X37526148Y14815455D01*
X37441617Y14899986D01*
X46450000Y14899986D01*
X46450000Y14850000D01*
X49450000Y14850000D01*
X49450000Y15599999D01*
X47150028Y15599999D01*
X47150013Y15599998D01*
X47047302Y15589505D01*
X46880880Y15534358D01*
X46880875Y15534356D01*
X46731654Y15442315D01*
X46607684Y15318345D01*
X46515643Y15169124D01*
X46515641Y15169119D01*
X46460494Y15002697D01*
X46460493Y15002690D01*
X46450000Y14899986D01*
X37441617Y14899986D01*
X31837387Y20504216D01*
X26145914Y26195689D01*
X26043187Y26254999D01*
X26018973Y26261486D01*
X25928609Y26285700D01*
X24311691Y26285700D01*
X24197114Y26254999D01*
X24094387Y26195689D01*
X24094385Y26195687D01*
X24087349Y26191625D01*
X24086589Y26192939D01*
X24029913Y26171030D01*
X24019598Y26170600D01*
X23491857Y26170600D01*
X23403543Y26170600D01*
X23380073Y26164311D01*
X23318240Y26147743D01*
X23292350Y26132795D01*
X23281640Y26128998D01*
X23257650Y26127673D01*
X23234304Y26122009D01*
X23223398Y26125783D01*
X23211877Y26125147D01*
X23190982Y26137001D01*
X23168276Y26144859D01*
X23161141Y26153930D01*
X23151106Y26159624D01*
X23139937Y26180892D01*
X23125084Y26199779D01*
X23122221Y26214627D01*
X23118622Y26221483D01*
X23119335Y26229602D01*
X23116200Y26245869D01*
X23116200Y26483707D01*
X23116200Y26483709D01*
X23090184Y26580800D01*
X23085499Y26598287D01*
X23026189Y26701014D01*
X21712214Y28014989D01*
X21609487Y28074299D01*
X21585273Y28080786D01*
X21494909Y28105000D01*
X21494908Y28105000D01*
X19017290Y28105000D01*
X18992870Y28108867D01*
X18992764Y28108193D01*
X18883493Y28125500D01*
X18883488Y28125500D01*
X18316512Y28125500D01*
X18316507Y28125500D01*
X18216878Y28109720D01*
X18216876Y28109719D01*
X18216874Y28109719D01*
X18096780Y28048528D01*
X18096778Y28048526D01*
X18096774Y28048523D01*
X18001476Y27953225D01*
X18001473Y27953221D01*
X18001472Y27953220D01*
X17940281Y27833126D01*
X17940280Y27833124D01*
X17940279Y27833121D01*
X17924500Y27733493D01*
X17924500Y27216506D01*
X17940279Y27116878D01*
X17940280Y27116874D01*
X17940281Y27116874D01*
X17976115Y27046545D01*
X18001473Y26996778D01*
X18020426Y26977825D01*
X18053910Y26916501D01*
X18048924Y26846809D01*
X18007052Y26790876D01*
X17997840Y26784606D01*
X17897266Y26722571D01*
X17777427Y26602732D01*
X17777424Y26602728D01*
X17688457Y26458492D01*
X17688452Y26458481D01*
X17635144Y26297606D01*
X17625000Y26198322D01*
X17625000Y26175000D01*
X18476000Y26175000D01*
X18543039Y26155315D01*
X18588794Y26102511D01*
X18600000Y26051000D01*
X18600000Y25925000D01*
X18726000Y25925000D01*
X18793039Y25905315D01*
X18838794Y25852511D01*
X18850000Y25801000D01*
X18850000Y24974999D01*
X18898306Y24975000D01*
X18898324Y24975001D01*
X18997607Y24985144D01*
X19158481Y25038452D01*
X19158492Y25038457D01*
X19302728Y25127424D01*
X19302732Y25127427D01*
X19375835Y25200530D01*
X19437158Y25234015D01*
X19506850Y25229031D01*
X19551197Y25200531D01*
X19605171Y25146558D01*
X19742189Y25009540D01*
X19742191Y25009538D01*
X19747936Y25003794D01*
X19746141Y25001999D01*
X19779857Y24955801D01*
X19783994Y24886054D01*
X19749765Y24825143D01*
X19737467Y24814617D01*
X19637624Y24739875D01*
X19550064Y24622909D01*
X19550063Y24622907D01*
X19499006Y24486017D01*
X19499006Y24486016D01*
X19492500Y24425516D01*
X19492500Y24385000D01*
X21612500Y24385000D01*
X21612500Y24425499D01*
X21612499Y24425516D01*
X21605993Y24486016D01*
X21605992Y24486021D01*
X21558972Y24612086D01*
X21553987Y24681777D01*
X21587469Y24743098D01*
X22044060Y25199689D01*
X22055889Y25220178D01*
X22101277Y25265566D01*
X22172316Y25306580D01*
X22284120Y25418384D01*
X22284122Y25418387D01*
X22293190Y25434093D01*
X22294808Y25435636D01*
X22295411Y25437789D01*
X22319968Y25459626D01*
X22343757Y25482309D01*
X22345951Y25482732D01*
X22347623Y25484218D01*
X22380086Y25489310D01*
X22412364Y25495532D01*
X22415132Y25494809D01*
X22416649Y25495047D01*
X22424791Y25492287D01*
X22450638Y25485539D01*
X22456775Y25482830D01*
X22491814Y25462601D01*
X22519322Y25455230D01*
X22528061Y25451374D01*
X22547754Y25434746D01*
X22569755Y25421336D01*
X22574007Y25412580D01*
X22581447Y25406300D01*
X22589024Y25381666D01*
X22600283Y25358489D01*
X22601821Y25340065D01*
X22601990Y25339518D01*
X22601895Y25339180D01*
X22602000Y25337929D01*
X22602000Y25102556D01*
X22602547Y25099808D01*
X22612354Y25050500D01*
X22616486Y25029730D01*
X22613689Y25029173D01*
X22619189Y24977969D01*
X22618426Y24974096D01*
X22615495Y24960375D01*
X22614103Y24958292D01*
X22602000Y24897447D01*
X22602000Y24897200D01*
X22601098Y24892978D01*
X22584868Y24862988D01*
X22569066Y24832780D01*
X22568020Y24831857D01*
X22567843Y24831530D01*
X22567326Y24831245D01*
X22554144Y24819615D01*
X22447623Y24739875D01*
X22360064Y24622909D01*
X22360063Y24622907D01*
X22309006Y24486017D01*
X22309006Y24486016D01*
X22302500Y24425516D01*
X22302500Y24385000D01*
X23238500Y24385000D01*
X23247185Y24382449D01*
X23256147Y24383738D01*
X23280187Y24372759D01*
X23305539Y24365315D01*
X23311466Y24358474D01*
X23319703Y24354713D01*
X23333992Y24332478D01*
X23351294Y24312511D01*
X23353581Y24301996D01*
X23357477Y24295935D01*
X23362500Y24261000D01*
X23362500Y24250000D01*
X23373500Y24250000D01*
X23440539Y24230315D01*
X23486294Y24177511D01*
X23497500Y24126000D01*
X23497500Y23615000D01*
X23963016Y23615000D01*
X24023516Y23621506D01*
X24023517Y23621506D01*
X24160407Y23672563D01*
X24160409Y23672564D01*
X24277376Y23760124D01*
X24349430Y23856377D01*
X24405363Y23898249D01*
X24475055Y23903233D01*
X24536378Y23869748D01*
X34771963Y13634164D01*
X34805448Y13572841D01*
X34804058Y13514392D01*
X34802200Y13507457D01*
X34802200Y13349343D01*
X34843123Y13196616D01*
X34843126Y13196609D01*
X34922175Y13059690D01*
X34922181Y13059682D01*
X35033982Y12947881D01*
X35033990Y12947875D01*
X35170909Y12868826D01*
X35170916Y12868823D01*
X35323643Y12827900D01*
X35481756Y12827900D01*
X35481757Y12827900D01*
X35634484Y12868823D01*
X35634486Y12868824D01*
X35634490Y12868826D01*
X35771409Y12947875D01*
X35771417Y12947881D01*
X35883218Y13059682D01*
X35883224Y13059690D01*
X35962273Y13196609D01*
X35962277Y13196617D01*
X35962553Y13197646D01*
X35972440Y13234546D01*
X36008803Y13294205D01*
X36071649Y13324735D01*
X36141025Y13316441D01*
X36179895Y13290133D01*
X36595402Y12874626D01*
X36628887Y12813303D01*
X36623903Y12743611D01*
X36585595Y12691802D01*
X36585631Y12691767D01*
X36585397Y12691533D01*
X36583204Y12688567D01*
X36579886Y12686021D01*
X36579884Y12686020D01*
X36579882Y12686018D01*
X36468081Y12574217D01*
X36468075Y12574209D01*
X36389026Y12437290D01*
X36389023Y12437284D01*
X36359371Y12326619D01*
X36348100Y12284556D01*
X36348100Y12126443D01*
X36389023Y11973716D01*
X36389026Y11973709D01*
X36468075Y11836790D01*
X36468081Y11836782D01*
X36579882Y11724981D01*
X36579890Y11724975D01*
X36716809Y11645926D01*
X36716816Y11645923D01*
X36869543Y11605000D01*
X37027656Y11605000D01*
X37027657Y11605000D01*
X37180384Y11645923D01*
X37180386Y11645924D01*
X37180390Y11645926D01*
X37317309Y11724975D01*
X37317317Y11724981D01*
X37429118Y11836782D01*
X37429124Y11836790D01*
X37508173Y11973709D01*
X37508177Y11973716D01*
X37549100Y12126443D01*
X37549100Y12284557D01*
X37508177Y12437284D01*
X37429120Y12574216D01*
X37317316Y12686020D01*
X37311100Y12689608D01*
X37262885Y12740175D01*
X37249100Y12796996D01*
X37249100Y12985960D01*
X37249100Y12985962D01*
X37228621Y13062389D01*
X37189060Y13130911D01*
X37133111Y13186860D01*
X25146952Y25173019D01*
X25113467Y25234342D01*
X25118451Y25304034D01*
X25160323Y25359967D01*
X25225787Y25384384D01*
X25234633Y25384700D01*
X25631335Y25384700D01*
X25698374Y25365015D01*
X25719016Y25348381D01*
X40654983Y10412413D01*
X40654986Y10412411D01*
X40757713Y10353100D01*
X40757716Y10353099D01*
X40781924Y10346612D01*
X40781925Y10346613D01*
X40872291Y10322400D01*
X41988435Y10322400D01*
X42055474Y10302715D01*
X42076116Y10286081D01*
X42594781Y9767416D01*
X42609484Y9740488D01*
X42626077Y9714670D01*
X42626968Y9708469D01*
X42628266Y9706093D01*
X42631100Y9679735D01*
X42631100Y9563701D01*
X42611415Y9496662D01*
X42558611Y9450907D01*
X42494496Y9440343D01*
X42399979Y9449999D01*
X42350000Y9449998D01*
X42350000Y6324000D01*
X42330315Y6256961D01*
X42277511Y6211206D01*
X42226000Y6200000D01*
X42100000Y6200000D01*
X42100000Y6074000D01*
X42080315Y6006961D01*
X42027511Y5961206D01*
X41976000Y5950000D01*
X41100001Y5950000D01*
X41100001Y3650013D01*
X41110494Y3547302D01*
X41165641Y3380880D01*
X41165643Y3380875D01*
X41257684Y3231654D01*
X41381654Y3107684D01*
X41530875Y3015643D01*
X41530880Y3015641D01*
X41697302Y2960494D01*
X41697309Y2960493D01*
X41800013Y2950000D01*
X41824002Y2950000D01*
X41891041Y2930315D01*
X41936796Y2877511D01*
X41946740Y2808353D01*
X41917715Y2744797D01*
X41911683Y2738319D01*
X41871581Y2698217D01*
X41871575Y2698209D01*
X41806111Y2584820D01*
X41792523Y2561284D01*
X41769484Y2475299D01*
X41751600Y2408556D01*
X41751600Y2250443D01*
X41792523Y2097716D01*
X41792526Y2097709D01*
X41871575Y1960790D01*
X41871581Y1960782D01*
X41983382Y1848981D01*
X41983390Y1848975D01*
X42120309Y1769926D01*
X42120316Y1769923D01*
X42273043Y1729000D01*
X42431156Y1729000D01*
X42431157Y1729000D01*
X42583884Y1769923D01*
X42583886Y1769924D01*
X42583890Y1769926D01*
X42720809Y1848975D01*
X42720817Y1848981D01*
X42832618Y1960782D01*
X42832624Y1960790D01*
X42911673Y2097709D01*
X42911677Y2097716D01*
X42952600Y2250443D01*
X42952600Y2250444D01*
X42953542Y2257600D01*
X42981808Y2321496D01*
X42988800Y2329096D01*
X43303878Y2644174D01*
X43365201Y2677659D01*
X43434893Y2672675D01*
X43490826Y2630803D01*
X43508600Y2597449D01*
X43547207Y2487117D01*
X43627850Y2377850D01*
X43737117Y2297207D01*
X43737119Y2297206D01*
X43865299Y2252353D01*
X43895730Y2249500D01*
X43895734Y2249500D01*
X45104270Y2249500D01*
X45134699Y2252353D01*
X45134701Y2252353D01*
X45262880Y2297206D01*
X45262882Y2297207D01*
X45372150Y2377850D01*
X45452793Y2487118D01*
X45469283Y2534244D01*
X45497646Y2615298D01*
X45497646Y2615300D01*
X45500500Y2645730D01*
X45500500Y5254269D01*
X45497646Y5284699D01*
X45497646Y5284701D01*
X45472745Y5355862D01*
X45452793Y5412882D01*
X45372150Y5522150D01*
X45262882Y5602793D01*
X45170565Y5635096D01*
X45134700Y5647646D01*
X45104270Y5650500D01*
X45104266Y5650500D01*
X43895734Y5650500D01*
X43895730Y5650500D01*
X43865300Y5647646D01*
X43865298Y5647646D01*
X43769549Y5614141D01*
X43737118Y5602793D01*
X43729732Y5597342D01*
X43664105Y5573372D01*
X43595935Y5588687D01*
X43546866Y5638427D01*
X43532100Y5697113D01*
X43532100Y8947400D01*
X43551785Y9014439D01*
X43604589Y9060194D01*
X43656100Y9071400D01*
X47375500Y9071400D01*
X47442539Y9051715D01*
X47488294Y8998911D01*
X47499500Y8947400D01*
X47499500Y5464500D01*
X47479815Y5397461D01*
X47427011Y5351706D01*
X47375500Y5340500D01*
X47105514Y5340500D01*
X46918881Y5310940D01*
X46838127Y5284701D01*
X46739168Y5252547D01*
X46739165Y5252545D01*
X46739163Y5252545D01*
X46650347Y5207290D01*
X46570801Y5166760D01*
X46417927Y5055690D01*
X46284310Y4922073D01*
X46199077Y4804760D01*
X46173240Y4769199D01*
X46087454Y4600836D01*
X46029059Y4421118D01*
X45999500Y4234486D01*
X45999500Y2206092D01*
X45998903Y2193938D01*
X45985335Y2056180D01*
X45980593Y2032340D01*
X45958542Y1959646D01*
X45942186Y1905728D01*
X45932883Y1883271D01*
X45870517Y1766593D01*
X45857012Y1746381D01*
X45773079Y1644108D01*
X45755891Y1626920D01*
X45661306Y1549296D01*
X45653618Y1542987D01*
X45633407Y1529483D01*
X45516725Y1467114D01*
X45494277Y1457815D01*
X45367652Y1419404D01*
X45343824Y1414665D01*
X45225668Y1403028D01*
X45206061Y1401097D01*
X45193908Y1400500D01*
X13088924Y1400500D01*
X13021885Y1420185D01*
X12976130Y1472989D01*
X12966186Y1542147D01*
X12995211Y1605703D01*
X13013435Y1622874D01*
X13014617Y1623781D01*
X13126419Y1735583D01*
X13126424Y1735590D01*
X13205473Y1872509D01*
X13205477Y1872516D01*
X13246400Y2025243D01*
X13246400Y2183357D01*
X13205477Y2336084D01*
X13191530Y2360239D01*
X13175057Y2428138D01*
X13197909Y2494166D01*
X13252829Y2537357D01*
X13310138Y2545731D01*
X13323684Y2544500D01*
X13323686Y2544500D01*
X14436913Y2544500D01*
X14436916Y2544500D01*
X14458078Y2546423D01*
X14507492Y2550913D01*
X14507494Y2550913D01*
X14507496Y2550914D01*
X14669906Y2601522D01*
X14815485Y2689528D01*
X14815488Y2689530D01*
X14935769Y2809811D01*
X14935770Y2809813D01*
X14935772Y2809815D01*
X15023778Y2955394D01*
X15025780Y2961819D01*
X15031915Y2981505D01*
X15070652Y3039653D01*
X15134678Y3067627D01*
X15203663Y3056545D01*
X15255706Y3009927D01*
X15268685Y2981505D01*
X15276820Y2955397D01*
X15364830Y2809811D01*
X15485111Y2689530D01*
X15630693Y2601522D01*
X15793107Y2550913D01*
X15844445Y2546248D01*
X15863684Y2544500D01*
X15863687Y2544500D01*
X16976913Y2544500D01*
X16976916Y2544500D01*
X16998078Y2546423D01*
X17047492Y2550913D01*
X17047494Y2550913D01*
X17047496Y2550914D01*
X17209906Y2601522D01*
X17355485Y2689528D01*
X17355488Y2689530D01*
X17475769Y2809811D01*
X17475770Y2809813D01*
X17475772Y2809815D01*
X17563778Y2955394D01*
X17565780Y2961819D01*
X17571915Y2981505D01*
X17610652Y3039653D01*
X17674678Y3067627D01*
X17743663Y3056545D01*
X17795706Y3009927D01*
X17808685Y2981505D01*
X17816820Y2955397D01*
X17904830Y2809811D01*
X18025111Y2689530D01*
X18170693Y2601522D01*
X18333107Y2550913D01*
X18384445Y2546248D01*
X18403684Y2544500D01*
X18403687Y2544500D01*
X19516913Y2544500D01*
X19516916Y2544500D01*
X19538078Y2546423D01*
X19587492Y2550913D01*
X19587494Y2550913D01*
X19587496Y2550914D01*
X19749906Y2601522D01*
X19895485Y2689528D01*
X19895488Y2689530D01*
X20015769Y2809811D01*
X20015770Y2809813D01*
X20015772Y2809815D01*
X20103778Y2955394D01*
X20105780Y2961819D01*
X20111915Y2981505D01*
X20150652Y3039653D01*
X20214678Y3067627D01*
X20283663Y3056545D01*
X20335706Y3009927D01*
X20348685Y2981505D01*
X20356820Y2955397D01*
X20444830Y2809811D01*
X20565111Y2689530D01*
X20710693Y2601522D01*
X20873107Y2550913D01*
X20924445Y2546248D01*
X20943684Y2544500D01*
X20943687Y2544500D01*
X22056913Y2544500D01*
X22056916Y2544500D01*
X22078078Y2546423D01*
X22127492Y2550913D01*
X22127494Y2550913D01*
X22127496Y2550914D01*
X22289906Y2601522D01*
X22396171Y2665762D01*
X22463726Y2683598D01*
X22530199Y2662080D01*
X22548002Y2647326D01*
X23366340Y1828989D01*
X23422287Y1773041D01*
X23422295Y1773035D01*
X23490804Y1733482D01*
X23490809Y1733479D01*
X23529024Y1723239D01*
X23567238Y1713000D01*
X23567240Y1713000D01*
X33547360Y1713000D01*
X33547362Y1713000D01*
X33607074Y1729000D01*
X33623790Y1733479D01*
X33623795Y1733482D01*
X33692304Y1773035D01*
X33692312Y1773041D01*
X33748260Y1828989D01*
X34687819Y2768547D01*
X34749142Y2802032D01*
X34818834Y2797048D01*
X34874767Y2755176D01*
X34899184Y2689712D01*
X34899500Y2680866D01*
X34899500Y2635943D01*
X34940423Y2483216D01*
X34940426Y2483209D01*
X35019475Y2346290D01*
X35019481Y2346282D01*
X35131282Y2234481D01*
X35131290Y2234475D01*
X35268209Y2155426D01*
X35268216Y2155423D01*
X35420943Y2114500D01*
X35579056Y2114500D01*
X35579057Y2114500D01*
X35731784Y2155423D01*
X35731786Y2155424D01*
X35731790Y2155426D01*
X35868709Y2234475D01*
X35868717Y2234481D01*
X35980518Y2346282D01*
X35980524Y2346290D01*
X36059573Y2483209D01*
X36059577Y2483216D01*
X36100500Y2635943D01*
X36100500Y2794057D01*
X36100500Y2802185D01*
X36103684Y2802185D01*
X36112102Y2856398D01*
X36136629Y2891302D01*
X36360462Y3115135D01*
X36360465Y3115138D01*
X36403318Y3189361D01*
X36403318Y3189363D01*
X36406430Y3196873D01*
X36409220Y3195717D01*
X36438063Y3243079D01*
X36480554Y3268399D01*
X36562880Y3297206D01*
X36562882Y3297207D01*
X36672147Y3377848D01*
X36672150Y3377850D01*
X36672883Y3378843D01*
X36673964Y3379664D01*
X36678721Y3384421D01*
X36679371Y3383770D01*
X36728526Y3421094D01*
X36798182Y3426556D01*
X36859733Y3393492D01*
X36860335Y3392893D01*
X37317740Y2935489D01*
X37373687Y2879541D01*
X37373695Y2879535D01*
X37442204Y2839982D01*
X37442209Y2839979D01*
X37480424Y2829739D01*
X37518638Y2819500D01*
X37518640Y2819500D01*
X38605960Y2819500D01*
X38605962Y2819500D01*
X38656913Y2833152D01*
X38682390Y2839979D01*
X38682395Y2839982D01*
X38750904Y2879535D01*
X38750912Y2879541D01*
X39307646Y3436275D01*
X39368969Y3469760D01*
X39438661Y3464776D01*
X39494594Y3422904D01*
X39495096Y3422229D01*
X39527849Y3377850D01*
X39637117Y3297207D01*
X39637119Y3297206D01*
X39765299Y3252353D01*
X39795730Y3249500D01*
X39795734Y3249500D01*
X40404270Y3249500D01*
X40434699Y3252353D01*
X40434701Y3252353D01*
X40562880Y3297206D01*
X40562882Y3297207D01*
X40605753Y3328847D01*
X40672150Y3377850D01*
X40752793Y3487118D01*
X40770786Y3538538D01*
X40797646Y3615298D01*
X40797646Y3615300D01*
X40800500Y3645730D01*
X40800500Y8749986D01*
X41100000Y8749986D01*
X41100000Y6450000D01*
X41850000Y6450000D01*
X41850000Y9449999D01*
X41800028Y9449999D01*
X41800013Y9449998D01*
X41697302Y9439505D01*
X41530880Y9384358D01*
X41530875Y9384356D01*
X41381654Y9292315D01*
X41257684Y9168345D01*
X41165643Y9019124D01*
X41165641Y9019119D01*
X41110494Y8852697D01*
X41110493Y8852690D01*
X41100000Y8749986D01*
X40800500Y8749986D01*
X40800500Y8754269D01*
X40797646Y8784699D01*
X40797646Y8784701D01*
X40761016Y8889382D01*
X40752793Y8912882D01*
X40672150Y9022150D01*
X40562882Y9102793D01*
X40471408Y9134801D01*
X40434700Y9147646D01*
X40404270Y9150500D01*
X40404266Y9150500D01*
X39795734Y9150500D01*
X39795730Y9150500D01*
X39765300Y9147646D01*
X39765298Y9147646D01*
X39676656Y9116628D01*
X39637118Y9102793D01*
X39527850Y9022150D01*
X39456319Y8925228D01*
X39447207Y8912882D01*
X39447206Y8912880D01*
X39402353Y8784701D01*
X39402353Y8784699D01*
X39399500Y8754269D01*
X39399500Y4429433D01*
X39379815Y4362394D01*
X39363181Y4341752D01*
X39012181Y3990752D01*
X38950858Y3957267D01*
X38881166Y3962251D01*
X38825233Y4004123D01*
X38800816Y4069587D01*
X38800500Y4078433D01*
X38800500Y8754269D01*
X38797646Y8784699D01*
X38797646Y8784701D01*
X38761016Y8889382D01*
X38752793Y8912882D01*
X38672150Y9022150D01*
X38562882Y9102793D01*
X38471408Y9134801D01*
X38434700Y9147646D01*
X38404270Y9150500D01*
X38404266Y9150500D01*
X37808332Y9150500D01*
X37741293Y9170185D01*
X37720651Y9186819D01*
X32524864Y14382606D01*
X27319917Y19587553D01*
X27286434Y19648874D01*
X27283600Y19675232D01*
X27283600Y19949960D01*
X27283600Y19949962D01*
X27263121Y20026389D01*
X27223560Y20094911D01*
X27167611Y20150860D01*
X26756511Y20561960D01*
X26715738Y20585500D01*
X26687989Y20601521D01*
X26611562Y20622000D01*
X26611560Y20622000D01*
X22824800Y20622000D01*
X22757761Y20641685D01*
X22712006Y20694489D01*
X22700800Y20746000D01*
X22700800Y21216613D01*
X22698011Y21247302D01*
X22694386Y21287196D01*
X22643778Y21449606D01*
X22555772Y21595185D01*
X22435485Y21715472D01*
X22289906Y21803478D01*
X22127496Y21854086D01*
X22056916Y21860500D01*
X20943684Y21860500D01*
X20873104Y21854086D01*
X20710694Y21803478D01*
X20565115Y21715472D01*
X20565113Y21715470D01*
X20565111Y21715469D01*
X20444830Y21595188D01*
X20444828Y21595185D01*
X20356822Y21449606D01*
X20356822Y21449605D01*
X20348686Y21423495D01*
X20309948Y21365346D01*
X20245923Y21337372D01*
X20176938Y21348453D01*
X20124895Y21395072D01*
X20111914Y21423495D01*
X20107519Y21437599D01*
X20103778Y21449606D01*
X20015772Y21595185D01*
X19895485Y21715472D01*
X19749906Y21803478D01*
X19587496Y21854086D01*
X19516916Y21860500D01*
X18403684Y21860500D01*
X18333104Y21854086D01*
X18170694Y21803478D01*
X18025115Y21715472D01*
X18025113Y21715470D01*
X18025111Y21715469D01*
X17904830Y21595188D01*
X17904828Y21595185D01*
X17816822Y21449606D01*
X17816822Y21449605D01*
X17808686Y21423495D01*
X17769948Y21365346D01*
X17705923Y21337372D01*
X17636938Y21348453D01*
X17584895Y21395072D01*
X17571914Y21423495D01*
X17567519Y21437599D01*
X17563778Y21449606D01*
X17475772Y21595185D01*
X17355485Y21715472D01*
X17209906Y21803478D01*
X17047496Y21854086D01*
X16976916Y21860500D01*
X15863684Y21860500D01*
X15793104Y21854086D01*
X15630694Y21803478D01*
X15485115Y21715472D01*
X15485113Y21715470D01*
X15485111Y21715469D01*
X15364830Y21595188D01*
X15364828Y21595185D01*
X15276822Y21449606D01*
X15276822Y21449605D01*
X15268686Y21423495D01*
X15229948Y21365346D01*
X15165923Y21337372D01*
X15096938Y21348453D01*
X15044895Y21395072D01*
X15031914Y21423495D01*
X15027519Y21437599D01*
X15023778Y21449606D01*
X14935772Y21595185D01*
X14815485Y21715472D01*
X14669906Y21803478D01*
X14507496Y21854086D01*
X14436916Y21860500D01*
X14170915Y21860500D01*
X14103876Y21880185D01*
X14058121Y21932989D01*
X14048177Y22002147D01*
X14077202Y22065703D01*
X14108914Y22091886D01*
X14218716Y22155280D01*
X14330520Y22267084D01*
X14396187Y22380824D01*
X14446753Y22429039D01*
X14515360Y22442263D01*
X14544528Y22435866D01*
X14640302Y22402353D01*
X14670730Y22399500D01*
X14670734Y22399500D01*
X15529270Y22399500D01*
X15559699Y22402353D01*
X15559701Y22402353D01*
X15687880Y22447206D01*
X15687882Y22447207D01*
X15726563Y22475755D01*
X15797150Y22527850D01*
X15877793Y22637118D01*
X15895371Y22687353D01*
X15922646Y22765298D01*
X15922646Y22765300D01*
X15925500Y22795730D01*
X15925500Y24074483D01*
X19492500Y24074483D01*
X19499006Y24013983D01*
X19499006Y24013982D01*
X19550063Y23877092D01*
X19550064Y23877090D01*
X19637624Y23760124D01*
X19754590Y23672564D01*
X19754592Y23672563D01*
X19891483Y23621506D01*
X19951983Y23615000D01*
X20417500Y23615000D01*
X20687500Y23615000D01*
X21153016Y23615000D01*
X21213516Y23621506D01*
X21213517Y23621506D01*
X21350407Y23672563D01*
X21350409Y23672564D01*
X21467375Y23760124D01*
X21554935Y23877090D01*
X21554936Y23877092D01*
X21605993Y24013982D01*
X21605993Y24013983D01*
X21612499Y24074483D01*
X22302500Y24074483D01*
X22309006Y24013983D01*
X22309006Y24013982D01*
X22360063Y23877092D01*
X22360064Y23877090D01*
X22447624Y23760124D01*
X22564590Y23672564D01*
X22564592Y23672563D01*
X22701483Y23621506D01*
X22761983Y23615000D01*
X23227500Y23615000D01*
X23227500Y24115000D01*
X22302500Y24115000D01*
X22302500Y24074483D01*
X21612499Y24074483D01*
X21612500Y24074500D01*
X21612500Y24115000D01*
X20687500Y24115000D01*
X20687500Y23615000D01*
X20417500Y23615000D01*
X20417500Y24115000D01*
X19492500Y24115000D01*
X19492500Y24074483D01*
X15925500Y24074483D01*
X15925500Y24904269D01*
X15922646Y24934699D01*
X15922646Y24934701D01*
X15889393Y25029730D01*
X15877793Y25062882D01*
X15797150Y25172150D01*
X15687882Y25252793D01*
X15588286Y25287643D01*
X15559700Y25297646D01*
X15529270Y25300500D01*
X15529266Y25300500D01*
X14670734Y25300500D01*
X14670730Y25300500D01*
X14640300Y25297646D01*
X14640298Y25297646D01*
X14544163Y25264006D01*
X14512118Y25252793D01*
X14402850Y25172150D01*
X14330673Y25074353D01*
X14322207Y25062882D01*
X14322206Y25062880D01*
X14277353Y24934701D01*
X14277353Y24934699D01*
X14274500Y24904269D01*
X14274500Y23298886D01*
X14254815Y23231847D01*
X14202011Y23186092D01*
X14132853Y23176148D01*
X14088497Y23191501D01*
X14081784Y23195377D01*
X13929057Y23236300D01*
X13929055Y23236300D01*
X13902165Y23236300D01*
X13835126Y23255985D01*
X13814484Y23272619D01*
X13461819Y23625284D01*
X13428334Y23686607D01*
X13425500Y23712965D01*
X13425500Y24904269D01*
X13422646Y24934699D01*
X13422646Y24934701D01*
X13389393Y25029730D01*
X13377793Y25062882D01*
X13297150Y25172150D01*
X13187882Y25252793D01*
X13088286Y25287643D01*
X13059700Y25297646D01*
X13029270Y25300500D01*
X13029266Y25300500D01*
X12170734Y25300500D01*
X12170730Y25300500D01*
X12140300Y25297646D01*
X12140298Y25297646D01*
X12044163Y25264006D01*
X12012118Y25252793D01*
X11902850Y25172150D01*
X11830673Y25074353D01*
X11822207Y25062882D01*
X11822206Y25062880D01*
X11777353Y24934701D01*
X11777353Y24934699D01*
X11774500Y24904269D01*
X11774500Y23712965D01*
X11754815Y23645926D01*
X11738181Y23625284D01*
X11137181Y23024284D01*
X11075858Y22990799D01*
X11006166Y22995783D01*
X10950233Y23037655D01*
X10925816Y23103119D01*
X10925500Y23111965D01*
X10925500Y24904269D01*
X10922646Y24934699D01*
X10922646Y24934701D01*
X10889393Y25029730D01*
X10877793Y25062882D01*
X10797150Y25172150D01*
X10725351Y25225139D01*
X10683103Y25280783D01*
X10677644Y25350439D01*
X10691599Y25386906D01*
X10720976Y25437789D01*
X10764177Y25512616D01*
X10801438Y25651677D01*
X17625001Y25651677D01*
X17635144Y25552392D01*
X17688452Y25391518D01*
X17688457Y25391507D01*
X17777424Y25247271D01*
X17777427Y25247267D01*
X17897267Y25127427D01*
X17897271Y25127424D01*
X18041507Y25038457D01*
X18041518Y25038452D01*
X18202393Y24985144D01*
X18301677Y24975000D01*
X18350000Y24975000D01*
X18350000Y25675000D01*
X17625001Y25675000D01*
X17625001Y25651677D01*
X10801438Y25651677D01*
X10805100Y25665343D01*
X10805100Y25823457D01*
X10764177Y25976184D01*
X10685120Y26113116D01*
X10573316Y26224920D01*
X10436384Y26303977D01*
X10283657Y26344900D01*
X10125543Y26344900D01*
X10041336Y26322337D01*
X10012442Y26323025D01*
X9983619Y26320789D01*
X9977938Y26323846D01*
X9971491Y26324000D01*
X9947555Y26340200D01*
X9922095Y26353904D01*
X9918969Y26359547D01*
X9913629Y26363162D01*
X9902249Y26389734D01*
X9888242Y26415025D01*
X9888150Y26422656D01*
X9886124Y26427390D01*
X9885512Y26450213D01*
X9886043Y26458329D01*
X9900499Y26531004D01*
X15299499Y26531004D01*
X15326418Y26395677D01*
X15326421Y26395667D01*
X15379221Y26268195D01*
X15379228Y26268182D01*
X15455885Y26153458D01*
X15455888Y26153454D01*
X15553454Y26055888D01*
X15553458Y26055885D01*
X15668182Y25979228D01*
X15668195Y25979221D01*
X15795667Y25926421D01*
X15795677Y25926418D01*
X15931005Y25899500D01*
X15931007Y25899500D01*
X16068995Y25899500D01*
X16204322Y25926418D01*
X16204332Y25926421D01*
X16331804Y25979221D01*
X16331817Y25979228D01*
X16446541Y26055885D01*
X16446545Y26055888D01*
X16544111Y26153454D01*
X16544114Y26153458D01*
X16620771Y26268182D01*
X16620778Y26268195D01*
X16673578Y26395667D01*
X16673581Y26395677D01*
X16700500Y26531004D01*
X16700500Y26668995D01*
X16676256Y26790876D01*
X16673580Y26804328D01*
X16620775Y26931811D01*
X16544114Y27046542D01*
X16446542Y27144114D01*
X16331811Y27220775D01*
X16204328Y27273580D01*
X16160041Y27282389D01*
X16068995Y27300500D01*
X16068993Y27300500D01*
X15931007Y27300500D01*
X15931005Y27300500D01*
X15833080Y27281021D01*
X15795672Y27273580D01*
X15795667Y27273578D01*
X15668195Y27220778D01*
X15668182Y27220771D01*
X15553458Y27144114D01*
X15553454Y27144111D01*
X15455888Y27046545D01*
X15455885Y27046541D01*
X15379228Y26931817D01*
X15379221Y26931804D01*
X15326421Y26804332D01*
X15326418Y26804322D01*
X15299500Y26668995D01*
X15299500Y26531004D01*
X15299499Y26531004D01*
X9900499Y26531004D01*
X9900500Y26531007D01*
X9900500Y26668993D01*
X9873580Y26804328D01*
X9820775Y26931811D01*
X9744114Y27046542D01*
X9646542Y27144114D01*
X9531811Y27220775D01*
X9404328Y27273580D01*
X9360041Y27282389D01*
X9268995Y27300500D01*
X9268993Y27300500D01*
X9131007Y27300500D01*
X9131005Y27300500D01*
X9033080Y27281021D01*
X8995672Y27273580D01*
X8995667Y27273578D01*
X8868195Y27220778D01*
X8868182Y27220771D01*
X8753458Y27144114D01*
X8753454Y27144111D01*
X8655888Y27046545D01*
X8655885Y27046541D01*
X8579228Y26931817D01*
X8579221Y26931804D01*
X8526421Y26804332D01*
X8526418Y26804322D01*
X8499500Y26668995D01*
X8499500Y26531004D01*
X8499499Y26531004D01*
X8526418Y26395677D01*
X8526421Y26395667D01*
X8579221Y26268195D01*
X8579228Y26268182D01*
X8655885Y26153458D01*
X8655888Y26153454D01*
X8753454Y26055888D01*
X8753458Y26055885D01*
X8868182Y25979228D01*
X8868195Y25979221D01*
X8995667Y25926421D01*
X8995677Y25926418D01*
X9131005Y25899500D01*
X9131007Y25899500D01*
X9268995Y25899500D01*
X9404322Y25926418D01*
X9404332Y25926421D01*
X9432648Y25938150D01*
X9502118Y25945619D01*
X9564597Y25914343D01*
X9600248Y25854254D01*
X9604100Y25823589D01*
X9604100Y25665343D01*
X9645023Y25512616D01*
X9645025Y25512611D01*
X9672652Y25464759D01*
X9689123Y25396859D01*
X9666270Y25330832D01*
X9611348Y25287643D01*
X9606253Y25285732D01*
X9512118Y25252793D01*
X9402850Y25172150D01*
X9330673Y25074353D01*
X9322207Y25062882D01*
X9322206Y25062880D01*
X9277353Y24934701D01*
X9277353Y24934699D01*
X9274500Y24904269D01*
X9274500Y22795730D01*
X9277353Y22765301D01*
X9284123Y22745956D01*
X9285625Y22716521D01*
X9289820Y22687353D01*
X9287387Y22682026D01*
X9287686Y22676178D01*
X9273038Y22650605D01*
X9260795Y22623797D01*
X9255868Y22620630D01*
X9252958Y22615550D01*
X9226811Y22601957D01*
X9202017Y22586023D01*
X9193921Y22584859D01*
X9190965Y22583322D01*
X9167082Y22581000D01*
X9032465Y22581000D01*
X8965426Y22600685D01*
X8944784Y22617319D01*
X7211819Y24350284D01*
X7178334Y24411607D01*
X7175500Y24437965D01*
X7175500Y24683493D01*
X7159720Y24783121D01*
X7159719Y24783121D01*
X7159719Y24783126D01*
X7098528Y24903220D01*
X7079574Y24922173D01*
X7046090Y24983494D01*
X7051073Y25053185D01*
X7092944Y25109120D01*
X7102159Y25115392D01*
X7202728Y25177424D01*
X7202732Y25177427D01*
X7322572Y25297267D01*
X7322575Y25297271D01*
X7411542Y25441507D01*
X7411547Y25441518D01*
X7464855Y25602393D01*
X7474999Y25701677D01*
X7475000Y25701690D01*
X7475000Y25725000D01*
X5795590Y25725000D01*
X5754996Y25702834D01*
X5728638Y25700000D01*
X3725001Y25700000D01*
X3725001Y25676677D01*
X3735144Y25577392D01*
X3788452Y25416518D01*
X3788457Y25416507D01*
X3877424Y25272271D01*
X3877427Y25272267D01*
X3997268Y25152426D01*
X4097841Y25090392D01*
X4144565Y25038444D01*
X4155786Y24969481D01*
X4127943Y24905399D01*
X4120424Y24897173D01*
X4101476Y24878225D01*
X4101473Y24878221D01*
X4101472Y24878220D01*
X4040281Y24758126D01*
X4040280Y24758124D01*
X4040279Y24758121D01*
X4024500Y24658493D01*
X4024500Y24141506D01*
X4040279Y24041878D01*
X4101473Y23921778D01*
X4101476Y23921774D01*
X4196774Y23826476D01*
X4196778Y23826473D01*
X4316878Y23765279D01*
X4416507Y23749500D01*
X4416512Y23749500D01*
X4983493Y23749500D01*
X5083121Y23765279D01*
X5083124Y23765280D01*
X5083126Y23765281D01*
X5203220Y23826472D01*
X5203221Y23826473D01*
X5203225Y23826476D01*
X5289930Y23913181D01*
X5351253Y23946666D01*
X5377611Y23949500D01*
X5847390Y23949500D01*
X5914429Y23929815D01*
X5935066Y23913185D01*
X5959458Y23888794D01*
X5996778Y23851473D01*
X6116878Y23790279D01*
X6216507Y23774500D01*
X6216512Y23774500D01*
X6462035Y23774500D01*
X6529074Y23754815D01*
X6549716Y23738181D01*
X8226830Y22061066D01*
X8260315Y21999743D01*
X8255331Y21930051D01*
X8213459Y21874118D01*
X8176038Y21854999D01*
X8173109Y21854086D01*
X8173104Y21854086D01*
X8010694Y21803478D01*
X7865115Y21715472D01*
X7865113Y21715470D01*
X7865111Y21715469D01*
X7744830Y21595188D01*
X7744828Y21595185D01*
X7656822Y21449606D01*
X7656822Y21449605D01*
X7648686Y21423495D01*
X7609948Y21365346D01*
X7545923Y21337372D01*
X7476938Y21348453D01*
X7424895Y21395072D01*
X7411914Y21423495D01*
X7407519Y21437599D01*
X7403778Y21449606D01*
X7315772Y21595185D01*
X7195485Y21715472D01*
X7049906Y21803478D01*
X6887496Y21854086D01*
X6816916Y21860500D01*
X5703684Y21860500D01*
X5633104Y21854086D01*
X5470694Y21803478D01*
X5325115Y21715472D01*
X5325113Y21715470D01*
X5325111Y21715469D01*
X5204830Y21595188D01*
X5204828Y21595185D01*
X5116822Y21449606D01*
X5074972Y21315300D01*
X5066213Y21287192D01*
X5059800Y21216613D01*
X5059800Y19353386D01*
X5066213Y19282807D01*
X5116822Y19120393D01*
X5204830Y18974811D01*
X5325111Y18854530D01*
X5470693Y18766522D01*
X5633107Y18715913D01*
X5684445Y18711248D01*
X5703684Y18709500D01*
X6500467Y18709500D01*
X6567506Y18689815D01*
X6613261Y18637011D01*
X6623205Y18567853D01*
X6594180Y18504297D01*
X6588148Y18497819D01*
X6341341Y18251012D01*
X6341335Y18251004D01*
X6301782Y18182495D01*
X6301779Y18182490D01*
X6294952Y18157013D01*
X6281300Y18106062D01*
X6281300Y18106060D01*
X6281300Y14456916D01*
X6261615Y14389877D01*
X6208811Y14344122D01*
X6139653Y14334178D01*
X6076097Y14363203D01*
X6069619Y14369235D01*
X6061301Y14377553D01*
X5914794Y14483996D01*
X5753439Y14566211D01*
X5581209Y14622171D01*
X5489059Y14636765D01*
X5402351Y14650500D01*
X5402346Y14650500D01*
X5221254Y14650500D01*
X5221249Y14650500D01*
X5125229Y14635291D01*
X5042391Y14622171D01*
X4961871Y14596009D01*
X4870163Y14566212D01*
X4870160Y14566211D01*
X4814284Y14537740D01*
X4708806Y14483996D01*
X4708802Y14483993D01*
X4562305Y14377558D01*
X4562300Y14377554D01*
X4434245Y14249499D01*
X4434241Y14249494D01*
X4327806Y14102997D01*
X4245588Y13941639D01*
X4245587Y13941636D01*
X4189629Y13769410D01*
X4161300Y13590551D01*
X4161300Y13409448D01*
X4189629Y13230589D01*
X4245587Y13058363D01*
X4245588Y13058360D01*
X4327806Y12897002D01*
X4434241Y12750505D01*
X4434245Y12750500D01*
X4562300Y12622445D01*
X4562305Y12622441D01*
X4708802Y12516006D01*
X4870160Y12433788D01*
X4870163Y12433787D01*
X5042389Y12377829D01*
X5202478Y12352473D01*
X5265613Y12322544D01*
X5302544Y12263232D01*
X5301546Y12193369D01*
X5262936Y12135137D01*
X5202478Y12107527D01*
X5115439Y12093740D01*
X5042391Y12082171D01*
X4956276Y12054191D01*
X4870163Y12026212D01*
X4870160Y12026211D01*
X4814284Y11997740D01*
X4708806Y11943996D01*
X4708802Y11943993D01*
X4562305Y11837558D01*
X4562300Y11837554D01*
X4434245Y11709499D01*
X4434241Y11709494D01*
X4327806Y11562997D01*
X4245588Y11401639D01*
X4245587Y11401636D01*
X4189629Y11229410D01*
X4161300Y11050551D01*
X4161300Y10869448D01*
X4189629Y10690589D01*
X4245587Y10518363D01*
X4245588Y10518360D01*
X4327806Y10357002D01*
X4434241Y10210505D01*
X4434245Y10210500D01*
X4562300Y10082445D01*
X4562305Y10082441D01*
X4708802Y9976006D01*
X4870160Y9893788D01*
X4870163Y9893787D01*
X5042389Y9837829D01*
X5221249Y9809500D01*
X5221254Y9809500D01*
X5402351Y9809500D01*
X5581210Y9837829D01*
X5753436Y9893787D01*
X5753439Y9893788D01*
X5863100Y9949664D01*
X5914794Y9976004D01*
X5914797Y9976006D01*
X6061294Y10082441D01*
X6061299Y10082445D01*
X6156566Y10177712D01*
X6217889Y10211197D01*
X6287581Y10206213D01*
X6334316Y10171659D01*
X6335593Y10172936D01*
X7705763Y8802764D01*
X7739248Y8741441D01*
X7737858Y8682992D01*
X7736000Y8676057D01*
X7736000Y8517943D01*
X7776923Y8365216D01*
X7776926Y8365209D01*
X7855975Y8228290D01*
X7855981Y8228282D01*
X7967782Y8116481D01*
X7967790Y8116475D01*
X8104709Y8037426D01*
X8104716Y8037423D01*
X8257443Y7996500D01*
X8415556Y7996500D01*
X8415557Y7996500D01*
X8568284Y8037423D01*
X8568286Y8037424D01*
X8568290Y8037426D01*
X8705209Y8116475D01*
X8705217Y8116481D01*
X8817018Y8228282D01*
X8817024Y8228290D01*
X8896073Y8365209D01*
X8896077Y8365216D01*
X8937000Y8517943D01*
X8937000Y8676057D01*
X8896077Y8828784D01*
X8817020Y8965716D01*
X8705216Y9077520D01*
X8568284Y9156577D01*
X8415557Y9197500D01*
X8257443Y9197500D01*
X8250508Y9195642D01*
X8238509Y9195927D01*
X8227261Y9191732D01*
X8204227Y9196742D01*
X8180661Y9197303D01*
X8169012Y9204403D01*
X8158988Y9206584D01*
X8130738Y9227731D01*
X8036610Y9321859D01*
X8003127Y9383180D01*
X8008111Y9452872D01*
X8049983Y9508805D01*
X8104894Y9532011D01*
X8191344Y9545704D01*
X8408404Y9616230D01*
X8611769Y9719851D01*
X8685109Y9773135D01*
X8685109Y9773137D01*
X8099287Y10358958D01*
X8159690Y10383978D01*
X8266151Y10455112D01*
X8356688Y10545649D01*
X8427822Y10652110D01*
X8452841Y10712510D01*
X9038662Y10126688D01*
X9038663Y10126689D01*
X9091948Y10200030D01*
X9195569Y10403395D01*
X9266095Y10620455D01*
X9301800Y10845883D01*
X9301800Y11074116D01*
X9266095Y11299544D01*
X9195569Y11516604D01*
X9091950Y11719966D01*
X9038662Y11793309D01*
X9038662Y11793310D01*
X8452841Y11207488D01*
X8427822Y11267890D01*
X8356688Y11374351D01*
X8266151Y11464888D01*
X8159690Y11536022D01*
X8099288Y11561041D01*
X8685110Y12146862D01*
X8611766Y12200150D01*
X8440171Y12287583D01*
X8389375Y12335558D01*
X8372580Y12403379D01*
X8395117Y12469514D01*
X8440170Y12508552D01*
X8454795Y12516004D01*
X8601294Y12622441D01*
X8601299Y12622445D01*
X8729354Y12750500D01*
X8729358Y12750505D01*
X8835793Y12897002D01*
X8835796Y12897006D01*
X8893307Y13009877D01*
X8918011Y13058360D01*
X8918012Y13058363D01*
X8962932Y13196617D01*
X8973971Y13230591D01*
X8988882Y13324735D01*
X9002300Y13409448D01*
X9002300Y13590551D01*
X8982898Y13713047D01*
X8973971Y13769409D01*
X8918011Y13941639D01*
X8835796Y14102994D01*
X8729353Y14249501D01*
X8601301Y14377553D01*
X8454794Y14483996D01*
X8293439Y14566211D01*
X8121209Y14622171D01*
X8029059Y14636765D01*
X7942351Y14650500D01*
X7942346Y14650500D01*
X7761254Y14650500D01*
X7761249Y14650500D01*
X7665229Y14635291D01*
X7582391Y14622171D01*
X7501871Y14596009D01*
X7410163Y14566212D01*
X7410160Y14566211D01*
X7354284Y14537740D01*
X7248806Y14483996D01*
X7248802Y14483993D01*
X7102305Y14377558D01*
X7102300Y14377554D01*
X7093981Y14369235D01*
X7032658Y14335750D01*
X6962966Y14340734D01*
X6907033Y14382606D01*
X6882616Y14448070D01*
X6882300Y14456916D01*
X6882300Y17890667D01*
X6901985Y17957706D01*
X6918619Y17978348D01*
X7752597Y18812326D01*
X7813920Y18845811D01*
X7883612Y18840827D01*
X7904428Y18830762D01*
X8010693Y18766522D01*
X8173107Y18715913D01*
X8224445Y18711248D01*
X8243684Y18709500D01*
X8243687Y18709500D01*
X9356913Y18709500D01*
X9356916Y18709500D01*
X9378078Y18711423D01*
X9427492Y18715913D01*
X9427494Y18715913D01*
X9427496Y18715914D01*
X9589906Y18766522D01*
X9735485Y18854528D01*
X9735488Y18854530D01*
X9855769Y18974811D01*
X9855770Y18974813D01*
X9855772Y18974815D01*
X9943778Y19120394D01*
X9943779Y19120397D01*
X9951915Y19146505D01*
X9990652Y19204653D01*
X10054678Y19232627D01*
X10123663Y19221545D01*
X10175706Y19174927D01*
X10188685Y19146505D01*
X10196820Y19120397D01*
X10284830Y18974811D01*
X10405111Y18854530D01*
X10550693Y18766522D01*
X10713107Y18715913D01*
X10764445Y18711248D01*
X10783684Y18709500D01*
X10783687Y18709500D01*
X11896913Y18709500D01*
X11896916Y18709500D01*
X11918078Y18711423D01*
X11967492Y18715913D01*
X11967494Y18715913D01*
X11967496Y18715914D01*
X12129906Y18766522D01*
X12275485Y18854528D01*
X12275488Y18854530D01*
X12395769Y18974811D01*
X12395770Y18974813D01*
X12395772Y18974815D01*
X12483778Y19120394D01*
X12483779Y19120397D01*
X12491915Y19146505D01*
X12530652Y19204653D01*
X12594678Y19232627D01*
X12663663Y19221545D01*
X12715706Y19174927D01*
X12728685Y19146505D01*
X12736820Y19120397D01*
X12824830Y18974811D01*
X12945111Y18854530D01*
X13090693Y18766522D01*
X13253107Y18715913D01*
X13304445Y18711248D01*
X13323684Y18709500D01*
X13323687Y18709500D01*
X14436913Y18709500D01*
X14436916Y18709500D01*
X14458078Y18711423D01*
X14507492Y18715913D01*
X14507494Y18715913D01*
X14507496Y18715914D01*
X14669906Y18766522D01*
X14815485Y18854528D01*
X14815488Y18854530D01*
X14935769Y18974811D01*
X14935770Y18974813D01*
X14935772Y18974815D01*
X15023778Y19120394D01*
X15023779Y19120397D01*
X15031915Y19146505D01*
X15070652Y19204653D01*
X15134678Y19232627D01*
X15203663Y19221545D01*
X15255706Y19174927D01*
X15268685Y19146505D01*
X15276820Y19120397D01*
X15364830Y18974811D01*
X15485111Y18854530D01*
X15630693Y18766522D01*
X15793107Y18715913D01*
X15844445Y18711248D01*
X15863684Y18709500D01*
X15863687Y18709500D01*
X16976913Y18709500D01*
X16976916Y18709500D01*
X16998078Y18711423D01*
X17047492Y18715913D01*
X17047494Y18715913D01*
X17047496Y18715914D01*
X17209906Y18766522D01*
X17316171Y18830762D01*
X17383726Y18848598D01*
X17450199Y18827080D01*
X17468002Y18812326D01*
X18190040Y18090289D01*
X18245987Y18034341D01*
X18245995Y18034335D01*
X18314504Y17994782D01*
X18314509Y17994779D01*
X18351151Y17984961D01*
X18390938Y17974300D01*
X18470062Y17974300D01*
X20735942Y17974300D01*
X20802981Y17954615D01*
X20848736Y17901811D01*
X20859941Y17849807D01*
X20831017Y10580354D01*
X20811066Y10513393D01*
X20758080Y10467849D01*
X20688883Y10458180D01*
X20625443Y10487458D01*
X20619352Y10493151D01*
X14503618Y16608884D01*
X14470134Y16670207D01*
X14467300Y16696565D01*
X14467300Y17618096D01*
X14467300Y17618102D01*
X14456677Y17706564D01*
X14401161Y17847342D01*
X14309722Y17967922D01*
X14189142Y18059361D01*
X14048364Y18114877D01*
X13959902Y18125500D01*
X13173698Y18125500D01*
X13085236Y18114877D01*
X12944458Y18059361D01*
X12896718Y18023159D01*
X12831409Y17998337D01*
X12763045Y18012765D01*
X12725148Y18044277D01*
X12616385Y18179584D01*
X12616384Y18179585D01*
X12472281Y18295418D01*
X12306649Y18377564D01*
X12127231Y18422184D01*
X12085711Y18424999D01*
X11237889Y18424999D01*
X11237882Y18424998D01*
X11196376Y18422185D01*
X11196374Y18422185D01*
X11016950Y18377564D01*
X10851318Y18295418D01*
X10707215Y18179585D01*
X10707214Y18179584D01*
X10619672Y18070678D01*
X11414310Y17276041D01*
X11353910Y17251022D01*
X11247449Y17179888D01*
X11156912Y17089351D01*
X11085778Y16982890D01*
X11060758Y16922489D01*
X10461800Y17521447D01*
X10461800Y15828551D01*
X11060759Y16427510D01*
X11085778Y16367110D01*
X11156912Y16260649D01*
X11247449Y16170112D01*
X11353910Y16098978D01*
X11414310Y16073958D01*
X10619672Y15279320D01*
X10707208Y15170421D01*
X10707217Y15170412D01*
X10851318Y15054581D01*
X11016950Y14972435D01*
X11196368Y14927815D01*
X11237888Y14925000D01*
X12085710Y14925000D01*
X12085717Y14925001D01*
X12127223Y14927814D01*
X12127225Y14927814D01*
X12306649Y14972435D01*
X12472281Y15054581D01*
X12616384Y15170414D01*
X12616385Y15170415D01*
X12725148Y15305722D01*
X12782491Y15345641D01*
X12852313Y15348221D01*
X12896720Y15326839D01*
X12944456Y15290639D01*
X13085238Y15235122D01*
X13134653Y15229188D01*
X13173698Y15224500D01*
X13173703Y15224500D01*
X13959897Y15224500D01*
X13959902Y15224500D01*
X14002726Y15229642D01*
X14048361Y15235122D01*
X14189143Y15290639D01*
X14306886Y15379926D01*
X14372198Y15404749D01*
X14440562Y15390321D01*
X14469492Y15368803D01*
X19261416Y10576879D01*
X19294901Y10515556D01*
X19289917Y10445864D01*
X19248045Y10389931D01*
X19230141Y10379735D01*
X19230254Y10379541D01*
X19086290Y10296424D01*
X19086286Y10296421D01*
X19086284Y10296420D01*
X19086282Y10296418D01*
X18974481Y10184617D01*
X18974475Y10184609D01*
X18905020Y10064307D01*
X18895423Y10047684D01*
X18867025Y9941699D01*
X18854500Y9894956D01*
X18854500Y9736843D01*
X18895423Y9584116D01*
X18895426Y9584109D01*
X18974475Y9447190D01*
X18974481Y9447182D01*
X19086281Y9335382D01*
X19086290Y9335375D01*
X19092501Y9331790D01*
X19140716Y9281223D01*
X19154500Y9224404D01*
X19154500Y5819500D01*
X19134815Y5752461D01*
X19082011Y5706706D01*
X19030500Y5695500D01*
X18403684Y5695500D01*
X18333104Y5689086D01*
X18170694Y5638478D01*
X18025115Y5550472D01*
X18025113Y5550470D01*
X18025111Y5550469D01*
X17904830Y5430188D01*
X17904829Y5430186D01*
X17904828Y5430185D01*
X17816822Y5284606D01*
X17816822Y5284605D01*
X17808686Y5258495D01*
X17769948Y5200346D01*
X17705923Y5172372D01*
X17636938Y5183453D01*
X17584895Y5230072D01*
X17571914Y5258495D01*
X17563778Y5284606D01*
X17475772Y5430185D01*
X17355485Y5550472D01*
X17209906Y5638478D01*
X17047496Y5689086D01*
X16976916Y5695500D01*
X16976913Y5695500D01*
X16844800Y5695500D01*
X16777761Y5715185D01*
X16732006Y5767989D01*
X16720800Y5819500D01*
X16720800Y6860304D01*
X16740485Y6927343D01*
X16782799Y6967690D01*
X16789009Y6971275D01*
X16789013Y6971278D01*
X16789016Y6971280D01*
X16900820Y7083084D01*
X16900821Y7083086D01*
X16900824Y7083090D01*
X16979873Y7220009D01*
X16979877Y7220016D01*
X17020800Y7372743D01*
X17020800Y7530857D01*
X16979877Y7683584D01*
X16900820Y7820516D01*
X16789016Y7932320D01*
X16652084Y8011377D01*
X16499357Y8052300D01*
X16341243Y8052300D01*
X16188516Y8011377D01*
X16188509Y8011373D01*
X16051590Y7932324D01*
X16051586Y7932321D01*
X16051584Y7932320D01*
X16051582Y7932318D01*
X15939781Y7820517D01*
X15939775Y7820509D01*
X15860726Y7683590D01*
X15860723Y7683584D01*
X15828515Y7563380D01*
X15819800Y7530856D01*
X15819800Y7372743D01*
X15860723Y7220016D01*
X15860726Y7220009D01*
X15939775Y7083090D01*
X15939781Y7083082D01*
X16051581Y6971282D01*
X16051590Y6971275D01*
X16057801Y6967690D01*
X16106016Y6917123D01*
X16119800Y6860304D01*
X16119800Y5819500D01*
X16100115Y5752461D01*
X16047311Y5706706D01*
X15995800Y5695500D01*
X15863684Y5695500D01*
X15793104Y5689086D01*
X15630694Y5638478D01*
X15485115Y5550472D01*
X15485113Y5550470D01*
X15485111Y5550469D01*
X15364830Y5430188D01*
X15364829Y5430186D01*
X15364828Y5430185D01*
X15276822Y5284606D01*
X15276822Y5284605D01*
X15268686Y5258495D01*
X15229948Y5200346D01*
X15165923Y5172372D01*
X15096938Y5183453D01*
X15044895Y5230072D01*
X15031914Y5258495D01*
X15023778Y5284606D01*
X14935772Y5430185D01*
X14815485Y5550472D01*
X14669906Y5638478D01*
X14610096Y5657115D01*
X14551950Y5695852D01*
X14523976Y5759877D01*
X14535057Y5828862D01*
X14581676Y5880905D01*
X14646988Y5899500D01*
X14779056Y5899500D01*
X14779057Y5899500D01*
X14931784Y5940423D01*
X14931786Y5940424D01*
X14931790Y5940426D01*
X15068709Y6019475D01*
X15068717Y6019481D01*
X15180518Y6131282D01*
X15180524Y6131290D01*
X15259573Y6268209D01*
X15259577Y6268216D01*
X15300500Y6420943D01*
X15300500Y6579057D01*
X15259577Y6731784D01*
X15180520Y6868716D01*
X15068716Y6980520D01*
X14931784Y7059577D01*
X14779057Y7100500D01*
X14620943Y7100500D01*
X14468216Y7059577D01*
X14468209Y7059573D01*
X14331290Y6980524D01*
X14331286Y6980521D01*
X14331284Y6980520D01*
X14331282Y6980518D01*
X14219481Y6868717D01*
X14219475Y6868709D01*
X14168376Y6780201D01*
X14140423Y6731784D01*
X14111945Y6625500D01*
X14099500Y6579056D01*
X14099500Y6412816D01*
X14096333Y6412816D01*
X14087851Y6358504D01*
X14063370Y6323697D01*
X13619835Y5880162D01*
X13619833Y5880158D01*
X13576982Y5805940D01*
X13574555Y5796879D01*
X13572017Y5787407D01*
X13535652Y5727746D01*
X13472805Y5697217D01*
X13452242Y5695500D01*
X13323684Y5695500D01*
X13253104Y5689086D01*
X13090694Y5638478D01*
X12945115Y5550472D01*
X12945113Y5550470D01*
X12945111Y5550469D01*
X12824830Y5430188D01*
X12824829Y5430186D01*
X12824828Y5430185D01*
X12736822Y5284606D01*
X12736822Y5284605D01*
X12728686Y5258495D01*
X12689948Y5200346D01*
X12625923Y5172372D01*
X12556938Y5183453D01*
X12504895Y5230072D01*
X12491914Y5258495D01*
X12483778Y5284606D01*
X12395772Y5430185D01*
X12275485Y5550472D01*
X12129906Y5638478D01*
X11967496Y5689086D01*
X11896916Y5695500D01*
X10783684Y5695500D01*
X10713104Y5689086D01*
X10550694Y5638478D01*
X10405115Y5550472D01*
X10405113Y5550470D01*
X10405111Y5550469D01*
X10284830Y5430188D01*
X10284829Y5430186D01*
X10284828Y5430185D01*
X10196822Y5284606D01*
X10160101Y5166760D01*
X10150855Y5137089D01*
X10120150Y5086298D01*
X9153852Y4120000D01*
X9153852Y4119999D01*
X10120150Y3153700D01*
X10150854Y3102909D01*
X10196820Y2955397D01*
X10284830Y2809811D01*
X10405111Y2689530D01*
X10550693Y2601522D01*
X10713107Y2550913D01*
X10764445Y2546248D01*
X10783684Y2544500D01*
X11517235Y2544500D01*
X11584274Y2524815D01*
X11604916Y2508181D01*
X12009199Y2103897D01*
X12042684Y2042574D01*
X12044456Y2032407D01*
X12045398Y2025249D01*
X12086323Y1872516D01*
X12086326Y1872509D01*
X12165375Y1735590D01*
X12165381Y1735583D01*
X12277182Y1623781D01*
X12278365Y1622874D01*
X12279108Y1621855D01*
X12282931Y1618033D01*
X12282334Y1617436D01*
X12319566Y1566444D01*
X12323719Y1496698D01*
X12289505Y1435779D01*
X12227787Y1403028D01*
X12202876Y1400500D01*
X5004428Y1400500D01*
X4995582Y1400816D01*
X4989378Y1401259D01*
X4781206Y1416148D01*
X4763705Y1418665D01*
X4558026Y1463407D01*
X4541075Y1468384D01*
X4343844Y1541948D01*
X4327757Y1549296D01*
X4315804Y1555823D01*
X4143025Y1650166D01*
X4128157Y1659720D01*
X3959637Y1785873D01*
X3946283Y1797445D01*
X3797445Y1946283D01*
X3785873Y1959637D01*
X3659720Y2128157D01*
X3650166Y2143025D01*
X3549295Y2327757D01*
X3541946Y2343849D01*
X3539533Y2350319D01*
X3468384Y2541075D01*
X3463407Y2558026D01*
X3418665Y2763705D01*
X3416148Y2781212D01*
X3415229Y2794055D01*
X3400815Y2995582D01*
X3400500Y3004427D01*
X3400500Y5051613D01*
X5059800Y5051613D01*
X5059800Y3188386D01*
X5066213Y3117807D01*
X5116822Y2955393D01*
X5204830Y2809811D01*
X5325111Y2689530D01*
X5470693Y2601522D01*
X5633107Y2550913D01*
X5684445Y2546248D01*
X5703684Y2544500D01*
X5703687Y2544500D01*
X6816913Y2544500D01*
X6816916Y2544500D01*
X6834094Y2546061D01*
X7579913Y2546061D01*
X7589548Y2534245D01*
X7747170Y2405721D01*
X7927438Y2311557D01*
X8122971Y2255609D01*
X8122974Y2255608D01*
X8242299Y2245000D01*
X9358300Y2245000D01*
X9477625Y2255608D01*
X9477628Y2255609D01*
X9673161Y2311557D01*
X9853429Y2405721D01*
X10011050Y2534244D01*
X10020685Y2546061D01*
X10020685Y2546062D01*
X8800301Y3766448D01*
X8800300Y3766448D01*
X7579913Y2546061D01*
X6834094Y2546061D01*
X6838078Y2546423D01*
X6887492Y2550913D01*
X6887494Y2550913D01*
X6887496Y2550914D01*
X7049906Y2601522D01*
X7195485Y2689528D01*
X7195488Y2689530D01*
X7315769Y2809811D01*
X7315770Y2809813D01*
X7315772Y2809815D01*
X7403778Y2955394D01*
X7449745Y3102911D01*
X7480449Y3153701D01*
X8446748Y4120000D01*
X7480450Y5086296D01*
X7449746Y5137084D01*
X7403778Y5284606D01*
X7315772Y5430185D01*
X7195485Y5550472D01*
X7049906Y5638478D01*
X6887496Y5689086D01*
X6834104Y5693938D01*
X7579913Y5693938D01*
X7579913Y5693937D01*
X8800300Y4473552D01*
X10020685Y5693937D01*
X10020686Y5693937D01*
X10011052Y5705753D01*
X9853429Y5834278D01*
X9673161Y5928442D01*
X9477628Y5984390D01*
X9477625Y5984391D01*
X9358300Y5994999D01*
X9358298Y5995000D01*
X8242302Y5995000D01*
X8242299Y5994999D01*
X8122974Y5984391D01*
X8122971Y5984390D01*
X7927438Y5928442D01*
X7747170Y5834278D01*
X7589546Y5705753D01*
X7579913Y5693938D01*
X6834104Y5693938D01*
X6816916Y5695500D01*
X5703684Y5695500D01*
X5633104Y5689086D01*
X5470694Y5638478D01*
X5325115Y5550472D01*
X5325113Y5550470D01*
X5325111Y5550469D01*
X5204830Y5430188D01*
X5204829Y5430186D01*
X5204828Y5430185D01*
X5116822Y5284606D01*
X5080101Y5166760D01*
X5066213Y5122192D01*
X5059800Y5051613D01*
X3400500Y5051613D01*
X3400500Y26223322D01*
X3725000Y26223322D01*
X3725000Y26200000D01*
X4450000Y26200000D01*
X4450000Y26899998D01*
X4950000Y26899998D01*
X4950000Y26200000D01*
X5404410Y26200000D01*
X5445004Y26222166D01*
X5471362Y26225000D01*
X6250000Y26225000D01*
X6250000Y26924998D01*
X6750000Y26924998D01*
X6750000Y26225000D01*
X7474999Y26225000D01*
X7474999Y26248307D01*
X7474998Y26248322D01*
X7464855Y26347607D01*
X7411547Y26508481D01*
X7411542Y26508492D01*
X7322575Y26652728D01*
X7322572Y26652732D01*
X7202732Y26772572D01*
X7202728Y26772575D01*
X7058492Y26861542D01*
X7058481Y26861547D01*
X6897606Y26914855D01*
X6798316Y26924999D01*
X6750000Y26924998D01*
X6250000Y26924998D01*
X6250000Y26924999D01*
X6201692Y26924999D01*
X6201677Y26924998D01*
X6102392Y26914855D01*
X5941518Y26861547D01*
X5941507Y26861542D01*
X5797271Y26772575D01*
X5675180Y26650485D01*
X5613857Y26617001D01*
X5544165Y26621985D01*
X5499817Y26650486D01*
X5402727Y26747576D01*
X5258492Y26836542D01*
X5258481Y26836547D01*
X5097606Y26889855D01*
X4998316Y26899999D01*
X4950000Y26899998D01*
X4450000Y26899998D01*
X4450000Y26899999D01*
X4401692Y26899999D01*
X4401677Y26899998D01*
X4302392Y26889855D01*
X4141518Y26836547D01*
X4141507Y26836542D01*
X3997271Y26747575D01*
X3997267Y26747572D01*
X3877427Y26627732D01*
X3877424Y26627728D01*
X3788457Y26483492D01*
X3788452Y26483481D01*
X3735144Y26322606D01*
X3725000Y26223322D01*
X3400500Y26223322D01*
X3400500Y26995572D01*
X3400816Y27004418D01*
X3412767Y27171516D01*
X3416148Y27218791D01*
X3418666Y27236299D01*
X3422364Y27253300D01*
X3463406Y27441969D01*
X3468385Y27458928D01*
X3541946Y27656150D01*
X3549296Y27672242D01*
X3650163Y27856968D01*
X3659724Y27871848D01*
X3785867Y28040355D01*
X3797452Y28053723D01*
X3946276Y28202547D01*
X3959646Y28214133D01*
X4028511Y28265685D01*
X4128148Y28340272D01*
X4143031Y28349836D01*
X4327757Y28450703D01*
X4343849Y28458053D01*
X4541063Y28531611D01*
X4558039Y28536595D01*
X4763700Y28581333D01*
X4781211Y28583851D01*
X4974407Y28597669D01*
X4995582Y28599184D01*
X5004428Y28599500D01*
X5039882Y28599500D01*
X46866302Y28599500D01*
X46933341Y28579815D01*
G37*
%TD.AperFunction*%
%TD*%
D34*
X5000000Y28800000D02*
X57000000Y28800000D01*
D35*
X3200000Y27000000D02*
X3200000Y27000000D01*
D34*
X5000000Y1200000D02*
G75*
G02*
X3200000Y3000000I0J1800000D01*
G01*
X3200000Y27000000D02*
X3200000Y3000000D01*
X57000000Y28800000D02*
G75*
G02*
X58800000Y27000000I0J-1800000D01*
G01*
D35*
X57000000Y28800000D02*
X57000000Y28800000D01*
X58800000Y27000000D02*
X58800000Y27000000D01*
D34*
X3200000Y27000000D02*
G75*
G02*
X5000000Y28800000I1800000J0D01*
G01*
D35*
X3200000Y27000000D02*
X3200000Y27000000D01*
D34*
X46200000Y2200000D02*
G75*
G02*
X45200000Y1200000I-1000000J0D01*
G01*
D35*
X3200000Y3000000D02*
X3200000Y3000000D01*
X57000000Y28800000D02*
X57000000Y28800000D01*
X57000000Y28800000D02*
X57000000Y28800000D01*
X57000000Y28800000D02*
X57000000Y28800000D01*
X5000000Y28800000D02*
X5000000Y28800000D01*
D34*
X46200000Y2200000D02*
X46200000Y4140000D01*
D35*
X58800000Y27000000D02*
X58800000Y27000000D01*
X5000000Y28800000D02*
X5000000Y28800000D01*
D34*
X58800000Y6140000D02*
G75*
G02*
X57800000Y5140000I-1000000J0D01*
G01*
D35*
X57000000Y28800000D02*
X57000000Y28800000D01*
D34*
X5000000Y1200000D02*
X45200000Y1200000D01*
D35*
X57000000Y28800000D02*
X57000000Y28800000D01*
X3200000Y3000000D02*
X3200000Y3000000D01*
X57000000Y28800000D02*
X57000000Y28800000D01*
D34*
X58800000Y27000000D02*
X58800000Y6140000D01*
D35*
X5000000Y1200000D02*
X5000000Y1200000D01*
D34*
X57800000Y5140000D02*
X47200000Y5140000D01*
D35*
X5000000Y1200000D02*
X5000000Y1200000D01*
D34*
X46200000Y4140000D02*
G75*
G02*
X47200000Y5140000I1000000J0D01*
G01*
D35*
X57000000Y28800000D02*
X57000000Y28800000D01*
X1666666Y0D02*
G75*
G02*
X-1666666Y0I-1666666J0D01*
G01*
X-1666666Y0D02*
G75*
G02*
X1666666Y0I1666666J0D01*
G01*
X-2500000Y0D02*
X2500000Y0D01*
X0Y2500000D02*
X0Y-2500000D01*
M02*
