M48
; DRILL file {KiCad 9.0.7} date 2026-09-09T13:58:09-0700
; FORMAT={-:-/ absolute / metric / decimal}
; #@! TF.CreationDate,2026-09-09T13:58:09-07:00
; #@! TF.GenerationSoftware,Kicad,Pcbnew,9.0.7
; #@! TF.FileFunction,Plated,1,2,PTH
FMAT,2
METRIC
; #@! TA.AperFunction,Plated,PTH,ViaDrill
T1C0.400
; #@! TA.AperFunction,Plated,PTH,ComponentDrill
T2C1.300
%
G90
G05
T1
X8.336Y8.597
X8.506Y23.881
X10.205Y25.744
X12.646Y2.104
X13.85Y22.636
X14.7Y6.5
X16.42Y7.452
X19.455Y9.816
X20.037Y26.674
X20.7Y6.5
X21.083Y26.803
X21.804Y25.787
X24.562Y19.28
X26.281Y19.62
X29.206Y9.522
X31.0Y2.715
X33.118Y3.282
X35.403Y13.428
X35.5Y2.715
X36.949Y12.205
X40.965Y25.745
X41.827Y9.921
X42.186Y11.921
X42.352Y2.329
X44.649Y16.134
X45.6Y13.8
X46.598Y17.517
X47.361Y27.945
X49.94Y18.369
X50.02Y8.044
X50.25Y20.736
X53.996Y20.415
X54.276Y11.014
X55.7Y22.0
X57.8Y25.7
T2
X5.312Y13.5
X5.312Y10.96
X7.852Y13.5
X7.852Y10.96
X11.662Y16.675
X13.567Y16.675
M30
